<svg baseProfile="full" height="14em" style="font-family: times, serif; font-weight:normal; font-style: normal;" version="1.1" width="18.5em" xmlns="http://www.w3.org/2000/svg" xmlns:ev="http://www.w3.org/2001/xml-events" xmlns:xlink="http://www.w3.org/1999/xlink"><defs/><text text-anchor="middle" x="50%" y="1em">S</text><svg width="40.5405%" x="0%" y="3em"><defs/><text text-anchor="middle" x="50%" y="1em">NP</text><svg width="33.3333%" x="0%" y="3em"><defs/><text text-anchor="middle" x="50%" y="1em">D</text><svg width="100%" x="0%" y="3em"><defs/><text text-anchor="middle" x="50%" y="1em">the</text></svg><line stroke="black" x1="50%" x2="50%" y1="1.2em" y2="3em"/></svg><line stroke="black" x1="50%" x2="16.6667%" y1="1.2em" y2="3em"/><svg width="66.6667%" x="33.3333%" y="3em"><defs/><text text-anchor="middle" x="50%" y="1em">N</text><svg width="100%" x="0%" y="3em"><defs/><text text-anchor="middle" x="50%" y="1em">elephant</text></svg><line stroke="black" x1="50%" x2="50%" y1="1.2em" y2="3em"/></svg><line stroke="black" x1="50%" x2="66.6667%" y1="1.2em" y2="3em"/></svg><line stroke="black" x1="50%" x2="20.2703%" y1="1.2em" y2="3em"/><svg width="59.4595%" x="40.5405%" y="3em"><defs/><text text-anchor="middle" x="50%" y="1em">VP</text><svg width="22.7273%" x="0%" y="3em"><defs/><text text-anchor="middle" x="50%" y="1em">V</text><svg width="100%" x="0%" y="3em"><defs/><text text-anchor="middle" x="50%" y="1em">saw</text></svg><line stroke="black" x1="50%" x2="50%" y1="1.2em" y2="3em"/></svg><line stroke="black" x1="50%" x2="11.3636%" y1="1.2em" y2="3em"/><svg width="77.2727%" x="22.7273%" y="3em"><defs/><text text-anchor="middle" x="50%" y="1em">NP</text><svg width="29.4118%" x="0%" y="3em"><defs/><text text-anchor="middle" x="50%" y="1em">D</text><svg width="100%" x="0%" y="3em"><defs/><text text-anchor="middle" x="50%" y="1em">the</text></svg><line stroke="black" x1="50%" x2="50%" y1="1.2em" y2="3em"/></svg><line stroke="black" x1="50%" x2="14.7059%" y1="1.2em" y2="3em"/><svg width="70.5882%" x="29.4118%" y="3em"><defs/><text text-anchor="middle" x="50%" y="1em">N</text><svg width="100%" x="0%" y="3em"><defs/><text text-anchor="middle" x="50%" y="1em">rhinoceros</text></svg><line stroke="black" x1="50%" x2="50%" y1="1.2em" y2="3em"/></svg><line stroke="black" x1="50%" x2="64.7059%" y1="1.2em" y2="3em"/></svg><line stroke="black" x1="50%" x2="61.3636%" y1="1.2em" y2="3em"/></svg><line stroke="black" x1="50%" x2="70.2703%" y1="1.2em" y2="3em"/></svg>
