<svg baseProfile="full" height="14em" version="1.1" width="19em" xmlns="http://www.w3.org/2000/svg" xmlns:ev="http://www.w3.org/2001/xml-events" xmlns:xlink="http://www.w3.org/1999/xlink"><defs/><text text-anchor="middle" x="50%" y="1em">S</text><svg width="47.3684%" x="0%" y="3em"><defs/><text text-anchor="middle" x="50%" y="1em">NP</text><svg width="27.7778%" x="0%" y="3em"><defs/><text text-anchor="middle" x="50%" y="1em">D</text><svg width="100%" x="0%" y="3em"><defs/><text text-anchor="middle" x="50%" y="1em">the</text></svg><line stroke="black" x1="50%" x2="50%" y1="1.2em" y2="3em"/></svg><line stroke="black" x1="50%" x2="13.8889%" y1="1.2em" y2="3em"/><svg width="72.2222%" x="27.7778%" y="3em"><defs/><text text-anchor="middle" x="50%" y="1em">N</text><svg width="100%" x="0%" y="3em"><defs/><text text-anchor="middle" x="50%" y="1em">rhinoceros</text></svg><line stroke="black" x1="50%" x2="50%" y1="1.2em" y2="3em"/></svg><line stroke="black" x1="50%" x2="63.8889%" y1="1.2em" y2="3em"/></svg><line stroke="black" x1="50%" x2="23.6842%" y1="1.2em" y2="3em"/><svg width="52.6316%" x="47.3684%" y="3em"><defs/><text text-anchor="middle" x="50%" y="1em">VP</text><svg width="25%" x="0%" y="3em"><defs/><text text-anchor="middle" x="50%" y="1em">V</text><svg width="100%" x="0%" y="3em"><defs/><text text-anchor="middle" x="50%" y="1em">saw</text></svg><line stroke="black" x1="50%" x2="50%" y1="1.2em" y2="3em"/></svg><line stroke="black" x1="50%" x2="12.5%" y1="1.2em" y2="3em"/><svg width="75%" x="25%" y="3em"><defs/><text text-anchor="middle" x="50%" y="1em">NP</text><svg width="33.3333%" x="0%" y="3em"><defs/><text text-anchor="middle" x="50%" y="1em">D</text><svg width="100%" x="0%" y="3em"><defs/><text text-anchor="middle" x="50%" y="1em">the</text></svg><line stroke="black" x1="50%" x2="50%" y1="1.2em" y2="3em"/></svg><line stroke="black" x1="50%" x2="16.6667%" y1="1.2em" y2="3em"/><svg width="66.6667%" x="33.3333%" y="3em"><defs/><text text-anchor="middle" x="50%" y="1em">N</text><svg width="100%" x="0%" y="3em"><defs/><text text-anchor="middle" x="50%" y="1em">elephant</text></svg><line stroke="black" x1="50%" x2="50%" y1="1.2em" y2="3em"/></svg><line stroke="black" x1="50%" x2="66.6667%" y1="1.2em" y2="3em"/></svg><line stroke="black" x1="50%" x2="62.5%" y1="1.2em" y2="3em"/></svg><line stroke="black" x1="50%" x2="73.6842%" y1="1.2em" y2="3em"/></svg>
