<svg baseProfile="full" height="168px" preserveAspectRatio="xMidYMid meet" style="font-family: times, serif; font-weight: normal; font-style: normal; font-size: 16px;" version="1.1" viewBox="0,0,144.0,168.0" width="144px" xmlns="http://www.w3.org/2000/svg" xmlns:ev="http://www.w3.org/2001/xml-events" xmlns:xlink="http://www.w3.org/1999/xlink"><defs /><svg width="100%" x="0" y="0px"><defs /><text text-anchor="middle" x="50%" y="16px">S</text></svg><svg width="33.3333%" x="0%" y="48px"><defs /><svg width="100%" x="0" y="0px"><defs /><text text-anchor="middle" x="50%" y="16px">NP</text></svg><svg width="50%" x="0%" y="48px"><defs /><svg width="100%" x="0" y="0px"><defs /><text text-anchor="middle" x="50%" y="16px">D</text></svg></svg><line stroke="black" x1="50%" x2="25%" y1="19.2px" y2="48px" /><svg width="50%" x="50%" y="48px"><defs /><svg width="100%" x="0" y="0px"><defs /><text text-anchor="middle" x="50%" y="16px">N</text></svg></svg><line stroke="black" x1="50%" x2="75%" y1="19.2px" y2="48px" /></svg><line stroke="black" x1="50%" x2="16.6667%" y1="19.2px" y2="48px" /><svg width="66.6667%" x="33.3333%" y="48px"><defs /><svg width="100%" x="0" y="0px"><defs /><text text-anchor="middle" x="50%" y="16px">VP</text></svg><svg width="25%" x="0%" y="48px"><defs /><svg width="100%" x="0" y="0px"><defs /><text text-anchor="middle" x="50%" y="16px">V</text></svg></svg><line stroke="black" x1="50%" x2="12.5%" y1="19.2px" y2="48px" /><svg width="75%" x="25%" y="48px"><defs /><svg width="100%" x="0" y="0px"><defs /><text text-anchor="middle" x="50%" y="16px">NP</text></svg><svg width="33.3333%" x="0%" y="48px"><defs /><svg width="100%" x="0" y="0px"><defs /><text text-anchor="middle" x="50%" y="16px">D</text></svg></svg><line stroke="black" x1="50%" x2="16.6667%" y1="19.2px" y2="48px" /><svg width="33.3333%" x="33.3333%" y="48px"><defs /><svg width="100%" x="0" y="0px"><defs /><text text-anchor="middle" x="50%" y="16px">A</text></svg></svg><line stroke="black" x1="50%" x2="50%" y1="19.2px" y2="48px" /><svg width="33.3333%" x="66.6667%" y="48px"><defs /><svg width="100%" x="0" y="0px"><defs /><text text-anchor="middle" x="50%" y="16px">N</text></svg></svg><line stroke="black" x1="50%" x2="83.3333%" y1="19.2px" y2="48px" /></svg><line stroke="black" x1="50%" x2="62.5%" y1="19.2px" y2="48px" /></svg><line stroke="black" x1="50%" x2="66.6667%" y1="19.2px" y2="48px" /></svg>