<svg baseProfile="full" height="216px" preserveAspectRatio="xMidYMid meet" style="font-family: &quot;Lucida Console&quot;, Monaco, monospace; font-weight: normal; font-style: normal; font-size: 16px" version="1.1" viewBox="0,0,672.0,216.0" width="672px" xmlns="http://www.w3.org/2000/svg" xmlns:ev="http://www.w3.org/2001/xml-events" xmlns:xlink="http://www.w3.org/1999/xlink"><defs /><svg width="100%" x="0" y="0px"><defs /><text text-anchor="middle" x="50%" y="16px">()</text></svg><svg width="42.8571%" x="0%" y="48px"><defs /><svg width="100%" x="0" y="0px"><defs /><text text-anchor="middle" x="50%" y="16px">(0,)</text></svg><svg width="33.3333%" x="0%" y="48px"><defs /><svg width="100%" x="0" y="0px"><defs /><text text-anchor="middle" x="50%" y="16px">(0,0)</text></svg><svg width="100%" x="0%" y="48px"><defs /><svg width="100%" x="0" y="0px"><defs /><text text-anchor="middle" x="50%" y="16px">(0,0,0)</text></svg></svg><line stroke="black" x1="50%" x2="50%" y1="20px" y2="48px" /></svg><line stroke="black" x1="50%" x2="16.6667%" y1="20px" y2="48px" /><svg width="66.6667%" x="33.3333%" y="48px"><defs /><svg width="100%" x="0" y="0px"><defs /><text text-anchor="middle" x="50%" y="16px">(0,1)</text></svg><svg width="50%" x="0%" y="48px"><defs /><svg width="100%" x="0" y="0px"><defs /><text text-anchor="middle" x="50%" y="16px">(0,1,0)</text></svg></svg><line stroke="black" x1="50%" x2="25%" y1="20px" y2="48px" /><svg width="50%" x="50%" y="48px"><defs /><svg width="100%" x="0" y="0px"><defs /><text text-anchor="middle" x="50%" y="16px">(0,1,1)</text></svg></svg><line stroke="black" x1="50%" x2="75%" y1="20px" y2="48px" /></svg><line stroke="black" x1="50%" x2="66.6667%" y1="20px" y2="48px" /></svg><line stroke="black" x1="50%" x2="21.4286%" y1="20px" y2="48px" /><svg width="57.1429%" x="42.8571%" y="48px"><defs /><svg width="100%" x="0" y="0px"><defs /><text text-anchor="middle" x="50%" y="16px">(1,)</text></svg><svg width="19.4444%" x="0%" y="48px"><defs /><svg width="100%" x="0" y="0px"><defs /><text text-anchor="middle" x="50%" y="16px">(1,0)</text></svg></svg><line stroke="black" x1="50%" x2="9.72222%" y1="20px" y2="48px" /><svg width="25%" x="19.4444%" y="48px"><defs /><svg width="100%" x="0" y="0px"><defs /><text text-anchor="middle" x="50%" y="16px">(1,1)</text></svg><svg width="100%" x="0%" y="48px"><defs /><svg width="100%" x="0" y="0px"><defs /><text text-anchor="middle" x="50%" y="16px">(1,1,0)</text></svg></svg><line stroke="black" x1="50%" x2="50%" y1="20px" y2="48px" /></svg><line stroke="black" x1="50%" x2="31.9444%" y1="20px" y2="48px" /><svg width="55.5556%" x="44.4444%" y="48px"><defs /><svg width="100%" x="0" y="0px"><defs /><text text-anchor="middle" x="50%" y="16px">(1,2)</text></svg><svg width="45%" x="0%" y="48px"><defs /><svg width="100%" x="0" y="0px"><defs /><text text-anchor="middle" x="50%" y="16px">(1,2,0)</text></svg></svg><line stroke="black" x1="50%" x2="22.5%" y1="20px" y2="48px" /><svg width="55%" x="45%" y="48px"><defs /><svg width="100%" x="0" y="0px"><defs /><text text-anchor="middle" x="50%" y="16px">(1,2,1)</text></svg><svg width="100%" x="0%" y="48px"><defs /><svg width="100%" x="0" y="0px"><defs /><text text-anchor="middle" x="50%" y="16px">(1,2,1,0)</text></svg></svg><line stroke="black" x1="50%" x2="50%" y1="20px" y2="48px" /></svg><line stroke="black" x1="50%" x2="72.5%" y1="20px" y2="48px" /></svg><line stroke="black" x1="50%" x2="72.2222%" y1="20px" y2="48px" /></svg><line stroke="black" x1="50%" x2="71.4286%" y1="20px" y2="48px" /></svg>