<svg baseProfile="full" height="890.5px" preserveAspectRatio="xMidYMid meet" version="1.1" viewBox="0,0,559.0,890.5" width="559px" xmlns="http://www.w3.org/2000/svg" xmlns:ev="http://www.w3.org/2001/xml-events" xmlns:xlink="http://www.w3.org/1999/xlink"><defs /><svg height="383.5" width="559.0" x="0" y="16"><defs /><svg baseProfile="full" height="383.5px" preserveAspectRatio="xMidYMid meet" version="1.1" viewBox="0,0,559.0,383.5" width="559px" xmlns="http://www.w3.org/2000/svg" xmlns:ev="http://www.w3.org/2001/xml-events" xmlns:xlink="http://www.w3.org/1999/xlink"><defs /><svg height="351.0" width="559.0" x="0" y="0"><defs /><svg baseProfile="full" height="351px" preserveAspectRatio="xMidYMid meet" style="font-family: georgia, times, serif; font-weight:normal; font-style: normal; font-size: 26px" version="1.1" viewBox="0,0,559.0,351.0" width="559px" xmlns="http://www.w3.org/2000/svg" xmlns:ev="http://www.w3.org/2001/xml-events" xmlns:xlink="http://www.w3.org/1999/xlink"><defs /><svg width="100%" x="0" y="0px"><defs /><text fill="black" text-anchor="middle" x="50%" y="26px">S</text></svg><svg width="39.5349%" x="0%" y="78px"><defs /><svg width="100%" x="0" y="0px"><defs /><text fill="black" text-anchor="middle" x="50%" y="26px">NP</text></svg><svg width="29.4118%" x="0%" y="78px"><defs /><svg width="100%" x="0" y="0px"><defs /><text fill="black" text-anchor="middle" x="50%" y="26px">D</text></svg><svg width="100%" x="0%" y="78px"><defs /><svg width="100%" x="0" y="0px"><defs /><text fill="black" text-anchor="middle" x="50%" y="26px">the</text></svg></svg><line stroke="black" x1="50%" x2="50%" y1="32.5px" y2="78px" /></svg><line stroke="black" x1="50%" x2="14.7059%" y1="32.5px" y2="78px" /><svg width="70.5882%" x="29.4118%" y="78px"><defs /><svg width="100%" x="0" y="0px"><defs /><text fill="black" text-anchor="middle" x="50%" y="26px">N</text></svg><svg width="100%" x="0%" y="78px"><defs /><svg width="100%" x="0" y="0px"><defs /><text fill="black" text-anchor="middle" x="50%" y="26px">rhinoceros</text></svg></svg><line stroke="black" x1="50%" x2="50%" y1="32.5px" y2="78px" /></svg><line stroke="black" x1="50%" x2="64.7059%" y1="32.5px" y2="78px" /></svg><line stroke="black" x1="50%" x2="19.7674%" y1="32.5px" y2="78px" /><svg width="60.4651%" x="39.5349%" y="78px"><defs /><svg width="100%" x="0" y="0px"><defs /><text fill="black" text-anchor="middle" x="50%" y="26px">VP</text></svg><svg width="19.2308%" x="0%" y="78px"><defs /><svg width="100%" x="0" y="0px"><defs /><text fill="black" text-anchor="middle" x="50%" y="26px">V</text></svg><svg width="100%" x="0%" y="78px"><defs /><svg width="100%" x="0" y="0px"><defs /><text fill="black" text-anchor="middle" x="50%" y="26px">saw</text></svg></svg><line stroke="black" x1="50%" x2="50%" y1="32.5px" y2="78px" /></svg><line stroke="black" x1="50%" x2="9.61538%" y1="32.5px" y2="78px" /><svg width="80.7692%" x="19.2308%" y="78px"><defs /><svg width="100%" x="0" y="0px"><defs /><text fill="black" text-anchor="middle" x="50%" y="26px">NP</text></svg><svg width="23.8095%" x="0%" y="78px"><defs /><svg width="100%" x="0" y="0px"><defs /><text fill="black" text-anchor="middle" x="50%" y="26px">D</text></svg><svg width="100%" x="0%" y="78px"><defs /><svg width="100%" x="0" y="0px"><defs /><text fill="black" text-anchor="middle" x="50%" y="26px">the</text></svg></svg><line stroke="black" x1="50%" x2="50%" y1="32.5px" y2="78px" /></svg><line stroke="black" x1="50%" x2="11.9048%" y1="32.5px" y2="78px" /><svg width="28.5714%" x="23.8095%" y="78px"><defs /><svg width="100%" x="0" y="0px"><defs /><text fill="black" text-anchor="middle" x="50%" y="26px">A</text></svg><svg width="100%" x="0%" y="78px"><defs /><svg width="100%" x="0" y="0px"><defs /><text fill="black" text-anchor="middle" x="50%" y="26px">gray</text></svg></svg><line stroke="black" x1="50%" x2="50%" y1="32.5px" y2="78px" /></svg><line stroke="black" x1="50%" x2="38.0952%" y1="32.5px" y2="78px" /><svg width="47.619%" x="52.381%" y="78px"><defs /><svg width="100%" x="0" y="0px"><defs /><text fill="black" text-anchor="middle" x="50%" y="26px">N</text></svg><svg width="100%" x="0%" y="78px"><defs /><svg width="100%" x="0" y="0px"><defs /><text fill="black" text-anchor="middle" x="50%" y="26px">elephant</text></svg></svg><line stroke="black" x1="50%" x2="50%" y1="32.5px" y2="78px" /></svg><line stroke="black" x1="50%" x2="76.1905%" y1="32.5px" y2="78px" /></svg><line stroke="black" x1="50%" x2="59.6154%" y1="32.5px" y2="78px" /></svg><line stroke="black" x1="50%" x2="69.7674%" y1="32.5px" y2="78px" /></svg></svg><svg height="100%" width="100%" x="0" y="357.5"><defs /><text style="font-family: times, serif; font-weight:normal; font-style: italic; font-size: 13px;" text-anchor="middle" x="50%" y="1em">Example t1 with style 0</text></svg></svg></svg><svg height="248.5" width="344.0" x="0" y="415.5"><defs /><svg baseProfile="full" height="248.5px" preserveAspectRatio="xMidYMid meet" version="1.1" viewBox="0,0,344.0,248.5" width="344px" xmlns="http://www.w3.org/2000/svg" xmlns:ev="http://www.w3.org/2001/xml-events" xmlns:xlink="http://www.w3.org/1999/xlink"><defs /><svg height="216.0" width="344.0" x="0" y="0"><defs /><svg baseProfile="full" height="216px" preserveAspectRatio="xMidYMid meet" style="font-family: sans-serif; font-weight:normal; font-style: normal; font-size: 16px" version="1.1" viewBox="0,0,344.0,216.0" width="344px" xmlns="http://www.w3.org/2000/svg" xmlns:ev="http://www.w3.org/2001/xml-events" xmlns:xlink="http://www.w3.org/1999/xlink"><defs /><svg width="100%" x="0" y="0px"><defs /><text fill="red" text-anchor="middle" x="50%" y="16px">S</text></svg><svg width="39.5349%" x="0%" y="48px"><defs /><svg width="100%" x="0" y="0px"><defs /><text fill="red" text-anchor="middle" x="50%" y="16px">NP</text></svg><svg width="29.4118%" x="0%" y="48px"><defs /><svg width="100%" x="0" y="0px"><defs /><text fill="red" text-anchor="middle" x="50%" y="16px">D</text></svg><svg width="100%" x="0%" y="48px"><defs /><svg width="100%" x="0" y="0px"><defs /><text fill="red" text-anchor="middle" x="50%" y="16px">the</text></svg></svg><line stroke="black" x1="50%" x2="50%" y1="20px" y2="48px" /></svg><line stroke="black" x1="50%" x2="14.7059%" y1="20px" y2="48px" /><svg width="70.5882%" x="29.4118%" y="48px"><defs /><svg width="100%" x="0" y="0px"><defs /><text fill="red" text-anchor="middle" x="50%" y="16px">N</text></svg><svg width="100%" x="0%" y="48px"><defs /><svg width="100%" x="0" y="0px"><defs /><text fill="red" text-anchor="middle" x="50%" y="16px">rhinoceros</text></svg></svg><line stroke="black" x1="50%" x2="50%" y1="20px" y2="48px" /></svg><line stroke="black" x1="50%" x2="64.7059%" y1="20px" y2="48px" /></svg><line stroke="black" x1="50%" x2="19.7674%" y1="20px" y2="48px" /><svg width="60.4651%" x="39.5349%" y="48px"><defs /><svg width="100%" x="0" y="0px"><defs /><text fill="red" text-anchor="middle" x="50%" y="16px">VP</text></svg><svg width="19.2308%" x="0%" y="48px"><defs /><svg width="100%" x="0" y="0px"><defs /><text fill="red" text-anchor="middle" x="50%" y="16px">V</text></svg><svg width="100%" x="0%" y="48px"><defs /><svg width="100%" x="0" y="0px"><defs /><text fill="red" text-anchor="middle" x="50%" y="16px">saw</text></svg></svg><line stroke="black" x1="50%" x2="50%" y1="20px" y2="48px" /></svg><line stroke="black" x1="50%" x2="9.61538%" y1="20px" y2="48px" /><svg width="80.7692%" x="19.2308%" y="48px"><defs /><svg width="100%" x="0" y="0px"><defs /><text fill="red" text-anchor="middle" x="50%" y="16px">NP</text></svg><svg width="23.8095%" x="0%" y="48px"><defs /><svg width="100%" x="0" y="0px"><defs /><text fill="red" text-anchor="middle" x="50%" y="16px">D</text></svg><svg width="100%" x="0%" y="48px"><defs /><svg width="100%" x="0" y="0px"><defs /><text fill="red" text-anchor="middle" x="50%" y="16px">the</text></svg></svg><line stroke="black" x1="50%" x2="50%" y1="20px" y2="48px" /></svg><line stroke="black" x1="50%" x2="11.9048%" y1="20px" y2="48px" /><svg width="28.5714%" x="23.8095%" y="48px"><defs /><svg width="100%" x="0" y="0px"><defs /><text fill="red" text-anchor="middle" x="50%" y="16px">A</text></svg><svg width="100%" x="0%" y="48px"><defs /><svg width="100%" x="0" y="0px"><defs /><text fill="red" text-anchor="middle" x="50%" y="16px">gray</text></svg></svg><line stroke="black" x1="50%" x2="50%" y1="20px" y2="48px" /></svg><line stroke="black" x1="50%" x2="38.0952%" y1="20px" y2="48px" /><svg width="47.619%" x="52.381%" y="48px"><defs /><svg width="100%" x="0" y="0px"><defs /><text fill="red" text-anchor="middle" x="50%" y="16px">N</text></svg><svg width="100%" x="0%" y="48px"><defs /><svg width="100%" x="0" y="0px"><defs /><text fill="red" text-anchor="middle" x="50%" y="16px">elephant</text></svg></svg><line stroke="black" x1="50%" x2="50%" y1="20px" y2="48px" /></svg><line stroke="black" x1="50%" x2="76.1905%" y1="20px" y2="48px" /></svg><line stroke="black" x1="50%" x2="59.6154%" y1="20px" y2="48px" /></svg><line stroke="black" x1="50%" x2="69.7674%" y1="20px" y2="48px" /></svg></svg><svg height="100%" width="100%" x="0" y="222.5"><defs /><text style="font-family: times, serif; font-weight:normal; font-style: italic; font-size: 13px;" text-anchor="middle" x="50%" y="1em">Example t1 with style 1</text></svg></svg></svg><svg height="194.5" width="258.0" x="0" y="680.0"><defs /><svg baseProfile="full" height="194.5px" preserveAspectRatio="xMidYMid meet" version="1.1" viewBox="0,0,258.0,194.5" width="258px" xmlns="http://www.w3.org/2000/svg" xmlns:ev="http://www.w3.org/2001/xml-events" xmlns:xlink="http://www.w3.org/1999/xlink"><defs /><svg height="162.0" width="258.0" x="0" y="0"><defs /><svg baseProfile="full" height="162px" preserveAspectRatio="xMidYMid meet" style="font-family: impact, times, serif; font-weight: normal; font-style: italic; font-size: 12px" version="1.1" viewBox="0,0,258.0,162.0" width="258px" xmlns="http://www.w3.org/2000/svg" xmlns:ev="http://www.w3.org/2001/xml-events" xmlns:xlink="http://www.w3.org/1999/xlink"><defs /><svg width="100%" x="0" y="0px"><defs /><text fill="#FF69B4" text-anchor="middle" x="50%" y="12px">S</text></svg><svg width="39.5349%" x="0%" y="36px"><defs /><svg width="100%" x="0" y="0px"><defs /><text fill="#FF69B4" text-anchor="middle" x="50%" y="12px">NP</text></svg><svg width="29.4118%" x="0%" y="36px"><defs /><svg width="100%" x="0" y="0px"><defs /><text fill="#FF69B4" text-anchor="middle" x="50%" y="12px">D</text></svg><svg width="100%" x="0%" y="36px"><defs /><svg width="100%" x="0" y="0px"><defs /><text fill="#FF69B4" text-anchor="middle" x="50%" y="12px">the</text></svg></svg><line stroke="black" x1="50%" x2="50%" y1="15px" y2="36px" /></svg><line stroke="black" x1="50%" x2="14.7059%" y1="15px" y2="36px" /><svg width="70.5882%" x="29.4118%" y="36px"><defs /><svg width="100%" x="0" y="0px"><defs /><text fill="#FF69B4" text-anchor="middle" x="50%" y="12px">N</text></svg><svg width="100%" x="0%" y="36px"><defs /><svg width="100%" x="0" y="0px"><defs /><text fill="#FF69B4" text-anchor="middle" x="50%" y="12px">rhinoceros</text></svg></svg><line stroke="black" x1="50%" x2="50%" y1="15px" y2="36px" /></svg><line stroke="black" x1="50%" x2="64.7059%" y1="15px" y2="36px" /></svg><line stroke="black" x1="50%" x2="19.7674%" y1="15px" y2="36px" /><svg width="60.4651%" x="39.5349%" y="36px"><defs /><svg width="100%" x="0" y="0px"><defs /><text fill="#FF69B4" text-anchor="middle" x="50%" y="12px">VP</text></svg><svg width="19.2308%" x="0%" y="36px"><defs /><svg width="100%" x="0" y="0px"><defs /><text fill="#FF69B4" text-anchor="middle" x="50%" y="12px">V</text></svg><svg width="100%" x="0%" y="36px"><defs /><svg width="100%" x="0" y="0px"><defs /><text fill="#FF69B4" text-anchor="middle" x="50%" y="12px">saw</text></svg></svg><line stroke="black" x1="50%" x2="50%" y1="15px" y2="36px" /></svg><line stroke="black" x1="50%" x2="9.61538%" y1="15px" y2="36px" /><svg width="80.7692%" x="19.2308%" y="36px"><defs /><svg width="100%" x="0" y="0px"><defs /><text fill="#FF69B4" text-anchor="middle" x="50%" y="12px">NP</text></svg><svg width="23.8095%" x="0%" y="36px"><defs /><svg width="100%" x="0" y="0px"><defs /><text fill="#FF69B4" text-anchor="middle" x="50%" y="12px">D</text></svg><svg width="100%" x="0%" y="36px"><defs /><svg width="100%" x="0" y="0px"><defs /><text fill="#FF69B4" text-anchor="middle" x="50%" y="12px">the</text></svg></svg><line stroke="black" x1="50%" x2="50%" y1="15px" y2="36px" /></svg><line stroke="black" x1="50%" x2="11.9048%" y1="15px" y2="36px" /><svg width="28.5714%" x="23.8095%" y="36px"><defs /><svg width="100%" x="0" y="0px"><defs /><text fill="#FF69B4" text-anchor="middle" x="50%" y="12px">A</text></svg><svg width="100%" x="0%" y="36px"><defs /><svg width="100%" x="0" y="0px"><defs /><text fill="#FF69B4" text-anchor="middle" x="50%" y="12px">gray</text></svg></svg><line stroke="black" x1="50%" x2="50%" y1="15px" y2="36px" /></svg><line stroke="black" x1="50%" x2="38.0952%" y1="15px" y2="36px" /><svg width="47.619%" x="52.381%" y="36px"><defs /><svg width="100%" x="0" y="0px"><defs /><text fill="#FF69B4" text-anchor="middle" x="50%" y="12px">N</text></svg><svg width="100%" x="0%" y="36px"><defs /><svg width="100%" x="0" y="0px"><defs /><text fill="#FF69B4" text-anchor="middle" x="50%" y="12px">elephant</text></svg></svg><line stroke="black" x1="50%" x2="50%" y1="15px" y2="36px" /></svg><line stroke="black" x1="50%" x2="76.1905%" y1="15px" y2="36px" /></svg><line stroke="black" x1="50%" x2="59.6154%" y1="15px" y2="36px" /></svg><line stroke="black" x1="50%" x2="69.7674%" y1="15px" y2="36px" /></svg></svg><svg height="100%" width="100%" x="0" y="168.5"><defs /><text style="font-family: times, serif; font-weight:normal; font-style: italic; font-size: 13px;" text-anchor="middle" x="50%" y="1em">Example t1 with style 2</text></svg></svg></svg></svg>