<svg baseProfile="full" height="152px" preserveAspectRatio="xMidYMid meet" style="font-family: times, serif; font-weight: normal; font-style: normal; font-size: 16px" version="1.1" viewBox="0,0,128.0,152.0" width="128px" xmlns="http://www.w3.org/2000/svg" xmlns:ev="http://www.w3.org/2001/xml-events" xmlns:xlink="http://www.w3.org/1999/xlink"><defs /><svg width="100%" x="0" y="0px"><defs /><text text-anchor="middle" x="50%" y="16px">DP</text></svg><svg width="31.25%" x="0%" y="48px"><defs /><svg width="100%" x="0" y="0px"><defs /><text text-anchor="middle" x="50%" y="16px">D</text><text text-anchor="middle" x="50%" y="32px">the</text></svg></svg><line stroke="black" x1="50%" x2="15.625%" y1="20px" y2="48px" /><svg width="37.5%" x="31.25%" y="48px"><defs /><svg width="100%" x="0" y="8px"><defs /><text text-anchor="middle" x="50%" y="16px">AP</text></svg><svg width="100%" x="0%" y="64px"><defs /><svg width="100%" x="0" y="0px"><defs /><text text-anchor="middle" x="50%" y="16px">A</text><text text-anchor="middle" x="50%" y="32px">gray</text></svg></svg><line stroke="black" x1="50%" x2="50%" y1="28px" y2="64px" /></svg><line stroke="black" x1="50%" x2="50%" y1="20px" y2="56px" /><svg width="31.25%" x="68.75%" y="48px"><defs /><svg width="100%" x="0" y="8px"><defs /><text text-anchor="middle" x="50%" y="16px">NP</text></svg><svg width="100%" x="0%" y="64px"><defs /><svg width="100%" x="0" y="0px"><defs /><text text-anchor="middle" x="50%" y="16px">N</text><text text-anchor="middle" x="50%" y="32px">cat</text></svg></svg><line stroke="black" x1="50%" x2="50%" y1="28px" y2="64px" /></svg><line stroke="black" x1="50%" x2="84.375%" y1="20px" y2="56px" /></svg>