<svg baseProfile="full" height="200.5px" preserveAspectRatio="xMidYMid meet" version="1.1" viewBox="0,0,576.0,200.5" width="576px" xmlns="http://www.w3.org/2000/svg" xmlns:ev="http://www.w3.org/2001/xml-events" xmlns:xlink="http://www.w3.org/1999/xlink"><defs /><svg height="200.5" width="264.0" x="16" y="0"><defs /><svg baseProfile="full" height="200.5px" preserveAspectRatio="xMidYMid meet" version="1.1" viewBox="0,0,264.0,200.5" width="264px" xmlns="http://www.w3.org/2000/svg" xmlns:ev="http://www.w3.org/2001/xml-events" xmlns:xlink="http://www.w3.org/1999/xlink"><defs /><svg height="168.0" width="264.0" x="0" y="0"><defs /><svg baseProfile="full" height="168px" preserveAspectRatio="xMidYMid meet" style="font-family: times, serif; font-weight: normal; font-style: normal; font-size: 16px" version="1.1" viewBox="0,0,264.0,168.0" width="264px" xmlns="http://www.w3.org/2000/svg" xmlns:ev="http://www.w3.org/2001/xml-events" xmlns:xlink="http://www.w3.org/1999/xlink"><defs /><svg width="100%" x="0" y="0px"><defs /><text text-anchor="middle" x="50%" y="16px">A</text></svg><svg width="9.09091%" x="0%" y="144px"><defs /><svg width="100%" x="0" y="0px"><defs /><text text-anchor="middle" x="50%" y="16px">B</text></svg></svg><line stroke="black" x1="50%" x2="4.54545%" y1="20px" y2="144px" /><svg width="48.4848%" x="9.09091%" y="48px"><defs /><svg width="100%" x="0" y="0px"><defs /><text text-anchor="middle" x="50%" y="16px">C</text></svg><svg width="81.25%" x="0%" y="48px"><defs /><svg width="100%" x="0" y="0px"><defs /><text text-anchor="middle" x="50%" y="16px">D</text></svg><svg width="100%" x="0%" y="48px"><defs /><svg width="100%" x="0" y="0px"><defs /><text text-anchor="middle" x="50%" y="16px">middle leaf</text></svg></svg><line stroke="black" x1="50%" x2="50%" y1="20px" y2="48px" /></svg><line stroke="black" x1="50%" x2="40.625%" y1="20px" y2="48px" /><svg width="18.75%" x="81.25%" y="96px"><defs /><svg width="100%" x="0" y="0px"><defs /><text text-anchor="middle" x="50%" y="16px">H</text></svg></svg><line stroke="black" x1="50%" x2="90.625%" y1="20px" y2="96px" /></svg><line stroke="black" x1="50%" x2="33.3333%" y1="20px" y2="48px" /><svg width="42.4242%" x="57.5758%" y="48px"><defs /><svg width="100%" x="0" y="0px"><defs /><text text-anchor="middle" x="50%" y="16px">E</text></svg><svg width="78.5714%" x="0%" y="96px"><defs /><svg width="100%" x="0" y="0px"><defs /><text text-anchor="middle" x="50%" y="16px">long leaf</text></svg></svg><line stroke="black" x1="50%" x2="39.2857%" y1="20px" y2="96px" /><svg width="21.4286%" x="78.5714%" y="96px"><defs /><svg width="100%" x="0" y="0px"><defs /><text text-anchor="middle" x="50%" y="16px">G</text></svg></svg><line stroke="black" x1="50%" x2="89.2857%" y1="20px" y2="96px" /></svg><line stroke="black" x1="50%" x2="78.7879%" y1="20px" y2="48px" /></svg></svg><svg height="100%" width="100%" x="0" y="174.5"><defs /><text style="font-family: times, serif; font-weight:normal; font-style: italic; font-size: 13px;" text-anchor="middle" x="50%" y="1em">Example t4 with descend_direct=True</text></svg></svg></svg><svg height="200.5" width="264.0" x="296.0" y="0"><defs /><svg baseProfile="full" height="200.5px" preserveAspectRatio="xMidYMid meet" version="1.1" viewBox="0,0,264.0,200.5" width="264px" xmlns="http://www.w3.org/2000/svg" xmlns:ev="http://www.w3.org/2001/xml-events" xmlns:xlink="http://www.w3.org/1999/xlink"><defs /><svg height="168.0" width="264.0" x="0" y="0"><defs /><svg baseProfile="full" height="168px" preserveAspectRatio="xMidYMid meet" style="font-family: times, serif; font-weight: normal; font-style: normal; font-size: 16px" version="1.1" viewBox="0,0,264.0,168.0" width="264px" xmlns="http://www.w3.org/2000/svg" xmlns:ev="http://www.w3.org/2001/xml-events" xmlns:xlink="http://www.w3.org/1999/xlink"><defs /><svg width="100%" x="0" y="0px"><defs /><text text-anchor="middle" x="50%" y="16px">A</text></svg><svg width="9.09091%" x="0%" y="144px"><defs /><svg width="100%" x="0" y="0px"><defs /><text text-anchor="middle" x="50%" y="16px">B</text></svg></svg><line stroke="black" x1="50%" x2="4.54545%" y1="20px" y2="56px" /><line stroke="black" x1="4.54545%" x2="4.54545%" y1="56px" y2="144px" /><svg width="48.4848%" x="9.09091%" y="48px"><defs /><svg width="100%" x="0" y="0px"><defs /><text text-anchor="middle" x="50%" y="16px">C</text></svg><svg width="81.25%" x="0%" y="48px"><defs /><svg width="100%" x="0" y="0px"><defs /><text text-anchor="middle" x="50%" y="16px">D</text></svg><svg width="100%" x="0%" y="48px"><defs /><svg width="100%" x="0" y="0px"><defs /><text text-anchor="middle" x="50%" y="16px">middle leaf</text></svg></svg><line stroke="black" x1="50%" x2="50%" y1="20px" y2="48px" /></svg><line stroke="black" x1="50%" x2="40.625%" y1="20px" y2="48px" /><svg width="18.75%" x="81.25%" y="96px"><defs /><svg width="100%" x="0" y="0px"><defs /><text text-anchor="middle" x="50%" y="16px">H</text></svg></svg><line stroke="black" x1="50%" x2="90.625%" y1="20px" y2="56px" /><line stroke="black" x1="90.625%" x2="90.625%" y1="56px" y2="96px" /></svg><line stroke="black" x1="50%" x2="33.3333%" y1="20px" y2="48px" /><svg width="42.4242%" x="57.5758%" y="48px"><defs /><svg width="100%" x="0" y="0px"><defs /><text text-anchor="middle" x="50%" y="16px">E</text></svg><svg width="78.5714%" x="0%" y="96px"><defs /><svg width="100%" x="0" y="0px"><defs /><text text-anchor="middle" x="50%" y="16px">long leaf</text></svg></svg><line stroke="black" x1="50%" x2="39.2857%" y1="20px" y2="56px" /><line stroke="black" x1="39.2857%" x2="39.2857%" y1="56px" y2="96px" /><svg width="21.4286%" x="78.5714%" y="96px"><defs /><svg width="100%" x="0" y="0px"><defs /><text text-anchor="middle" x="50%" y="16px">G</text></svg></svg><line stroke="black" x1="50%" x2="89.2857%" y1="20px" y2="56px" /><line stroke="black" x1="89.2857%" x2="89.2857%" y1="56px" y2="96px" /></svg><line stroke="black" x1="50%" x2="78.7879%" y1="20px" y2="48px" /></svg></svg><svg height="100%" width="100%" x="0" y="174.5"><defs /><text style="font-family: times, serif; font-weight:normal; font-style: italic; font-size: 13px;" text-anchor="middle" x="50%" y="1em">Example t4 with descend_direct=False</text></svg></svg></svg></svg>