<svg baseProfile="full" height="809.5px" preserveAspectRatio="xMidYMid meet" version="1.1" viewBox="0,0,704.0,809.5" width="704px" xmlns="http://www.w3.org/2000/svg" xmlns:ev="http://www.w3.org/2001/xml-events" xmlns:xlink="http://www.w3.org/1999/xlink"><defs /><svg height="248.5" width="704.0" x="0" y="16"><defs /><svg baseProfile="full" height="248.5px" preserveAspectRatio="xMidYMid meet" version="1.1" viewBox="0,0,704.0,248.5" width="704px" xmlns="http://www.w3.org/2000/svg" xmlns:ev="http://www.w3.org/2001/xml-events" xmlns:xlink="http://www.w3.org/1999/xlink"><defs /><svg height="200.5" width="312.0" x="16" y="0"><defs /><svg baseProfile="full" height="200.5px" preserveAspectRatio="xMidYMid meet" version="1.1" viewBox="0,0,305.5,200.5" width="305.5px" xmlns="http://www.w3.org/2000/svg" xmlns:ev="http://www.w3.org/2001/xml-events" xmlns:xlink="http://www.w3.org/1999/xlink"><defs /><svg height="168.0" width="144.0" x="80.75" y="0"><defs /><svg baseProfile="full" height="168px" preserveAspectRatio="xMidYMid meet" style="font-family: times, serif; font-weight: normal; font-style: normal; font-size: 16px" version="1.1" viewBox="0,0,144.0,168.0" width="144px" xmlns="http://www.w3.org/2000/svg" xmlns:ev="http://www.w3.org/2001/xml-events" xmlns:xlink="http://www.w3.org/1999/xlink"><defs /><rect fill="none" height="100%" stroke="lightgray" width="100%" x="0" y="0" /><line stroke="lightgray" x1="16px" x2="16px" y1="0" y2="100%" /><line stroke="lightgray" x1="32px" x2="32px" y1="0" y2="100%" /><line stroke="lightgray" x1="48px" x2="48px" y1="0" y2="100%" /><line stroke="lightgray" x1="64px" x2="64px" y1="0" y2="100%" /><line stroke="lightgray" x1="80px" x2="80px" y1="0" y2="100%" /><line stroke="lightgray" x1="96px" x2="96px" y1="0" y2="100%" /><line stroke="lightgray" x1="112px" x2="112px" y1="0" y2="100%" /><line stroke="lightgray" x1="128px" x2="128px" y1="0" y2="100%" /><line stroke="lightgray" x1="0" x2="100%" y1="16px" y2="16px" /><line stroke="lightgray" x1="0" x2="100%" y1="32px" y2="32px" /><line stroke="lightgray" x1="0" x2="100%" y1="48px" y2="48px" /><line stroke="lightgray" x1="0" x2="100%" y1="64px" y2="64px" /><line stroke="lightgray" x1="0" x2="100%" y1="80px" y2="80px" /><line stroke="lightgray" x1="0" x2="100%" y1="96px" y2="96px" /><line stroke="lightgray" x1="0" x2="100%" y1="112px" y2="112px" /><line stroke="lightgray" x1="0" x2="100%" y1="128px" y2="128px" /><line stroke="lightgray" x1="0" x2="100%" y1="144px" y2="144px" /><svg width="100%" x="0" y="0px"><defs /><text text-anchor="middle" x="50%" y="16px">S</text></svg><svg width="33.3333%" x="0%" y="48px"><defs /><rect fill="none" height="100%" stroke="red" width="100%" x="0%" y="0%" /><svg width="100%" x="0" y="0px"><defs /><text text-anchor="middle" x="50%" y="16px">NP</text></svg><svg width="50%" x="0%" y="48px"><defs /><rect fill="none" height="100%" stroke="red" width="100%" x="0%" y="0%" /><svg width="100%" x="0" y="0px"><defs /><text text-anchor="middle" x="50%" y="16px">D</text></svg></svg><line stroke="black" x1="50%" x2="25%" y1="20px" y2="48px" /><svg width="50%" x="50%" y="48px"><defs /><rect fill="none" height="100%" stroke="red" width="100%" x="0%" y="0%" /><svg width="100%" x="0" y="0px"><defs /><text text-anchor="middle" x="50%" y="16px">N</text></svg></svg><line stroke="black" x1="50%" x2="75%" y1="20px" y2="48px" /></svg><line stroke="black" x1="50%" x2="16.6667%" y1="20px" y2="48px" /><svg width="66.6667%" x="33.3333%" y="48px"><defs /><rect fill="none" height="100%" stroke="red" width="100%" x="0%" y="0%" /><svg width="100%" x="0" y="0px"><defs /><text text-anchor="middle" x="50%" y="16px">VP</text></svg><svg width="25%" x="0%" y="48px"><defs /><rect fill="none" height="100%" stroke="red" width="100%" x="0%" y="0%" /><svg width="100%" x="0" y="0px"><defs /><text text-anchor="middle" x="50%" y="16px">V</text></svg></svg><line stroke="black" x1="50%" x2="12.5%" y1="20px" y2="48px" /><svg width="75%" x="25%" y="48px"><defs /><rect fill="none" height="100%" stroke="red" width="100%" x="0%" y="0%" /><svg width="100%" x="0" y="0px"><defs /><text text-anchor="middle" x="50%" y="16px">NP</text></svg><svg width="33.3333%" x="0%" y="48px"><defs /><rect fill="none" height="100%" stroke="red" width="100%" x="0%" y="0%" /><svg width="100%" x="0" y="0px"><defs /><text text-anchor="middle" x="50%" y="16px">D</text></svg></svg><line stroke="black" x1="50%" x2="16.6667%" y1="20px" y2="48px" /><svg width="33.3333%" x="33.3333%" y="48px"><defs /><rect fill="none" height="100%" stroke="red" width="100%" x="0%" y="0%" /><svg width="100%" x="0" y="0px"><defs /><text text-anchor="middle" x="50%" y="16px">A</text></svg></svg><line stroke="black" x1="50%" x2="50%" y1="20px" y2="48px" /><svg width="33.3333%" x="66.6667%" y="48px"><defs /><rect fill="none" height="100%" stroke="red" width="100%" x="0%" y="0%" /><svg width="100%" x="0" y="0px"><defs /><text text-anchor="middle" x="50%" y="16px">N</text></svg></svg><line stroke="black" x1="50%" x2="83.3333%" y1="20px" y2="48px" /></svg><line stroke="black" x1="50%" x2="62.5%" y1="20px" y2="48px" /></svg><line stroke="black" x1="50%" x2="66.6667%" y1="20px" y2="48px" /></svg></svg><svg height="100%" width="100%" x="0" y="174.5"><defs /><text style="font-family: times, serif; font-weight:normal; font-style: italic; font-size: 13px;" text-anchor="middle" x="50%" y="1em">Example t0 with horiz_spacing=HorizSpacing.TEXT</text></svg></svg></svg><svg height="248.5" width="344.0" x="344.0" y="0"><defs /><svg baseProfile="full" height="248.5px" preserveAspectRatio="xMidYMid meet" version="1.1" viewBox="0,0,344.0,248.5" width="344px" xmlns="http://www.w3.org/2000/svg" xmlns:ev="http://www.w3.org/2001/xml-events" xmlns:xlink="http://www.w3.org/1999/xlink"><defs /><svg height="216.0" width="344.0" x="0" y="0"><defs /><svg baseProfile="full" height="216px" preserveAspectRatio="xMidYMid meet" style="font-family: times, serif; font-weight: normal; font-style: normal; font-size: 16px" version="1.1" viewBox="0,0,344.0,216.0" width="344px" xmlns="http://www.w3.org/2000/svg" xmlns:ev="http://www.w3.org/2001/xml-events" xmlns:xlink="http://www.w3.org/1999/xlink"><defs /><rect fill="none" height="100%" stroke="lightgray" width="100%" x="0" y="0" /><line stroke="lightgray" x1="16px" x2="16px" y1="0" y2="100%" /><line stroke="lightgray" x1="32px" x2="32px" y1="0" y2="100%" /><line stroke="lightgray" x1="48px" x2="48px" y1="0" y2="100%" /><line stroke="lightgray" x1="64px" x2="64px" y1="0" y2="100%" /><line stroke="lightgray" x1="80px" x2="80px" y1="0" y2="100%" /><line stroke="lightgray" x1="96px" x2="96px" y1="0" y2="100%" /><line stroke="lightgray" x1="112px" x2="112px" y1="0" y2="100%" /><line stroke="lightgray" x1="128px" x2="128px" y1="0" y2="100%" /><line stroke="lightgray" x1="144px" x2="144px" y1="0" y2="100%" /><line stroke="lightgray" x1="160px" x2="160px" y1="0" y2="100%" /><line stroke="lightgray" x1="176px" x2="176px" y1="0" y2="100%" /><line stroke="lightgray" x1="192px" x2="192px" y1="0" y2="100%" /><line stroke="lightgray" x1="208px" x2="208px" y1="0" y2="100%" /><line stroke="lightgray" x1="224px" x2="224px" y1="0" y2="100%" /><line stroke="lightgray" x1="240px" x2="240px" y1="0" y2="100%" /><line stroke="lightgray" x1="256px" x2="256px" y1="0" y2="100%" /><line stroke="lightgray" x1="272px" x2="272px" y1="0" y2="100%" /><line stroke="lightgray" x1="288px" x2="288px" y1="0" y2="100%" /><line stroke="lightgray" x1="304px" x2="304px" y1="0" y2="100%" /><line stroke="lightgray" x1="320px" x2="320px" y1="0" y2="100%" /><line stroke="lightgray" x1="0" x2="100%" y1="16px" y2="16px" /><line stroke="lightgray" x1="0" x2="100%" y1="32px" y2="32px" /><line stroke="lightgray" x1="0" x2="100%" y1="48px" y2="48px" /><line stroke="lightgray" x1="0" x2="100%" y1="64px" y2="64px" /><line stroke="lightgray" x1="0" x2="100%" y1="80px" y2="80px" /><line stroke="lightgray" x1="0" x2="100%" y1="96px" y2="96px" /><line stroke="lightgray" x1="0" x2="100%" y1="112px" y2="112px" /><line stroke="lightgray" x1="0" x2="100%" y1="128px" y2="128px" /><line stroke="lightgray" x1="0" x2="100%" y1="144px" y2="144px" /><line stroke="lightgray" x1="0" x2="100%" y1="160px" y2="160px" /><line stroke="lightgray" x1="0" x2="100%" y1="176px" y2="176px" /><line stroke="lightgray" x1="0" x2="100%" y1="192px" y2="192px" /><svg width="100%" x="0" y="0px"><defs /><text text-anchor="middle" x="50%" y="16px">S</text></svg><svg width="39.5349%" x="0%" y="48px"><defs /><rect fill="none" height="100%" stroke="red" width="100%" x="0%" y="0%" /><svg width="100%" x="0" y="0px"><defs /><text text-anchor="middle" x="50%" y="16px">NP</text></svg><svg width="29.4118%" x="0%" y="48px"><defs /><rect fill="none" height="100%" stroke="red" width="100%" x="0%" y="0%" /><svg width="100%" x="0" y="0px"><defs /><text text-anchor="middle" x="50%" y="16px">D</text></svg><svg width="100%" x="0%" y="48px"><defs /><rect fill="none" height="100%" stroke="red" width="100%" x="0%" y="0%" /><svg width="100%" x="0" y="0px"><defs /><text text-anchor="middle" x="50%" y="16px">the</text></svg></svg><line stroke="black" x1="50%" x2="50%" y1="20px" y2="48px" /></svg><line stroke="black" x1="50%" x2="14.7059%" y1="20px" y2="48px" /><svg width="70.5882%" x="29.4118%" y="48px"><defs /><rect fill="none" height="100%" stroke="red" width="100%" x="0%" y="0%" /><svg width="100%" x="0" y="0px"><defs /><text text-anchor="middle" x="50%" y="16px">N</text></svg><svg width="100%" x="0%" y="48px"><defs /><rect fill="none" height="100%" stroke="red" width="100%" x="0%" y="0%" /><svg width="100%" x="0" y="0px"><defs /><text text-anchor="middle" x="50%" y="16px">rhinoceros</text></svg></svg><line stroke="black" x1="50%" x2="50%" y1="20px" y2="48px" /></svg><line stroke="black" x1="50%" x2="64.7059%" y1="20px" y2="48px" /></svg><line stroke="black" x1="50%" x2="19.7674%" y1="20px" y2="48px" /><svg width="60.4651%" x="39.5349%" y="48px"><defs /><rect fill="none" height="100%" stroke="red" width="100%" x="0%" y="0%" /><svg width="100%" x="0" y="0px"><defs /><text text-anchor="middle" x="50%" y="16px">VP</text></svg><svg width="19.2308%" x="0%" y="48px"><defs /><rect fill="none" height="100%" stroke="red" width="100%" x="0%" y="0%" /><svg width="100%" x="0" y="0px"><defs /><text text-anchor="middle" x="50%" y="16px">V</text></svg><svg width="100%" x="0%" y="48px"><defs /><rect fill="none" height="100%" stroke="red" width="100%" x="0%" y="0%" /><svg width="100%" x="0" y="0px"><defs /><text text-anchor="middle" x="50%" y="16px">saw</text></svg></svg><line stroke="black" x1="50%" x2="50%" y1="20px" y2="48px" /></svg><line stroke="black" x1="50%" x2="9.61538%" y1="20px" y2="48px" /><svg width="80.7692%" x="19.2308%" y="48px"><defs /><rect fill="none" height="100%" stroke="red" width="100%" x="0%" y="0%" /><svg width="100%" x="0" y="0px"><defs /><text text-anchor="middle" x="50%" y="16px">NP</text></svg><svg width="23.8095%" x="0%" y="48px"><defs /><rect fill="none" height="100%" stroke="red" width="100%" x="0%" y="0%" /><svg width="100%" x="0" y="0px"><defs /><text text-anchor="middle" x="50%" y="16px">D</text></svg><svg width="100%" x="0%" y="48px"><defs /><rect fill="none" height="100%" stroke="red" width="100%" x="0%" y="0%" /><svg width="100%" x="0" y="0px"><defs /><text text-anchor="middle" x="50%" y="16px">the</text></svg></svg><line stroke="black" x1="50%" x2="50%" y1="20px" y2="48px" /></svg><line stroke="black" x1="50%" x2="11.9048%" y1="20px" y2="48px" /><svg width="28.5714%" x="23.8095%" y="48px"><defs /><rect fill="none" height="100%" stroke="red" width="100%" x="0%" y="0%" /><svg width="100%" x="0" y="0px"><defs /><text text-anchor="middle" x="50%" y="16px">A</text></svg><svg width="100%" x="0%" y="48px"><defs /><rect fill="none" height="100%" stroke="red" width="100%" x="0%" y="0%" /><svg width="100%" x="0" y="0px"><defs /><text text-anchor="middle" x="50%" y="16px">gray</text></svg></svg><line stroke="black" x1="50%" x2="50%" y1="20px" y2="48px" /></svg><line stroke="black" x1="50%" x2="38.0952%" y1="20px" y2="48px" /><svg width="47.619%" x="52.381%" y="48px"><defs /><rect fill="none" height="100%" stroke="red" width="100%" x="0%" y="0%" /><svg width="100%" x="0" y="0px"><defs /><text text-anchor="middle" x="50%" y="16px">N</text></svg><svg width="100%" x="0%" y="48px"><defs /><rect fill="none" height="100%" stroke="red" width="100%" x="0%" y="0%" /><svg width="100%" x="0" y="0px"><defs /><text text-anchor="middle" x="50%" y="16px">elephant</text></svg></svg><line stroke="black" x1="50%" x2="50%" y1="20px" y2="48px" /></svg><line stroke="black" x1="50%" x2="76.1905%" y1="20px" y2="48px" /></svg><line stroke="black" x1="50%" x2="59.6154%" y1="20px" y2="48px" /></svg><line stroke="black" x1="50%" x2="69.7674%" y1="20px" y2="48px" /></svg></svg><svg height="100%" width="100%" x="0" y="222.5"><defs /><text style="font-family: times, serif; font-weight:normal; font-style: italic; font-size: 13px;" text-anchor="middle" x="50%" y="1em">Example t1 with horiz_spacing=HorizSpacing.TEXT</text></svg></svg></svg></svg></svg><svg height="248.5" width="704.0" x="0" y="280.5"><defs /><svg baseProfile="full" height="248.5px" preserveAspectRatio="xMidYMid meet" version="1.1" viewBox="0,0,704.0,248.5" width="704px" xmlns="http://www.w3.org/2000/svg" xmlns:ev="http://www.w3.org/2001/xml-events" xmlns:xlink="http://www.w3.org/1999/xlink"><defs /><svg height="200.5" width="312.0" x="16" y="0"><defs /><svg baseProfile="full" height="200.5px" preserveAspectRatio="xMidYMid meet" version="1.1" viewBox="0,0,305.5,200.5" width="305.5px" xmlns="http://www.w3.org/2000/svg" xmlns:ev="http://www.w3.org/2001/xml-events" xmlns:xlink="http://www.w3.org/1999/xlink"><defs /><svg height="168.0" width="144.0" x="80.75" y="0"><defs /><svg baseProfile="full" height="168px" preserveAspectRatio="xMidYMid meet" style="font-family: times, serif; font-weight: normal; font-style: normal; font-size: 16px" version="1.1" viewBox="0,0,144.0,168.0" width="144px" xmlns="http://www.w3.org/2000/svg" xmlns:ev="http://www.w3.org/2001/xml-events" xmlns:xlink="http://www.w3.org/1999/xlink"><defs /><rect fill="none" height="100%" stroke="lightgray" width="100%" x="0" y="0" /><line stroke="lightgray" x1="16px" x2="16px" y1="0" y2="100%" /><line stroke="lightgray" x1="32px" x2="32px" y1="0" y2="100%" /><line stroke="lightgray" x1="48px" x2="48px" y1="0" y2="100%" /><line stroke="lightgray" x1="64px" x2="64px" y1="0" y2="100%" /><line stroke="lightgray" x1="80px" x2="80px" y1="0" y2="100%" /><line stroke="lightgray" x1="96px" x2="96px" y1="0" y2="100%" /><line stroke="lightgray" x1="112px" x2="112px" y1="0" y2="100%" /><line stroke="lightgray" x1="128px" x2="128px" y1="0" y2="100%" /><line stroke="lightgray" x1="0" x2="100%" y1="16px" y2="16px" /><line stroke="lightgray" x1="0" x2="100%" y1="32px" y2="32px" /><line stroke="lightgray" x1="0" x2="100%" y1="48px" y2="48px" /><line stroke="lightgray" x1="0" x2="100%" y1="64px" y2="64px" /><line stroke="lightgray" x1="0" x2="100%" y1="80px" y2="80px" /><line stroke="lightgray" x1="0" x2="100%" y1="96px" y2="96px" /><line stroke="lightgray" x1="0" x2="100%" y1="112px" y2="112px" /><line stroke="lightgray" x1="0" x2="100%" y1="128px" y2="128px" /><line stroke="lightgray" x1="0" x2="100%" y1="144px" y2="144px" /><svg width="100%" x="0" y="0px"><defs /><text text-anchor="middle" x="50%" y="16px">S</text></svg><svg width="50%" x="0%" y="48px"><defs /><rect fill="none" height="100%" stroke="red" width="100%" x="0%" y="0%" /><svg width="100%" x="0" y="0px"><defs /><text text-anchor="middle" x="50%" y="16px">NP</text></svg><svg width="50%" x="0%" y="48px"><defs /><rect fill="none" height="100%" stroke="red" width="100%" x="0%" y="0%" /><svg width="100%" x="0" y="0px"><defs /><text text-anchor="middle" x="50%" y="16px">D</text></svg></svg><line stroke="black" x1="50%" x2="25%" y1="20px" y2="48px" /><svg width="50%" x="50%" y="48px"><defs /><rect fill="none" height="100%" stroke="red" width="100%" x="0%" y="0%" /><svg width="100%" x="0" y="0px"><defs /><text text-anchor="middle" x="50%" y="16px">N</text></svg></svg><line stroke="black" x1="50%" x2="75%" y1="20px" y2="48px" /></svg><line stroke="black" x1="50%" x2="25%" y1="20px" y2="48px" /><svg width="50%" x="50%" y="48px"><defs /><rect fill="none" height="100%" stroke="red" width="100%" x="0%" y="0%" /><svg width="100%" x="0" y="0px"><defs /><text text-anchor="middle" x="50%" y="16px">VP</text></svg><svg width="50%" x="0%" y="48px"><defs /><rect fill="none" height="100%" stroke="red" width="100%" x="0%" y="0%" /><svg width="100%" x="0" y="0px"><defs /><text text-anchor="middle" x="50%" y="16px">V</text></svg></svg><line stroke="black" x1="50%" x2="25%" y1="20px" y2="48px" /><svg width="50%" x="50%" y="48px"><defs /><rect fill="none" height="100%" stroke="red" width="100%" x="0%" y="0%" /><svg width="100%" x="0" y="0px"><defs /><text text-anchor="middle" x="50%" y="16px">NP</text></svg><svg width="33.3333%" x="0%" y="48px"><defs /><rect fill="none" height="100%" stroke="red" width="100%" x="0%" y="0%" /><svg width="100%" x="0" y="0px"><defs /><text text-anchor="middle" x="50%" y="16px">D</text></svg></svg><line stroke="black" x1="50%" x2="16.6667%" y1="20px" y2="48px" /><svg width="33.3333%" x="33.3333%" y="48px"><defs /><rect fill="none" height="100%" stroke="red" width="100%" x="0%" y="0%" /><svg width="100%" x="0" y="0px"><defs /><text text-anchor="middle" x="50%" y="16px">A</text></svg></svg><line stroke="black" x1="50%" x2="50%" y1="20px" y2="48px" /><svg width="33.3333%" x="66.6667%" y="48px"><defs /><rect fill="none" height="100%" stroke="red" width="100%" x="0%" y="0%" /><svg width="100%" x="0" y="0px"><defs /><text text-anchor="middle" x="50%" y="16px">N</text></svg></svg><line stroke="black" x1="50%" x2="83.3333%" y1="20px" y2="48px" /></svg><line stroke="black" x1="50%" x2="75%" y1="20px" y2="48px" /></svg><line stroke="black" x1="50%" x2="75%" y1="20px" y2="48px" /></svg></svg><svg height="100%" width="100%" x="0" y="174.5"><defs /><text style="font-family: times, serif; font-weight:normal; font-style: italic; font-size: 13px;" text-anchor="middle" x="50%" y="1em">Example t0 with horiz_spacing=HorizSpacing.EVEN</text></svg></svg></svg><svg height="248.5" width="344.0" x="344.0" y="0"><defs /><svg baseProfile="full" height="248.5px" preserveAspectRatio="xMidYMid meet" version="1.1" viewBox="0,0,344.0,248.5" width="344px" xmlns="http://www.w3.org/2000/svg" xmlns:ev="http://www.w3.org/2001/xml-events" xmlns:xlink="http://www.w3.org/1999/xlink"><defs /><svg height="216.0" width="344.0" x="0" y="0"><defs /><svg baseProfile="full" height="216px" preserveAspectRatio="xMidYMid meet" style="font-family: times, serif; font-weight: normal; font-style: normal; font-size: 16px" version="1.1" viewBox="0,0,344.0,216.0" width="344px" xmlns="http://www.w3.org/2000/svg" xmlns:ev="http://www.w3.org/2001/xml-events" xmlns:xlink="http://www.w3.org/1999/xlink"><defs /><rect fill="none" height="100%" stroke="lightgray" width="100%" x="0" y="0" /><line stroke="lightgray" x1="16px" x2="16px" y1="0" y2="100%" /><line stroke="lightgray" x1="32px" x2="32px" y1="0" y2="100%" /><line stroke="lightgray" x1="48px" x2="48px" y1="0" y2="100%" /><line stroke="lightgray" x1="64px" x2="64px" y1="0" y2="100%" /><line stroke="lightgray" x1="80px" x2="80px" y1="0" y2="100%" /><line stroke="lightgray" x1="96px" x2="96px" y1="0" y2="100%" /><line stroke="lightgray" x1="112px" x2="112px" y1="0" y2="100%" /><line stroke="lightgray" x1="128px" x2="128px" y1="0" y2="100%" /><line stroke="lightgray" x1="144px" x2="144px" y1="0" y2="100%" /><line stroke="lightgray" x1="160px" x2="160px" y1="0" y2="100%" /><line stroke="lightgray" x1="176px" x2="176px" y1="0" y2="100%" /><line stroke="lightgray" x1="192px" x2="192px" y1="0" y2="100%" /><line stroke="lightgray" x1="208px" x2="208px" y1="0" y2="100%" /><line stroke="lightgray" x1="224px" x2="224px" y1="0" y2="100%" /><line stroke="lightgray" x1="240px" x2="240px" y1="0" y2="100%" /><line stroke="lightgray" x1="256px" x2="256px" y1="0" y2="100%" /><line stroke="lightgray" x1="272px" x2="272px" y1="0" y2="100%" /><line stroke="lightgray" x1="288px" x2="288px" y1="0" y2="100%" /><line stroke="lightgray" x1="304px" x2="304px" y1="0" y2="100%" /><line stroke="lightgray" x1="320px" x2="320px" y1="0" y2="100%" /><line stroke="lightgray" x1="0" x2="100%" y1="16px" y2="16px" /><line stroke="lightgray" x1="0" x2="100%" y1="32px" y2="32px" /><line stroke="lightgray" x1="0" x2="100%" y1="48px" y2="48px" /><line stroke="lightgray" x1="0" x2="100%" y1="64px" y2="64px" /><line stroke="lightgray" x1="0" x2="100%" y1="80px" y2="80px" /><line stroke="lightgray" x1="0" x2="100%" y1="96px" y2="96px" /><line stroke="lightgray" x1="0" x2="100%" y1="112px" y2="112px" /><line stroke="lightgray" x1="0" x2="100%" y1="128px" y2="128px" /><line stroke="lightgray" x1="0" x2="100%" y1="144px" y2="144px" /><line stroke="lightgray" x1="0" x2="100%" y1="160px" y2="160px" /><line stroke="lightgray" x1="0" x2="100%" y1="176px" y2="176px" /><line stroke="lightgray" x1="0" x2="100%" y1="192px" y2="192px" /><svg width="100%" x="0" y="0px"><defs /><text text-anchor="middle" x="50%" y="16px">S</text></svg><svg width="50%" x="0%" y="48px"><defs /><rect fill="none" height="100%" stroke="red" width="100%" x="0%" y="0%" /><svg width="100%" x="0" y="0px"><defs /><text text-anchor="middle" x="50%" y="16px">NP</text></svg><svg width="50%" x="0%" y="48px"><defs /><rect fill="none" height="100%" stroke="red" width="100%" x="0%" y="0%" /><svg width="100%" x="0" y="0px"><defs /><text text-anchor="middle" x="50%" y="16px">D</text></svg><svg width="100%" x="0%" y="48px"><defs /><rect fill="none" height="100%" stroke="red" width="100%" x="0%" y="0%" /><svg width="100%" x="0" y="0px"><defs /><text text-anchor="middle" x="50%" y="16px">the</text></svg></svg><line stroke="black" x1="50%" x2="50%" y1="20px" y2="48px" /></svg><line stroke="black" x1="50%" x2="25%" y1="20px" y2="48px" /><svg width="50%" x="50%" y="48px"><defs /><rect fill="none" height="100%" stroke="red" width="100%" x="0%" y="0%" /><svg width="100%" x="0" y="0px"><defs /><text text-anchor="middle" x="50%" y="16px">N</text></svg><svg width="100%" x="0%" y="48px"><defs /><rect fill="none" height="100%" stroke="red" width="100%" x="0%" y="0%" /><svg width="100%" x="0" y="0px"><defs /><text text-anchor="middle" x="50%" y="16px">rhinoceros</text></svg></svg><line stroke="black" x1="50%" x2="50%" y1="20px" y2="48px" /></svg><line stroke="black" x1="50%" x2="75%" y1="20px" y2="48px" /></svg><line stroke="black" x1="50%" x2="25%" y1="20px" y2="48px" /><svg width="50%" x="50%" y="48px"><defs /><rect fill="none" height="100%" stroke="red" width="100%" x="0%" y="0%" /><svg width="100%" x="0" y="0px"><defs /><text text-anchor="middle" x="50%" y="16px">VP</text></svg><svg width="50%" x="0%" y="48px"><defs /><rect fill="none" height="100%" stroke="red" width="100%" x="0%" y="0%" /><svg width="100%" x="0" y="0px"><defs /><text text-anchor="middle" x="50%" y="16px">V</text></svg><svg width="100%" x="0%" y="48px"><defs /><rect fill="none" height="100%" stroke="red" width="100%" x="0%" y="0%" /><svg width="100%" x="0" y="0px"><defs /><text text-anchor="middle" x="50%" y="16px">saw</text></svg></svg><line stroke="black" x1="50%" x2="50%" y1="20px" y2="48px" /></svg><line stroke="black" x1="50%" x2="25%" y1="20px" y2="48px" /><svg width="50%" x="50%" y="48px"><defs /><rect fill="none" height="100%" stroke="red" width="100%" x="0%" y="0%" /><svg width="100%" x="0" y="0px"><defs /><text text-anchor="middle" x="50%" y="16px">NP</text></svg><svg width="33.3333%" x="0%" y="48px"><defs /><rect fill="none" height="100%" stroke="red" width="100%" x="0%" y="0%" /><svg width="100%" x="0" y="0px"><defs /><text text-anchor="middle" x="50%" y="16px">D</text></svg><svg width="100%" x="0%" y="48px"><defs /><rect fill="none" height="100%" stroke="red" width="100%" x="0%" y="0%" /><svg width="100%" x="0" y="0px"><defs /><text text-anchor="middle" x="50%" y="16px">the</text></svg></svg><line stroke="black" x1="50%" x2="50%" y1="20px" y2="48px" /></svg><line stroke="black" x1="50%" x2="16.6667%" y1="20px" y2="48px" /><svg width="33.3333%" x="33.3333%" y="48px"><defs /><rect fill="none" height="100%" stroke="red" width="100%" x="0%" y="0%" /><svg width="100%" x="0" y="0px"><defs /><text text-anchor="middle" x="50%" y="16px">A</text></svg><svg width="100%" x="0%" y="48px"><defs /><rect fill="none" height="100%" stroke="red" width="100%" x="0%" y="0%" /><svg width="100%" x="0" y="0px"><defs /><text text-anchor="middle" x="50%" y="16px">gray</text></svg></svg><line stroke="black" x1="50%" x2="50%" y1="20px" y2="48px" /></svg><line stroke="black" x1="50%" x2="50%" y1="20px" y2="48px" /><svg width="33.3333%" x="66.6667%" y="48px"><defs /><rect fill="none" height="100%" stroke="red" width="100%" x="0%" y="0%" /><svg width="100%" x="0" y="0px"><defs /><text text-anchor="middle" x="50%" y="16px">N</text></svg><svg width="100%" x="0%" y="48px"><defs /><rect fill="none" height="100%" stroke="red" width="100%" x="0%" y="0%" /><svg width="100%" x="0" y="0px"><defs /><text text-anchor="middle" x="50%" y="16px">elephant</text></svg></svg><line stroke="black" x1="50%" x2="50%" y1="20px" y2="48px" /></svg><line stroke="black" x1="50%" x2="83.3333%" y1="20px" y2="48px" /></svg><line stroke="black" x1="50%" x2="75%" y1="20px" y2="48px" /></svg><line stroke="black" x1="50%" x2="75%" y1="20px" y2="48px" /></svg></svg><svg height="100%" width="100%" x="0" y="222.5"><defs /><text style="font-family: times, serif; font-weight:normal; font-style: italic; font-size: 13px;" text-anchor="middle" x="50%" y="1em">Example t1 with horiz_spacing=HorizSpacing.EVEN</text></svg></svg></svg></svg></svg><svg height="248.5" width="704.0" x="0" y="545.0"><defs /><svg baseProfile="full" height="248.5px" preserveAspectRatio="xMidYMid meet" version="1.1" viewBox="0,0,704.0,248.5" width="704px" xmlns="http://www.w3.org/2000/svg" xmlns:ev="http://www.w3.org/2001/xml-events" xmlns:xlink="http://www.w3.org/1999/xlink"><defs /><svg height="200.5" width="312.0" x="16" y="0"><defs /><svg baseProfile="full" height="200.5px" preserveAspectRatio="xMidYMid meet" version="1.1" viewBox="0,0,312.0,200.5" width="312px" xmlns="http://www.w3.org/2000/svg" xmlns:ev="http://www.w3.org/2001/xml-events" xmlns:xlink="http://www.w3.org/1999/xlink"><defs /><svg height="168.0" width="144.0" x="84.0" y="0"><defs /><svg baseProfile="full" height="168px" preserveAspectRatio="xMidYMid meet" style="font-family: times, serif; font-weight: normal; font-style: normal; font-size: 16px" version="1.1" viewBox="0,0,144.0,168.0" width="144px" xmlns="http://www.w3.org/2000/svg" xmlns:ev="http://www.w3.org/2001/xml-events" xmlns:xlink="http://www.w3.org/1999/xlink"><defs /><rect fill="none" height="100%" stroke="lightgray" width="100%" x="0" y="0" /><line stroke="lightgray" x1="16px" x2="16px" y1="0" y2="100%" /><line stroke="lightgray" x1="32px" x2="32px" y1="0" y2="100%" /><line stroke="lightgray" x1="48px" x2="48px" y1="0" y2="100%" /><line stroke="lightgray" x1="64px" x2="64px" y1="0" y2="100%" /><line stroke="lightgray" x1="80px" x2="80px" y1="0" y2="100%" /><line stroke="lightgray" x1="96px" x2="96px" y1="0" y2="100%" /><line stroke="lightgray" x1="112px" x2="112px" y1="0" y2="100%" /><line stroke="lightgray" x1="128px" x2="128px" y1="0" y2="100%" /><line stroke="lightgray" x1="0" x2="100%" y1="16px" y2="16px" /><line stroke="lightgray" x1="0" x2="100%" y1="32px" y2="32px" /><line stroke="lightgray" x1="0" x2="100%" y1="48px" y2="48px" /><line stroke="lightgray" x1="0" x2="100%" y1="64px" y2="64px" /><line stroke="lightgray" x1="0" x2="100%" y1="80px" y2="80px" /><line stroke="lightgray" x1="0" x2="100%" y1="96px" y2="96px" /><line stroke="lightgray" x1="0" x2="100%" y1="112px" y2="112px" /><line stroke="lightgray" x1="0" x2="100%" y1="128px" y2="128px" /><line stroke="lightgray" x1="0" x2="100%" y1="144px" y2="144px" /><svg width="100%" x="0" y="0px"><defs /><text text-anchor="middle" x="50%" y="16px">S</text></svg><svg width="33.3333%" x="0%" y="48px"><defs /><rect fill="none" height="100%" stroke="red" width="100%" x="0%" y="0%" /><svg width="100%" x="0" y="0px"><defs /><text text-anchor="middle" x="50%" y="16px">NP</text></svg><svg width="50%" x="0%" y="48px"><defs /><rect fill="none" height="100%" stroke="red" width="100%" x="0%" y="0%" /><svg width="100%" x="0" y="0px"><defs /><text text-anchor="middle" x="50%" y="16px">D</text></svg></svg><line stroke="black" x1="50%" x2="25%" y1="20px" y2="48px" /><svg width="50%" x="50%" y="48px"><defs /><rect fill="none" height="100%" stroke="red" width="100%" x="0%" y="0%" /><svg width="100%" x="0" y="0px"><defs /><text text-anchor="middle" x="50%" y="16px">N</text></svg></svg><line stroke="black" x1="50%" x2="75%" y1="20px" y2="48px" /></svg><line stroke="black" x1="50%" x2="16.6667%" y1="20px" y2="48px" /><svg width="66.6667%" x="33.3333%" y="48px"><defs /><rect fill="none" height="100%" stroke="red" width="100%" x="0%" y="0%" /><svg width="100%" x="0" y="0px"><defs /><text text-anchor="middle" x="50%" y="16px">VP</text></svg><svg width="25%" x="0%" y="48px"><defs /><rect fill="none" height="100%" stroke="red" width="100%" x="0%" y="0%" /><svg width="100%" x="0" y="0px"><defs /><text text-anchor="middle" x="50%" y="16px">V</text></svg></svg><line stroke="black" x1="50%" x2="12.5%" y1="20px" y2="48px" /><svg width="75%" x="25%" y="48px"><defs /><rect fill="none" height="100%" stroke="red" width="100%" x="0%" y="0%" /><svg width="100%" x="0" y="0px"><defs /><text text-anchor="middle" x="50%" y="16px">NP</text></svg><svg width="33.3333%" x="0%" y="48px"><defs /><rect fill="none" height="100%" stroke="red" width="100%" x="0%" y="0%" /><svg width="100%" x="0" y="0px"><defs /><text text-anchor="middle" x="50%" y="16px">D</text></svg></svg><line stroke="black" x1="50%" x2="16.6667%" y1="20px" y2="48px" /><svg width="33.3333%" x="33.3333%" y="48px"><defs /><rect fill="none" height="100%" stroke="red" width="100%" x="0%" y="0%" /><svg width="100%" x="0" y="0px"><defs /><text text-anchor="middle" x="50%" y="16px">A</text></svg></svg><line stroke="black" x1="50%" x2="50%" y1="20px" y2="48px" /><svg width="33.3333%" x="66.6667%" y="48px"><defs /><rect fill="none" height="100%" stroke="red" width="100%" x="0%" y="0%" /><svg width="100%" x="0" y="0px"><defs /><text text-anchor="middle" x="50%" y="16px">N</text></svg></svg><line stroke="black" x1="50%" x2="83.3333%" y1="20px" y2="48px" /></svg><line stroke="black" x1="50%" x2="62.5%" y1="20px" y2="48px" /></svg><line stroke="black" x1="50%" x2="66.6667%" y1="20px" y2="48px" /></svg></svg><svg height="100%" width="100%" x="0" y="174.5"><defs /><text style="font-family: times, serif; font-weight:normal; font-style: italic; font-size: 13px;" text-anchor="middle" x="50%" y="1em">Example t0 with horiz_spacing=HorizSpacing.NODES</text></svg></svg></svg><svg height="248.5" width="344.0" x="344.0" y="0"><defs /><svg baseProfile="full" height="248.5px" preserveAspectRatio="xMidYMid meet" version="1.1" viewBox="0,0,344.0,248.5" width="344px" xmlns="http://www.w3.org/2000/svg" xmlns:ev="http://www.w3.org/2001/xml-events" xmlns:xlink="http://www.w3.org/1999/xlink"><defs /><svg height="216.0" width="344.0" x="0" y="0"><defs /><svg baseProfile="full" height="216px" preserveAspectRatio="xMidYMid meet" style="font-family: times, serif; font-weight: normal; font-style: normal; font-size: 16px" version="1.1" viewBox="0,0,344.0,216.0" width="344px" xmlns="http://www.w3.org/2000/svg" xmlns:ev="http://www.w3.org/2001/xml-events" xmlns:xlink="http://www.w3.org/1999/xlink"><defs /><rect fill="none" height="100%" stroke="lightgray" width="100%" x="0" y="0" /><line stroke="lightgray" x1="16px" x2="16px" y1="0" y2="100%" /><line stroke="lightgray" x1="32px" x2="32px" y1="0" y2="100%" /><line stroke="lightgray" x1="48px" x2="48px" y1="0" y2="100%" /><line stroke="lightgray" x1="64px" x2="64px" y1="0" y2="100%" /><line stroke="lightgray" x1="80px" x2="80px" y1="0" y2="100%" /><line stroke="lightgray" x1="96px" x2="96px" y1="0" y2="100%" /><line stroke="lightgray" x1="112px" x2="112px" y1="0" y2="100%" /><line stroke="lightgray" x1="128px" x2="128px" y1="0" y2="100%" /><line stroke="lightgray" x1="144px" x2="144px" y1="0" y2="100%" /><line stroke="lightgray" x1="160px" x2="160px" y1="0" y2="100%" /><line stroke="lightgray" x1="176px" x2="176px" y1="0" y2="100%" /><line stroke="lightgray" x1="192px" x2="192px" y1="0" y2="100%" /><line stroke="lightgray" x1="208px" x2="208px" y1="0" y2="100%" /><line stroke="lightgray" x1="224px" x2="224px" y1="0" y2="100%" /><line stroke="lightgray" x1="240px" x2="240px" y1="0" y2="100%" /><line stroke="lightgray" x1="256px" x2="256px" y1="0" y2="100%" /><line stroke="lightgray" x1="272px" x2="272px" y1="0" y2="100%" /><line stroke="lightgray" x1="288px" x2="288px" y1="0" y2="100%" /><line stroke="lightgray" x1="304px" x2="304px" y1="0" y2="100%" /><line stroke="lightgray" x1="320px" x2="320px" y1="0" y2="100%" /><line stroke="lightgray" x1="0" x2="100%" y1="16px" y2="16px" /><line stroke="lightgray" x1="0" x2="100%" y1="32px" y2="32px" /><line stroke="lightgray" x1="0" x2="100%" y1="48px" y2="48px" /><line stroke="lightgray" x1="0" x2="100%" y1="64px" y2="64px" /><line stroke="lightgray" x1="0" x2="100%" y1="80px" y2="80px" /><line stroke="lightgray" x1="0" x2="100%" y1="96px" y2="96px" /><line stroke="lightgray" x1="0" x2="100%" y1="112px" y2="112px" /><line stroke="lightgray" x1="0" x2="100%" y1="128px" y2="128px" /><line stroke="lightgray" x1="0" x2="100%" y1="144px" y2="144px" /><line stroke="lightgray" x1="0" x2="100%" y1="160px" y2="160px" /><line stroke="lightgray" x1="0" x2="100%" y1="176px" y2="176px" /><line stroke="lightgray" x1="0" x2="100%" y1="192px" y2="192px" /><svg width="100%" x="0" y="0px"><defs /><text text-anchor="middle" x="50%" y="16px">S</text></svg><svg width="33.3333%" x="0%" y="48px"><defs /><rect fill="none" height="100%" stroke="red" width="100%" x="0%" y="0%" /><svg width="100%" x="0" y="0px"><defs /><text text-anchor="middle" x="50%" y="16px">NP</text></svg><svg width="50%" x="0%" y="48px"><defs /><rect fill="none" height="100%" stroke="red" width="100%" x="0%" y="0%" /><svg width="100%" x="0" y="0px"><defs /><text text-anchor="middle" x="50%" y="16px">D</text></svg><svg width="100%" x="0%" y="48px"><defs /><rect fill="none" height="100%" stroke="red" width="100%" x="0%" y="0%" /><svg width="100%" x="0" y="0px"><defs /><text text-anchor="middle" x="50%" y="16px">the</text></svg></svg><line stroke="black" x1="50%" x2="50%" y1="20px" y2="48px" /></svg><line stroke="black" x1="50%" x2="25%" y1="20px" y2="48px" /><svg width="50%" x="50%" y="48px"><defs /><rect fill="none" height="100%" stroke="red" width="100%" x="0%" y="0%" /><svg width="100%" x="0" y="0px"><defs /><text text-anchor="middle" x="50%" y="16px">N</text></svg><svg width="100%" x="0%" y="48px"><defs /><rect fill="none" height="100%" stroke="red" width="100%" x="0%" y="0%" /><svg width="100%" x="0" y="0px"><defs /><text text-anchor="middle" x="50%" y="16px">rhinoceros</text></svg></svg><line stroke="black" x1="50%" x2="50%" y1="20px" y2="48px" /></svg><line stroke="black" x1="50%" x2="75%" y1="20px" y2="48px" /></svg><line stroke="black" x1="50%" x2="16.6667%" y1="20px" y2="48px" /><svg width="66.6667%" x="33.3333%" y="48px"><defs /><rect fill="none" height="100%" stroke="red" width="100%" x="0%" y="0%" /><svg width="100%" x="0" y="0px"><defs /><text text-anchor="middle" x="50%" y="16px">VP</text></svg><svg width="25%" x="0%" y="48px"><defs /><rect fill="none" height="100%" stroke="red" width="100%" x="0%" y="0%" /><svg width="100%" x="0" y="0px"><defs /><text text-anchor="middle" x="50%" y="16px">V</text></svg><svg width="100%" x="0%" y="48px"><defs /><rect fill="none" height="100%" stroke="red" width="100%" x="0%" y="0%" /><svg width="100%" x="0" y="0px"><defs /><text text-anchor="middle" x="50%" y="16px">saw</text></svg></svg><line stroke="black" x1="50%" x2="50%" y1="20px" y2="48px" /></svg><line stroke="black" x1="50%" x2="12.5%" y1="20px" y2="48px" /><svg width="75%" x="25%" y="48px"><defs /><rect fill="none" height="100%" stroke="red" width="100%" x="0%" y="0%" /><svg width="100%" x="0" y="0px"><defs /><text text-anchor="middle" x="50%" y="16px">NP</text></svg><svg width="33.3333%" x="0%" y="48px"><defs /><rect fill="none" height="100%" stroke="red" width="100%" x="0%" y="0%" /><svg width="100%" x="0" y="0px"><defs /><text text-anchor="middle" x="50%" y="16px">D</text></svg><svg width="100%" x="0%" y="48px"><defs /><rect fill="none" height="100%" stroke="red" width="100%" x="0%" y="0%" /><svg width="100%" x="0" y="0px"><defs /><text text-anchor="middle" x="50%" y="16px">the</text></svg></svg><line stroke="black" x1="50%" x2="50%" y1="20px" y2="48px" /></svg><line stroke="black" x1="50%" x2="16.6667%" y1="20px" y2="48px" /><svg width="33.3333%" x="33.3333%" y="48px"><defs /><rect fill="none" height="100%" stroke="red" width="100%" x="0%" y="0%" /><svg width="100%" x="0" y="0px"><defs /><text text-anchor="middle" x="50%" y="16px">A</text></svg><svg width="100%" x="0%" y="48px"><defs /><rect fill="none" height="100%" stroke="red" width="100%" x="0%" y="0%" /><svg width="100%" x="0" y="0px"><defs /><text text-anchor="middle" x="50%" y="16px">gray</text></svg></svg><line stroke="black" x1="50%" x2="50%" y1="20px" y2="48px" /></svg><line stroke="black" x1="50%" x2="50%" y1="20px" y2="48px" /><svg width="33.3333%" x="66.6667%" y="48px"><defs /><rect fill="none" height="100%" stroke="red" width="100%" x="0%" y="0%" /><svg width="100%" x="0" y="0px"><defs /><text text-anchor="middle" x="50%" y="16px">N</text></svg><svg width="100%" x="0%" y="48px"><defs /><rect fill="none" height="100%" stroke="red" width="100%" x="0%" y="0%" /><svg width="100%" x="0" y="0px"><defs /><text text-anchor="middle" x="50%" y="16px">elephant</text></svg></svg><line stroke="black" x1="50%" x2="50%" y1="20px" y2="48px" /></svg><line stroke="black" x1="50%" x2="83.3333%" y1="20px" y2="48px" /></svg><line stroke="black" x1="50%" x2="62.5%" y1="20px" y2="48px" /></svg><line stroke="black" x1="50%" x2="66.6667%" y1="20px" y2="48px" /></svg></svg><svg height="100%" width="100%" x="0" y="222.5"><defs /><text style="font-family: times, serif; font-weight:normal; font-style: italic; font-size: 13px;" text-anchor="middle" x="50%" y="1em">Example t1 with horiz_spacing=HorizSpacing.NODES</text></svg></svg></svg></svg></svg></svg>