<svg baseProfile="full" height="384px" preserveAspectRatio="xMidYMid meet" style="font-family: times, serif; font-weight: normal; font-style: normal; font-size: 16px" version="1.1" viewBox="0,0,372.0,384.0" width="372px" xmlns="http://www.w3.org/2000/svg" xmlns:ev="http://www.w3.org/2001/xml-events" xmlns:xlink="http://www.w3.org/1999/xlink"><defs /><svg width="100%" x="0" y="0px"><defs /><text text-anchor="middle" x="50%" y="16px">TP</text></svg><svg width="25.8065%" x="0%" y="48px"><defs /><svg width="100%" x="0" y="0px"><defs /><text text-anchor="middle" x="50%" y="16px">DP</text></svg><svg width="58.3333%" x="0%" y="48px"><defs /><svg width="100%" x="0" y="0px"><defs /><text text-anchor="middle" x="50%" y="16px">D</text></svg><svg width="100%" x="0%" y="48px"><defs /><svg width="100%" x="0" y="0px"><defs /><text text-anchor="middle" x="50%" y="16px">every</text></svg></svg><line stroke="black" x1="50%" x2="50%" y1="20px" y2="48px" /></svg><line stroke="black" x1="50%" x2="29.1667%" y1="20px" y2="48px" /><svg width="41.6667%" x="58.3333%" y="48px"><defs /><svg width="100%" x="0" y="0px"><defs /><text text-anchor="middle" x="50%" y="16px">NP</text></svg><svg width="100%" x="0%" y="48px"><defs /><svg width="100%" x="0" y="0px"><defs /><text text-anchor="middle" x="50%" y="16px">N</text></svg><svg width="100%" x="0%" y="48px"><defs /><svg width="100%" x="0" y="0px"><defs /><text text-anchor="middle" x="50%" y="16px">cat</text></svg></svg><line stroke="black" x1="50%" x2="50%" y1="20px" y2="48px" /></svg><line stroke="black" x1="50%" x2="50%" y1="20px" y2="48px" /></svg><line stroke="black" x1="50%" x2="79.1667%" y1="20px" y2="48px" /></svg><line stroke="black" x1="50%" x2="12.9032%" y1="20px" y2="48px" /><svg width="74.1935%" x="25.8065%" y="48px"><defs /><svg width="100%" x="0" y="0px"><defs /><text text-anchor="middle" x="50%" y="16px">TP</text></svg><svg width="8.69565%" x="0%" y="48px"><defs /><svg width="100%" x="0" y="0px"><defs /><text text-anchor="middle" x="50%" y="16px">1</text></svg></svg><line stroke="black" x1="50%" x2="4.34783%" y1="20px" y2="48px" /><svg width="91.3043%" x="8.69565%" y="48px"><defs /><svg width="100%" x="0" y="0px"><defs /><text text-anchor="middle" x="50%" y="16px">TP</text></svg><svg width="34.9206%" x="0%" y="48px"><defs /><svg width="100%" x="0" y="0px"><defs /><text text-anchor="middle" x="50%" y="16px">DP</text></svg><svg width="54.5455%" x="0%" y="48px"><defs /><svg width="100%" x="0" y="0px"><defs /><text text-anchor="middle" x="50%" y="16px">D</text></svg><svg width="100%" x="0%" y="48px"><defs /><svg width="100%" x="0" y="0px"><defs /><text text-anchor="middle" x="50%" y="16px">some</text></svg></svg><line stroke="black" x1="50%" x2="50%" y1="20px" y2="48px" /></svg><line stroke="black" x1="50%" x2="27.2727%" y1="20px" y2="48px" /><svg width="45.4545%" x="54.5455%" y="48px"><defs /><svg width="100%" x="0" y="0px"><defs /><text text-anchor="middle" x="50%" y="16px">NP</text></svg><svg width="100%" x="0%" y="48px"><defs /><svg width="100%" x="0" y="0px"><defs /><text text-anchor="middle" x="50%" y="16px">N</text></svg><svg width="100%" x="0%" y="48px"><defs /><svg width="100%" x="0" y="0px"><defs /><text text-anchor="middle" x="50%" y="16px">dog</text></svg></svg><line stroke="black" x1="50%" x2="50%" y1="20px" y2="48px" /></svg><line stroke="black" x1="50%" x2="50%" y1="20px" y2="48px" /></svg><line stroke="black" x1="50%" x2="77.2727%" y1="20px" y2="48px" /></svg><line stroke="black" x1="50%" x2="17.4603%" y1="20px" y2="48px" /><svg width="65.0794%" x="34.9206%" y="48px"><defs /><svg width="100%" x="0" y="0px"><defs /><text text-anchor="middle" x="50%" y="16px">TP</text></svg><svg width="14.6341%" x="0%" y="48px"><defs /><svg width="100%" x="0" y="0px"><defs /><text text-anchor="middle" x="50%" y="16px">3</text></svg></svg><line stroke="black" x1="50%" x2="7.31707%" y1="20px" y2="48px" /><svg width="85.3659%" x="14.6341%" y="48px"><defs /><svg width="100%" x="0" y="0px"><defs /><text text-anchor="middle" x="50%" y="16px">TP</text></svg><svg width="30%" x="0%" y="48px"><defs /><svg width="100%" x="0" y="0px"><defs /><text text-anchor="middle" x="50%" y="16px">DP</text></svg><svg width="100%" x="0%" y="48px"><defs /><svg width="100%" x="0" y="0px"><defs /><text text-anchor="middle" x="50%" y="16px"><tspan>t</tspan><tspan dy="4px" style="font-size: 12px">1</tspan></text></svg></svg><line stroke="black" x1="50%" x2="50%" y1="20px" y2="48px" /></svg><line stroke="black" x1="50%" x2="15%" y1="20px" y2="48px" /><svg width="70%" x="30%" y="48px"><defs /><svg width="100%" x="0" y="0px"><defs /><text text-anchor="middle" x="50%" y="16px">VP</text></svg><svg width="57.1429%" x="0%" y="48px"><defs /><svg width="100%" x="0" y="0px"><defs /><text text-anchor="middle" x="50%" y="16px">V</text></svg><svg width="100%" x="0%" y="48px"><defs /><svg width="100%" x="0" y="0px"><defs /><text text-anchor="middle" x="50%" y="16px">likes</text></svg></svg><line stroke="black" x1="50%" x2="50%" y1="20px" y2="48px" /></svg><line stroke="black" x1="50%" x2="28.5714%" y1="20px" y2="48px" /><svg width="42.8571%" x="57.1429%" y="48px"><defs /><svg width="100%" x="0" y="0px"><defs /><text text-anchor="middle" x="50%" y="16px">DP</text></svg><svg width="100%" x="0%" y="48px"><defs /><svg width="100%" x="0" y="0px"><defs /><text text-anchor="middle" x="50%" y="16px"><tspan>t</tspan><tspan dy="4px" style="font-size: 12px">3</tspan></text></svg></svg><line stroke="black" x1="50%" x2="50%" y1="20px" y2="48px" /></svg><line stroke="black" x1="50%" x2="78.5714%" y1="20px" y2="48px" /></svg><line stroke="black" x1="50%" x2="65%" y1="20px" y2="48px" /></svg><line stroke="black" x1="50%" x2="57.3171%" y1="20px" y2="48px" /></svg><line stroke="black" x1="50%" x2="67.4603%" y1="20px" y2="48px" /></svg><line stroke="black" x1="50%" x2="54.3478%" y1="20px" y2="48px" /></svg><line stroke="black" x1="50%" x2="62.9032%" y1="20px" y2="48px" /><polyline fill="none" points="252.99999999999994,312.0 252.99999999999994,328.0 48.0,328.0 48.0,223.2" shape-rendering="crispEdges" stroke="black" stroke-width="1" /><polyline fill="black" points="51.0,223.2 48.0,216.0 45.0,223.2" stroke="none" /><line shape-rendering="crispEdges" stroke="black" stroke-opacity="1.0" stroke-width="1" x1="0%" x2="25.8065%" y1="216px" y2="216px" /><polyline fill="none" points="350.99999999999994,360.0 350.99999999999994,376.0 164.0,376.0 164.0,319.2" shape-rendering="crispEdges" stroke="black" stroke-width="1" /><polyline fill="black" points="167.0,319.2 164.0,312.0 161.0,319.2" stroke="none" /><line shape-rendering="crispEdges" stroke="black" stroke-opacity="1.0" stroke-width="1" x1="32.2581%" x2="55.914%" y1="312px" y2="312px" /><polyline fill="none" points="252.99999999999994,312.0 252.99999999999994,328.0 48.0,328.0 48.0,223.2" shape-rendering="crispEdges" stroke="black" stroke-width="1" /><polyline fill="black" points="51.0,223.2 48.0,216.0 45.0,223.2" stroke="none" /><line shape-rendering="crispEdges" stroke="black" stroke-opacity="1.0" stroke-width="1" x1="0%" x2="25.8065%" y1="216px" y2="216px" /><polyline fill="none" points="350.99999999999994,360.0 350.99999999999994,376.0 164.0,376.0 164.0,319.2" shape-rendering="crispEdges" stroke="black" stroke-width="1" /><polyline fill="black" points="167.0,319.2 164.0,312.0 161.0,319.2" stroke="none" /><line shape-rendering="crispEdges" stroke="black" stroke-opacity="1.0" stroke-width="1" x1="32.2581%" x2="55.914%" y1="312px" y2="312px" /></svg>