<svg baseProfile="full" height="230px" preserveAspectRatio="xMidYMid meet" style="font-family: times, serif; font-weight: normal; font-style: normal; font-size: 16px;" version="1.1" viewBox="0,0,293.0,230.0" width="293px" xmlns="http://www.w3.org/2000/svg" xmlns:ev="http://www.w3.org/2001/xml-events" xmlns:xlink="http://www.w3.org/1999/xlink"><defs /><svg width="100%" x="0" y="0px"><defs /><text text-anchor="middle" x="50%" y="16px">S</text></svg><svg style="font-family: times, serif; font-weight: normal; font-style: normal; font-size: 10px;" width="29.0102%" x="0%" y="48px"><defs /><rect fill="none" height="100%" stroke="red" width="100%" x="0%" y="0%" /><svg width="100%" x="0" y="3px"><defs /><text text-anchor="middle" x="50%" y="10px">NP</text></svg><svg width="29.4118%" x="0%" y="48px"><defs /><rect fill="none" height="100%" stroke="red" width="100%" x="0%" y="0%" /><svg width="100%" x="0" y="10px"><defs /><text text-anchor="middle" x="50%" y="10px">D</text></svg><svg style="font-family: impact, times, serif; font-weight: normal; font-style: italic; font-size: 10px;" width="100%" x="0%" y="62px"><defs /><rect fill="none" height="100%" stroke="red" width="100%" x="0%" y="0%" /><svg width="100%" x="0" y="3px"><defs /><text text-anchor="middle" x="50%" y="10px">the</text></svg></svg><line stroke="black" x1="50%" x2="50%" y1="23.2px" y2="65px" /></svg><line stroke="black" x1="50%" x2="14.7059%" y1="16.2px" y2="58px" /><svg width="70.5882%" x="29.4118%" y="48px"><defs /><rect fill="none" height="100%" stroke="red" width="100%" x="0%" y="0%" /><svg width="100%" x="0" y="10px"><defs /><text text-anchor="middle" x="50%" y="10px">N</text></svg><svg style="font-family: impact, times, serif; font-weight: normal; font-style: italic; font-size: 10px;" width="100%" x="0%" y="62px"><defs /><rect fill="none" height="100%" stroke="red" width="100%" x="0%" y="0%" /><svg width="100%" x="0" y="3px"><defs /><text text-anchor="middle" x="50%" y="10px">rhinoceros</text></svg></svg><line stroke="black" x1="50%" x2="50%" y1="23.2px" y2="65px" /></svg><line stroke="black" x1="50%" x2="64.7059%" y1="16.2px" y2="58px" /></svg><line stroke="black" x1="50%" x2="14.5051%" y1="19.2px" y2="51px" /><svg width="70.9898%" x="29.0102%" y="48px"><defs /><svg width="100%" x="0" y="0px"><defs /><text text-anchor="middle" x="50%" y="16px">VP</text></svg><svg width="19.2308%" x="0%" y="48px"><defs /><svg width="100%" x="0" y="7px"><defs /><text text-anchor="middle" x="50%" y="16px">V</text></svg><svg style="font-family: impact, times, serif; font-weight: normal; font-style: italic; font-size: 16px;" width="100%" x="0%" y="62px"><defs /><svg width="100%" x="0" y="0px"><defs /><text text-anchor="middle" x="50%" y="16px">saw</text></svg></svg><line stroke="black" x1="50%" x2="50%" y1="26.2px" y2="62px" /></svg><line stroke="black" x1="50%" x2="9.61538%" y1="19.2px" y2="55px" /><svg style="font-family: times, serif; font-weight: normal; font-style: normal; font-size: 30px;" width="80.7692%" x="19.2308%" y="48px"><defs /><svg width="100%" x="0" y="0px"><defs /><text fill="red" text-anchor="middle" x="50%" y="30px">NP</text></svg><svg style="font-family: times, serif; font-weight: normal; font-style: normal; font-size: 16px;" width="23.8095%" x="0%" y="62px"><defs /><svg width="100%" x="0" y="0px"><defs /><text text-anchor="middle" x="50%" y="16px">D</text></svg><svg style="font-family: impact, times, serif; font-weight: normal; font-style: italic; font-size: 16px;" width="100%" x="0%" y="48px"><defs /><svg width="100%" x="0" y="0px"><defs /><text text-anchor="middle" x="50%" y="16px">the</text></svg></svg><line stroke="black" x1="50%" x2="50%" y1="19.2px" y2="48px" /></svg><line stroke="black" x1="50%" x2="11.9048%" y1="33.2px" y2="62px" /><svg style="font-family: times, serif; font-weight: normal; font-style: normal; font-size: 16px;" width="28.5714%" x="23.8095%" y="62px"><defs /><svg width="100%" x="0" y="0px"><defs /><text text-anchor="middle" x="50%" y="16px">A</text></svg><svg style="font-family: impact, times, serif; font-weight: normal; font-style: italic; font-size: 16px;" width="100%" x="0%" y="48px"><defs /><svg width="100%" x="0" y="0px"><defs /><text text-anchor="middle" x="50%" y="16px">gray</text></svg></svg><line stroke="black" x1="50%" x2="50%" y1="19.2px" y2="48px" /></svg><line stroke="black" x1="50%" x2="38.0952%" y1="33.2px" y2="62px" /><svg style="font-family: times, serif; font-weight: normal; font-style: normal; font-size: 16px;" width="47.619%" x="52.381%" y="62px"><defs /><svg width="100%" x="0" y="0px"><defs /><text text-anchor="middle" x="50%" y="16px">N</text></svg><svg style="font-family: impact, times, serif; font-weight: normal; font-style: italic; font-size: 16px;" width="100%" x="0%" y="48px"><defs /><svg width="100%" x="0" y="0px"><defs /><text text-anchor="middle" x="50%" y="16px">elephant</text></svg></svg><line stroke="black" x1="50%" x2="50%" y1="19.2px" y2="48px" /></svg><line stroke="black" x1="50%" x2="76.1905%" y1="33.2px" y2="62px" /></svg><line stroke="black" x1="50%" x2="59.6154%" y1="19.2px" y2="48px" /></svg><line stroke="black" x1="50%" x2="64.5051%" y1="19.2px" y2="48px" /></svg>