<svg baseProfile="full" height="120px" preserveAspectRatio="xMidYMid meet" style="font-family: times, serif; font-weight: normal; font-style: normal; font-size: 16px" version="1.1" viewBox="0,0,352.0,120.0" width="352px" xmlns="http://www.w3.org/2000/svg" xmlns:ev="http://www.w3.org/2001/xml-events" xmlns:xlink="http://www.w3.org/1999/xlink"><defs /><svg width="100%" x="0" y="0px"><defs /><text text-anchor="middle" x="50%" y="16px">S</text></svg><svg width="68.1818%" x="0%" y="48px"><defs /><svg width="100%" x="0" y="0px"><defs /><text text-anchor="middle" x="50%" y="16px">NP</text></svg><svg width="100%" x="0%" y="48px"><defs /><svg width="100%" x="0" y="0px"><defs /><text text-anchor="middle" x="50%" y="16px">The subject of this sentence</text></svg></svg><line stroke="black" x1="50%" x2="10%" y1="20px" y2="48px" /><line stroke="black" x1="50%" x2="90%" y1="20px" y2="48px" /><line stroke="black" x1="10%" x2="90%" y1="48px" y2="48px" /></svg><line stroke="red" stroke-width="4" x1="50%" x2="34.0909%" y1="20px" y2="48px" /><svg width="31.8182%" x="68.1818%" y="48px"><defs /><svg width="100%" x="0" y="0px"><defs /><text text-anchor="middle" x="50%" y="16px">VP</text></svg><svg width="100%" x="0%" y="48px"><defs /><svg width="100%" x="0" y="0px"><defs /><text text-anchor="middle" x="50%" y="16px">is collapsed</text></svg></svg><line stroke="black" x1="50%" x2="10%" y1="20px" y2="48px" /><line stroke="black" x1="50%" x2="90%" y1="20px" y2="48px" /><line stroke="black" x1="10%" x2="90%" y1="48px" y2="48px" /></svg><line stroke="black" stroke-width="4" x1="50%" x2="84.0909%" y1="20px" y2="48px" /></svg>