<svg baseProfile="full" height="172px" preserveAspectRatio="xMidYMid meet" version="1.1" viewBox="0,0,118.0,172.0" width="118px" xmlns="http://www.w3.org/2000/svg" xmlns:ev="http://www.w3.org/2001/xml-events" xmlns:xlink="http://www.w3.org/1999/xlink"><defs /><svg height="168.0" width="104.0" x="7" y="2"><defs /><svg baseProfile="full" height="168px" preserveAspectRatio="xMidYMid meet" style="font-family: times, serif; font-weight: normal; font-style: normal; font-size: 16px" version="1.1" viewBox="0,0,104.0,168.0" width="104px" xmlns="http://www.w3.org/2000/svg" xmlns:ev="http://www.w3.org/2001/xml-events" xmlns:xlink="http://www.w3.org/1999/xlink"><defs /><svg width="100%" x="0" y="0px"><defs /><text text-anchor="middle" x="50%" y="16px">S</text></svg><svg width="38.4615%" x="0%" y="48px"><defs /><svg width="100%" x="0" y="0px"><defs /><text text-anchor="middle" x="50%" y="16px">NP</text></svg><svg width="100%" x="0%" y="48px"><defs /><svg width="100%" x="0" y="0px"><defs /><text text-anchor="middle" x="50%" y="16px">N</text></svg><svg width="100%" x="0%" y="48px"><defs /><svg width="100%" x="0" y="0px"><defs /><text text-anchor="middle" x="50%" y="16px">Ann</text></svg></svg><line stroke="black" x1="50%" x2="50%" y1="20px" y2="48px" /></svg><line stroke="black" x1="50%" x2="50%" y1="20px" y2="48px" /></svg><line stroke="black" x1="50%" x2="19.2308%" y1="20px" y2="48px" /><svg width="61.5385%" x="38.4615%" y="48px"><defs /><svg width="100%" x="0" y="0px"><defs /><text text-anchor="middle" x="50%" y="16px">VP</text></svg><svg width="100%" x="0%" y="48px"><defs /><svg width="100%" x="0" y="0px"><defs /><text text-anchor="middle" x="50%" y="16px">V</text></svg><svg width="100%" x="0%" y="48px"><defs /><svg width="100%" x="0" y="0px"><defs /><text text-anchor="middle" x="50%" y="16px">smokes</text></svg></svg><line stroke="black" x1="50%" x2="50%" y1="20px" y2="48px" /></svg><line stroke="black" x1="50%" x2="50%" y1="20px" y2="48px" /></svg><line stroke="black" x1="50%" x2="69.2308%" y1="20px" y2="48px" /></svg></svg><polyline fill="none" points="7,1 1,1 1,171.0 7,171.0" shape-rendering="crispEdges" stroke="black" stroke-width="1" /><line fill="none" shape-rendering="crispEdges" stroke="black" stroke-width="1" x1="4.0" x2="4.0" y1="1" y2="171.0" /><polyline fill="none" points="111.0,1 117.0,1 117.0,171.0 111.0,171.0" shape-rendering="crispEdges" stroke="black" stroke-width="1" /><line fill="none" shape-rendering="crispEdges" stroke="black" stroke-width="1" x1="114.0" x2="114.0" y1="1" y2="171.0" /></svg>