<svg baseProfile="full" height="990.8px" preserveAspectRatio="xMidYMid meet" version="1.1" viewBox="0,0,344.0,990.8" width="344px" xmlns="http://www.w3.org/2000/svg" xmlns:ev="http://www.w3.org/2001/xml-events" xmlns:xlink="http://www.w3.org/1999/xlink"><defs /><svg height="152.5" width="344.0" x="0" y="16"><defs /><svg baseProfile="full" height="152.5px" preserveAspectRatio="xMidYMid meet" version="1.1" viewBox="0,0,344.0,152.5" width="344px" xmlns="http://www.w3.org/2000/svg" xmlns:ev="http://www.w3.org/2001/xml-events" xmlns:xlink="http://www.w3.org/1999/xlink"><defs /><svg height="120.0" width="344.0" x="0" y="0"><defs /><svg baseProfile="full" height="120px" preserveAspectRatio="xMidYMid meet" style="font-family: times, serif; font-weight: normal; font-style: normal; font-size: 16px;" version="1.1" viewBox="0,0,344.0,120.0" width="344px" xmlns="http://www.w3.org/2000/svg" xmlns:ev="http://www.w3.org/2001/xml-events" xmlns:xlink="http://www.w3.org/1999/xlink"><defs /><svg width="100%" x="0" y="0px"><defs /><text text-anchor="middle" x="50%" y="16px">S</text></svg><svg width="39.5349%" x="0%" y="24px"><defs /><svg width="100%" x="0" y="0px"><defs /><text text-anchor="middle" x="50%" y="16px">NP</text></svg><svg width="29.4118%" x="0%" y="24px"><defs /><svg width="100%" x="0" y="0px"><defs /><text text-anchor="middle" x="50%" y="16px">D</text></svg><svg width="100%" x="0%" y="24px"><defs /><svg width="100%" x="0" y="0px"><defs /><text text-anchor="middle" x="50%" y="16px">the</text></svg></svg><line stroke="black" x1="50%" x2="50%" y1="19.2px" y2="24px" /></svg><line stroke="black" x1="50%" x2="14.7059%" y1="19.2px" y2="24px" /><svg width="70.5882%" x="29.4118%" y="24px"><defs /><svg width="100%" x="0" y="0px"><defs /><text text-anchor="middle" x="50%" y="16px">N</text></svg><svg width="100%" x="0%" y="24px"><defs /><svg width="100%" x="0" y="0px"><defs /><text text-anchor="middle" x="50%" y="16px">rhinoceros</text></svg></svg><line stroke="black" x1="50%" x2="50%" y1="19.2px" y2="24px" /></svg><line stroke="black" x1="50%" x2="64.7059%" y1="19.2px" y2="24px" /></svg><line stroke="black" x1="50%" x2="19.7674%" y1="19.2px" y2="24px" /><svg width="60.4651%" x="39.5349%" y="24px"><defs /><svg width="100%" x="0" y="0px"><defs /><text text-anchor="middle" x="50%" y="16px">VP</text></svg><svg width="19.2308%" x="0%" y="24px"><defs /><svg width="100%" x="0" y="0px"><defs /><text text-anchor="middle" x="50%" y="16px">V</text></svg><svg width="100%" x="0%" y="24px"><defs /><svg width="100%" x="0" y="0px"><defs /><text text-anchor="middle" x="50%" y="16px">saw</text></svg></svg><line stroke="black" x1="50%" x2="50%" y1="19.2px" y2="24px" /></svg><line stroke="black" x1="50%" x2="9.61538%" y1="19.2px" y2="24px" /><svg width="80.7692%" x="19.2308%" y="24px"><defs /><svg width="100%" x="0" y="0px"><defs /><text text-anchor="middle" x="50%" y="16px">NP</text></svg><svg width="23.8095%" x="0%" y="24px"><defs /><svg width="100%" x="0" y="0px"><defs /><text text-anchor="middle" x="50%" y="16px">D</text></svg><svg width="100%" x="0%" y="24px"><defs /><svg width="100%" x="0" y="0px"><defs /><text text-anchor="middle" x="50%" y="16px">the</text></svg></svg><line stroke="black" x1="50%" x2="50%" y1="19.2px" y2="24px" /></svg><line stroke="black" x1="50%" x2="11.9048%" y1="19.2px" y2="24px" /><svg width="28.5714%" x="23.8095%" y="24px"><defs /><svg width="100%" x="0" y="0px"><defs /><text text-anchor="middle" x="50%" y="16px">A</text></svg><svg width="100%" x="0%" y="24px"><defs /><svg width="100%" x="0" y="0px"><defs /><text text-anchor="middle" x="50%" y="16px">gray</text></svg></svg><line stroke="black" x1="50%" x2="50%" y1="19.2px" y2="24px" /></svg><line stroke="black" x1="50%" x2="38.0952%" y1="19.2px" y2="24px" /><svg width="47.619%" x="52.381%" y="24px"><defs /><svg width="100%" x="0" y="0px"><defs /><text text-anchor="middle" x="50%" y="16px">N</text></svg><svg width="100%" x="0%" y="24px"><defs /><svg width="100%" x="0" y="0px"><defs /><text text-anchor="middle" x="50%" y="16px">elephant</text></svg></svg><line stroke="black" x1="50%" x2="50%" y1="19.2px" y2="24px" /></svg><line stroke="black" x1="50%" x2="76.1905%" y1="19.2px" y2="24px" /></svg><line stroke="black" x1="50%" x2="59.6154%" y1="19.2px" y2="24px" /></svg><line stroke="black" x1="50%" x2="69.7674%" y1="19.2px" y2="24px" /></svg></svg><svg height="100%" width="100%" x="0" y="126.5"><defs /><text style="font-family: times, serif; font-weight:normal; font-style: italic; font-size: 13px;" text-anchor="middle" x="50%" y="1em">Example t1 with distance_to_daughter=0.5</text></svg></svg></svg><svg height="248.5" width="344.0" x="0" y="184.5"><defs /><svg baseProfile="full" height="248.5px" preserveAspectRatio="xMidYMid meet" version="1.1" viewBox="0,0,344.0,248.5" width="344px" xmlns="http://www.w3.org/2000/svg" xmlns:ev="http://www.w3.org/2001/xml-events" xmlns:xlink="http://www.w3.org/1999/xlink"><defs /><svg height="216.0" width="344.0" x="0" y="0"><defs /><svg baseProfile="full" height="216px" preserveAspectRatio="xMidYMid meet" style="font-family: times, serif; font-weight: normal; font-style: normal; font-size: 16px;" version="1.1" viewBox="0,0,344.0,216.0" width="344px" xmlns="http://www.w3.org/2000/svg" xmlns:ev="http://www.w3.org/2001/xml-events" xmlns:xlink="http://www.w3.org/1999/xlink"><defs /><svg width="100%" x="0" y="0px"><defs /><text text-anchor="middle" x="50%" y="16px">S</text></svg><svg width="39.5349%" x="0%" y="48px"><defs /><svg width="100%" x="0" y="0px"><defs /><text text-anchor="middle" x="50%" y="16px">NP</text></svg><svg width="29.4118%" x="0%" y="48px"><defs /><svg width="100%" x="0" y="0px"><defs /><text text-anchor="middle" x="50%" y="16px">D</text></svg><svg width="100%" x="0%" y="48px"><defs /><svg width="100%" x="0" y="0px"><defs /><text text-anchor="middle" x="50%" y="16px">the</text></svg></svg><line stroke="black" x1="50%" x2="50%" y1="19.2px" y2="48px" /></svg><line stroke="black" x1="50%" x2="14.7059%" y1="19.2px" y2="48px" /><svg width="70.5882%" x="29.4118%" y="48px"><defs /><svg width="100%" x="0" y="0px"><defs /><text text-anchor="middle" x="50%" y="16px">N</text></svg><svg width="100%" x="0%" y="48px"><defs /><svg width="100%" x="0" y="0px"><defs /><text text-anchor="middle" x="50%" y="16px">rhinoceros</text></svg></svg><line stroke="black" x1="50%" x2="50%" y1="19.2px" y2="48px" /></svg><line stroke="black" x1="50%" x2="64.7059%" y1="19.2px" y2="48px" /></svg><line stroke="black" x1="50%" x2="19.7674%" y1="19.2px" y2="48px" /><svg width="60.4651%" x="39.5349%" y="48px"><defs /><svg width="100%" x="0" y="0px"><defs /><text text-anchor="middle" x="50%" y="16px">VP</text></svg><svg width="19.2308%" x="0%" y="48px"><defs /><svg width="100%" x="0" y="0px"><defs /><text text-anchor="middle" x="50%" y="16px">V</text></svg><svg width="100%" x="0%" y="48px"><defs /><svg width="100%" x="0" y="0px"><defs /><text text-anchor="middle" x="50%" y="16px">saw</text></svg></svg><line stroke="black" x1="50%" x2="50%" y1="19.2px" y2="48px" /></svg><line stroke="black" x1="50%" x2="9.61538%" y1="19.2px" y2="48px" /><svg width="80.7692%" x="19.2308%" y="48px"><defs /><svg width="100%" x="0" y="0px"><defs /><text text-anchor="middle" x="50%" y="16px">NP</text></svg><svg width="23.8095%" x="0%" y="48px"><defs /><svg width="100%" x="0" y="0px"><defs /><text text-anchor="middle" x="50%" y="16px">D</text></svg><svg width="100%" x="0%" y="48px"><defs /><svg width="100%" x="0" y="0px"><defs /><text text-anchor="middle" x="50%" y="16px">the</text></svg></svg><line stroke="black" x1="50%" x2="50%" y1="19.2px" y2="48px" /></svg><line stroke="black" x1="50%" x2="11.9048%" y1="19.2px" y2="48px" /><svg width="28.5714%" x="23.8095%" y="48px"><defs /><svg width="100%" x="0" y="0px"><defs /><text text-anchor="middle" x="50%" y="16px">A</text></svg><svg width="100%" x="0%" y="48px"><defs /><svg width="100%" x="0" y="0px"><defs /><text text-anchor="middle" x="50%" y="16px">gray</text></svg></svg><line stroke="black" x1="50%" x2="50%" y1="19.2px" y2="48px" /></svg><line stroke="black" x1="50%" x2="38.0952%" y1="19.2px" y2="48px" /><svg width="47.619%" x="52.381%" y="48px"><defs /><svg width="100%" x="0" y="0px"><defs /><text text-anchor="middle" x="50%" y="16px">N</text></svg><svg width="100%" x="0%" y="48px"><defs /><svg width="100%" x="0" y="0px"><defs /><text text-anchor="middle" x="50%" y="16px">elephant</text></svg></svg><line stroke="black" x1="50%" x2="50%" y1="19.2px" y2="48px" /></svg><line stroke="black" x1="50%" x2="76.1905%" y1="19.2px" y2="48px" /></svg><line stroke="black" x1="50%" x2="59.6154%" y1="19.2px" y2="48px" /></svg><line stroke="black" x1="50%" x2="69.7674%" y1="19.2px" y2="48px" /></svg></svg><svg height="100%" width="100%" x="0" y="222.5"><defs /><text style="font-family: times, serif; font-weight:normal; font-style: italic; font-size: 13px;" text-anchor="middle" x="50%" y="1em">Example t1 with distance_to_daughter=2</text></svg></svg></svg><svg height="376.5" width="344.0" x="0" y="449.0"><defs /><svg baseProfile="full" height="376.5px" preserveAspectRatio="xMidYMid meet" version="1.1" viewBox="0,0,344.0,376.5" width="344px" xmlns="http://www.w3.org/2000/svg" xmlns:ev="http://www.w3.org/2001/xml-events" xmlns:xlink="http://www.w3.org/1999/xlink"><defs /><svg height="344.0" width="344.0" x="0" y="0"><defs /><svg baseProfile="full" height="344px" preserveAspectRatio="xMidYMid meet" style="font-family: times, serif; font-weight: normal; font-style: normal; font-size: 16px;" version="1.1" viewBox="0,0,344.0,344.0" width="344px" xmlns="http://www.w3.org/2000/svg" xmlns:ev="http://www.w3.org/2001/xml-events" xmlns:xlink="http://www.w3.org/1999/xlink"><defs /><svg width="100%" x="0" y="0px"><defs /><text text-anchor="middle" x="50%" y="16px">S</text></svg><svg width="39.5349%" x="0%" y="80px"><defs /><svg width="100%" x="0" y="0px"><defs /><text text-anchor="middle" x="50%" y="16px">NP</text></svg><svg width="29.4118%" x="0%" y="80px"><defs /><svg width="100%" x="0" y="0px"><defs /><text text-anchor="middle" x="50%" y="16px">D</text></svg><svg width="100%" x="0%" y="80px"><defs /><svg width="100%" x="0" y="0px"><defs /><text text-anchor="middle" x="50%" y="16px">the</text></svg></svg><line stroke="black" x1="50%" x2="50%" y1="19.2px" y2="80px" /></svg><line stroke="black" x1="50%" x2="14.7059%" y1="19.2px" y2="80px" /><svg width="70.5882%" x="29.4118%" y="80px"><defs /><svg width="100%" x="0" y="0px"><defs /><text text-anchor="middle" x="50%" y="16px">N</text></svg><svg width="100%" x="0%" y="80px"><defs /><svg width="100%" x="0" y="0px"><defs /><text text-anchor="middle" x="50%" y="16px">rhinoceros</text></svg></svg><line stroke="black" x1="50%" x2="50%" y1="19.2px" y2="80px" /></svg><line stroke="black" x1="50%" x2="64.7059%" y1="19.2px" y2="80px" /></svg><line stroke="black" x1="50%" x2="19.7674%" y1="19.2px" y2="80px" /><svg width="60.4651%" x="39.5349%" y="80px"><defs /><svg width="100%" x="0" y="0px"><defs /><text text-anchor="middle" x="50%" y="16px">VP</text></svg><svg width="19.2308%" x="0%" y="80px"><defs /><svg width="100%" x="0" y="0px"><defs /><text text-anchor="middle" x="50%" y="16px">V</text></svg><svg width="100%" x="0%" y="80px"><defs /><svg width="100%" x="0" y="0px"><defs /><text text-anchor="middle" x="50%" y="16px">saw</text></svg></svg><line stroke="black" x1="50%" x2="50%" y1="19.2px" y2="80px" /></svg><line stroke="black" x1="50%" x2="9.61538%" y1="19.2px" y2="80px" /><svg width="80.7692%" x="19.2308%" y="80px"><defs /><svg width="100%" x="0" y="0px"><defs /><text text-anchor="middle" x="50%" y="16px">NP</text></svg><svg width="23.8095%" x="0%" y="80px"><defs /><svg width="100%" x="0" y="0px"><defs /><text text-anchor="middle" x="50%" y="16px">D</text></svg><svg width="100%" x="0%" y="80px"><defs /><svg width="100%" x="0" y="0px"><defs /><text text-anchor="middle" x="50%" y="16px">the</text></svg></svg><line stroke="black" x1="50%" x2="50%" y1="19.2px" y2="80px" /></svg><line stroke="black" x1="50%" x2="11.9048%" y1="19.2px" y2="80px" /><svg width="28.5714%" x="23.8095%" y="80px"><defs /><svg width="100%" x="0" y="0px"><defs /><text text-anchor="middle" x="50%" y="16px">A</text></svg><svg width="100%" x="0%" y="80px"><defs /><svg width="100%" x="0" y="0px"><defs /><text text-anchor="middle" x="50%" y="16px">gray</text></svg></svg><line stroke="black" x1="50%" x2="50%" y1="19.2px" y2="80px" /></svg><line stroke="black" x1="50%" x2="38.0952%" y1="19.2px" y2="80px" /><svg width="47.619%" x="52.381%" y="80px"><defs /><svg width="100%" x="0" y="0px"><defs /><text text-anchor="middle" x="50%" y="16px">N</text></svg><svg width="100%" x="0%" y="80px"><defs /><svg width="100%" x="0" y="0px"><defs /><text text-anchor="middle" x="50%" y="16px">elephant</text></svg></svg><line stroke="black" x1="50%" x2="50%" y1="19.2px" y2="80px" /></svg><line stroke="black" x1="50%" x2="76.1905%" y1="19.2px" y2="80px" /></svg><line stroke="black" x1="50%" x2="59.6154%" y1="19.2px" y2="80px" /></svg><line stroke="black" x1="50%" x2="69.7674%" y1="19.2px" y2="80px" /></svg></svg><svg height="100%" width="100%" x="0" y="350.5"><defs /><text style="font-family: times, serif; font-weight:normal; font-style: italic; font-size: 13px;" text-anchor="middle" x="50%" y="1em">Example t1 with distance_to_daughter=4</text></svg></svg></svg><svg height="133.3" width="344.0" x="0" y="841.5"><defs /><svg baseProfile="full" height="133.3px" preserveAspectRatio="xMidYMid meet" version="1.1" viewBox="0,0,344.0,133.3" width="344px" xmlns="http://www.w3.org/2000/svg" xmlns:ev="http://www.w3.org/2001/xml-events" xmlns:xlink="http://www.w3.org/1999/xlink"><defs /><svg height="100.8" width="344.0" x="0" y="0"><defs /><svg baseProfile="full" height="100.8px" preserveAspectRatio="xMidYMid meet" style="font-family: times, serif; font-weight: normal; font-style: normal; font-size: 16px;" version="1.1" viewBox="0,0,344.0,100.8" width="344px" xmlns="http://www.w3.org/2000/svg" xmlns:ev="http://www.w3.org/2001/xml-events" xmlns:xlink="http://www.w3.org/1999/xlink"><defs /><svg width="100%" x="0" y="0px"><defs /><text text-anchor="middle" x="50%" y="16px">S</text></svg><svg width="39.5349%" x="0%" y="19.2px"><defs /><svg width="100%" x="0" y="0px"><defs /><text text-anchor="middle" x="50%" y="16px">NP</text></svg><svg width="29.4118%" x="0%" y="19.2px"><defs /><svg width="100%" x="0" y="0px"><defs /><text text-anchor="middle" x="50%" y="16px">D</text></svg><svg width="100%" x="0%" y="19.2px"><defs /><svg width="100%" x="0" y="0px"><defs /><text text-anchor="middle" x="50%" y="16px">the</text></svg></svg><line stroke="black" x1="50%" x2="50%" y1="19.2px" y2="19.2px" /></svg><line stroke="black" x1="50%" x2="14.7059%" y1="19.2px" y2="19.2px" /><svg width="70.5882%" x="29.4118%" y="19.2px"><defs /><svg width="100%" x="0" y="0px"><defs /><text text-anchor="middle" x="50%" y="16px">N</text></svg><svg width="100%" x="0%" y="19.2px"><defs /><svg width="100%" x="0" y="0px"><defs /><text text-anchor="middle" x="50%" y="16px">rhinoceros</text></svg></svg><line stroke="black" x1="50%" x2="50%" y1="19.2px" y2="19.2px" /></svg><line stroke="black" x1="50%" x2="64.7059%" y1="19.2px" y2="19.2px" /></svg><line stroke="black" x1="50%" x2="19.7674%" y1="19.2px" y2="19.2px" /><svg width="60.4651%" x="39.5349%" y="19.2px"><defs /><svg width="100%" x="0" y="0px"><defs /><text text-anchor="middle" x="50%" y="16px">VP</text></svg><svg width="19.2308%" x="0%" y="19.2px"><defs /><svg width="100%" x="0" y="0px"><defs /><text text-anchor="middle" x="50%" y="16px">V</text></svg><svg width="100%" x="0%" y="19.2px"><defs /><svg width="100%" x="0" y="0px"><defs /><text text-anchor="middle" x="50%" y="16px">saw</text></svg></svg><line stroke="black" x1="50%" x2="50%" y1="19.2px" y2="19.2px" /></svg><line stroke="black" x1="50%" x2="9.61538%" y1="19.2px" y2="19.2px" /><svg width="80.7692%" x="19.2308%" y="19.2px"><defs /><svg width="100%" x="0" y="0px"><defs /><text text-anchor="middle" x="50%" y="16px">NP</text></svg><svg width="23.8095%" x="0%" y="19.2px"><defs /><svg width="100%" x="0" y="0px"><defs /><text text-anchor="middle" x="50%" y="16px">D</text></svg><svg width="100%" x="0%" y="19.2px"><defs /><svg width="100%" x="0" y="0px"><defs /><text text-anchor="middle" x="50%" y="16px">the</text></svg></svg><line stroke="black" x1="50%" x2="50%" y1="19.2px" y2="19.2px" /></svg><line stroke="black" x1="50%" x2="11.9048%" y1="19.2px" y2="19.2px" /><svg width="28.5714%" x="23.8095%" y="19.2px"><defs /><svg width="100%" x="0" y="0px"><defs /><text text-anchor="middle" x="50%" y="16px">A</text></svg><svg width="100%" x="0%" y="19.2px"><defs /><svg width="100%" x="0" y="0px"><defs /><text text-anchor="middle" x="50%" y="16px">gray</text></svg></svg><line stroke="black" x1="50%" x2="50%" y1="19.2px" y2="19.2px" /></svg><line stroke="black" x1="50%" x2="38.0952%" y1="19.2px" y2="19.2px" /><svg width="47.619%" x="52.381%" y="19.2px"><defs /><svg width="100%" x="0" y="0px"><defs /><text text-anchor="middle" x="50%" y="16px">N</text></svg><svg width="100%" x="0%" y="19.2px"><defs /><svg width="100%" x="0" y="0px"><defs /><text text-anchor="middle" x="50%" y="16px">elephant</text></svg></svg><line stroke="black" x1="50%" x2="50%" y1="19.2px" y2="19.2px" /></svg><line stroke="black" x1="50%" x2="76.1905%" y1="19.2px" y2="19.2px" /></svg><line stroke="black" x1="50%" x2="59.6154%" y1="19.2px" y2="19.2px" /></svg><line stroke="black" x1="50%" x2="69.7674%" y1="19.2px" y2="19.2px" /></svg></svg><svg height="100%" width="100%" x="0" y="107.3"><defs /><text style="font-family: times, serif; font-weight:normal; font-style: italic; font-size: 13px;" text-anchor="middle" x="50%" y="1em">Example t1 with distance_to_daughter=0.2</text></svg></svg></svg></svg>