<svg baseProfile="full" height="818px" preserveAspectRatio="xMidYMid meet" version="1.1" viewBox="0,0,279.5,818.0" width="279.5px" xmlns="http://www.w3.org/2000/svg" xmlns:ev="http://www.w3.org/2001/xml-events" xmlns:xlink="http://www.w3.org/1999/xlink"><defs /><svg height="184.5" width="260.0" x="0" y="16"><defs /><svg baseProfile="full" height="184.5px" preserveAspectRatio="xMidYMid meet" version="1.1" viewBox="0,0,260.0,184.5" width="260px" xmlns="http://www.w3.org/2000/svg" xmlns:ev="http://www.w3.org/2001/xml-events" xmlns:xlink="http://www.w3.org/1999/xlink"><defs /><svg height="152.0" width="160.0" x="50.0" y="0"><defs /><svg baseProfile="full" height="152px" preserveAspectRatio="xMidYMid meet" style="font-family: times, serif; font-weight: normal; font-style: normal; font-size: 16px" version="1.1" viewBox="0,0,160.0,152.0" width="160px" xmlns="http://www.w3.org/2000/svg" xmlns:ev="http://www.w3.org/2001/xml-events" xmlns:xlink="http://www.w3.org/1999/xlink"><defs /><svg width="100%" x="0" y="0px"><defs /><text text-anchor="middle" x="50%" y="16px">X</text></svg><svg width="55%" x="0%" y="48px"><defs /><svg width="100%" x="0" y="0px"><defs /><text text-anchor="middle" x="50%" y="16px">multiline</text><text text-anchor="middle" x="50%" y="32px">label</text></svg><svg width="100%" x="0%" y="64px"><defs /><svg width="100%" x="0" y="0px"><defs /><text text-anchor="middle" x="50%" y="16px">Y</text></svg></svg><line stroke="black" x1="50%" x2="50%" y1="36px" y2="64px" /></svg><line stroke="black" x1="50%" x2="27.5%" y1="20px" y2="48px" /><svg width="15%" x="55%" y="48px"><defs /><svg width="100%" x="0" y="0px"><defs /></svg><svg width="100%" x="0%" y="64px"><defs /><svg width="100%" x="0" y="0px"><defs /><text text-anchor="middle" x="50%" y="16px">Z</text><text text-anchor="middle" x="50%" y="32px">A</text></svg></svg><line stroke="black" x1="50%" x2="50%" y1="0px" y2="64px" /></svg><line stroke="black" x1="50%" x2="62.5%" y1="20px" y2="48px" /><svg width="15%" x="70%" y="48px"><defs /><svg width="100%" x="0" y="0px"><defs /><text text-anchor="middle" x="50%" y="16px">A</text></svg><svg width="100%" x="0%" y="64px"><defs /><svg width="100%" x="0" y="0px"><defs /><text text-anchor="middle" x="50%" y="16px">B</text></svg></svg><line stroke="black" x1="50%" x2="50%" y1="20px" y2="64px" /></svg><line stroke="black" x1="50%" x2="77.5%" y1="20px" y2="48px" /><svg width="15%" x="85%" y="48px"><defs /><svg width="100%" x="0" y="0px"><defs /><text text-anchor="middle" x="50%" y="16px">C</text></svg></svg><line stroke="black" x1="50%" x2="92.5%" y1="20px" y2="48px" /></svg></svg><svg height="100%" width="100%" x="0" y="158.5"><defs /><text style="font-family: times, serif; font-weight:normal; font-style: italic; font-size: 13px;" text-anchor="middle" x="50%" y="1em">Example t4 with vert_align=VertAlign.TOP</text></svg></svg></svg><svg height="184.5" width="279.5" x="0" y="216.5"><defs /><svg baseProfile="full" height="184.5px" preserveAspectRatio="xMidYMid meet" version="1.1" viewBox="0,0,279.5,184.5" width="279.5px" xmlns="http://www.w3.org/2000/svg" xmlns:ev="http://www.w3.org/2001/xml-events" xmlns:xlink="http://www.w3.org/1999/xlink"><defs /><svg height="152.0" width="160.0" x="59.75" y="0"><defs /><svg baseProfile="full" height="152px" preserveAspectRatio="xMidYMid meet" style="font-family: times, serif; font-weight: normal; font-style: normal; font-size: 16px" version="1.1" viewBox="0,0,160.0,152.0" width="160px" xmlns="http://www.w3.org/2000/svg" xmlns:ev="http://www.w3.org/2001/xml-events" xmlns:xlink="http://www.w3.org/1999/xlink"><defs /><svg width="100%" x="0" y="0px"><defs /><text text-anchor="middle" x="50%" y="16px">X</text></svg><svg width="55%" x="0%" y="48px"><defs /><svg width="100%" x="0" y="0px"><defs /><text text-anchor="middle" x="50%" y="16px">multiline</text><text text-anchor="middle" x="50%" y="32px">label</text></svg><svg width="100%" x="0%" y="64px"><defs /><svg width="100%" x="0" y="8px"><defs /><text text-anchor="middle" x="50%" y="16px">Y</text></svg></svg><line stroke="black" x1="50%" x2="50%" y1="36px" y2="72px" /></svg><line stroke="black" x1="50%" x2="27.5%" y1="20px" y2="48px" /><svg width="15%" x="55%" y="48px"><defs /><svg width="100%" x="0" y="16px"><defs /></svg><svg width="100%" x="0%" y="64px"><defs /><svg width="100%" x="0" y="0px"><defs /><text text-anchor="middle" x="50%" y="16px">Z</text><text text-anchor="middle" x="50%" y="32px">A</text></svg></svg><line stroke="black" x1="50%" x2="50%" y1="16px" y2="64px" /></svg><line stroke="black" x1="50%" x2="62.5%" y1="20px" y2="64px" /><svg width="15%" x="70%" y="48px"><defs /><svg width="100%" x="0" y="8px"><defs /><text text-anchor="middle" x="50%" y="16px">A</text></svg><svg width="100%" x="0%" y="64px"><defs /><svg width="100%" x="0" y="8px"><defs /><text text-anchor="middle" x="50%" y="16px">B</text></svg></svg><line stroke="black" x1="50%" x2="50%" y1="28px" y2="72px" /></svg><line stroke="black" x1="50%" x2="77.5%" y1="20px" y2="56px" /><svg width="15%" x="85%" y="48px"><defs /><svg width="100%" x="0" y="8px"><defs /><text text-anchor="middle" x="50%" y="16px">C</text></svg></svg><line stroke="black" x1="50%" x2="92.5%" y1="20px" y2="56px" /></svg></svg><svg height="100%" width="100%" x="0" y="158.5"><defs /><text style="font-family: times, serif; font-weight:normal; font-style: italic; font-size: 13px;" text-anchor="middle" x="50%" y="1em">Example t4 with vert_align=VertAlign.CENTER</text></svg></svg></svg><svg height="184.5" width="279.5" x="0" y="417.0"><defs /><svg baseProfile="full" height="184.5px" preserveAspectRatio="xMidYMid meet" version="1.1" viewBox="0,0,279.5,184.5" width="279.5px" xmlns="http://www.w3.org/2000/svg" xmlns:ev="http://www.w3.org/2001/xml-events" xmlns:xlink="http://www.w3.org/1999/xlink"><defs /><svg height="152.0" width="160.0" x="59.75" y="0"><defs /><svg baseProfile="full" height="152px" preserveAspectRatio="xMidYMid meet" style="font-family: times, serif; font-weight: normal; font-style: normal; font-size: 16px" version="1.1" viewBox="0,0,160.0,152.0" width="160px" xmlns="http://www.w3.org/2000/svg" xmlns:ev="http://www.w3.org/2001/xml-events" xmlns:xlink="http://www.w3.org/1999/xlink"><defs /><svg width="100%" x="0" y="0px"><defs /><text text-anchor="middle" x="50%" y="16px">X</text></svg><svg width="55%" x="0%" y="48px"><defs /><svg width="100%" x="0" y="0px"><defs /><text text-anchor="middle" x="50%" y="16px">multiline</text><text text-anchor="middle" x="50%" y="32px">label</text></svg><svg width="100%" x="0%" y="64px"><defs /><svg width="100%" x="0" y="16px"><defs /><text text-anchor="middle" x="50%" y="16px">Y</text></svg></svg><line stroke="black" x1="50%" x2="50%" y1="36px" y2="80px" /></svg><line stroke="black" x1="50%" x2="27.5%" y1="20px" y2="48px" /><svg width="15%" x="55%" y="48px"><defs /><svg width="100%" x="0" y="32px"><defs /></svg><svg width="100%" x="0%" y="64px"><defs /><svg width="100%" x="0" y="0px"><defs /><text text-anchor="middle" x="50%" y="16px">Z</text><text text-anchor="middle" x="50%" y="32px">A</text></svg></svg><line stroke="black" x1="50%" x2="50%" y1="32px" y2="64px" /></svg><line stroke="black" x1="50%" x2="62.5%" y1="20px" y2="80px" /><svg width="15%" x="70%" y="48px"><defs /><svg width="100%" x="0" y="16px"><defs /><text text-anchor="middle" x="50%" y="16px">A</text></svg><svg width="100%" x="0%" y="64px"><defs /><svg width="100%" x="0" y="16px"><defs /><text text-anchor="middle" x="50%" y="16px">B</text></svg></svg><line stroke="black" x1="50%" x2="50%" y1="36px" y2="80px" /></svg><line stroke="black" x1="50%" x2="77.5%" y1="20px" y2="64px" /><svg width="15%" x="85%" y="48px"><defs /><svg width="100%" x="0" y="16px"><defs /><text text-anchor="middle" x="50%" y="16px">C</text></svg></svg><line stroke="black" x1="50%" x2="92.5%" y1="20px" y2="64px" /></svg></svg><svg height="100%" width="100%" x="0" y="158.5"><defs /><text style="font-family: times, serif; font-weight:normal; font-style: italic; font-size: 13px;" text-anchor="middle" x="50%" y="1em">Example t4 with vert_align=VertAlign.BOTTOM</text></svg></svg></svg><svg height="184.5" width="266.5" x="0" y="617.5"><defs /><svg baseProfile="full" height="184.5px" preserveAspectRatio="xMidYMid meet" version="1.1" viewBox="0,0,266.5,184.5" width="266.5px" xmlns="http://www.w3.org/2000/svg" xmlns:ev="http://www.w3.org/2001/xml-events" xmlns:xlink="http://www.w3.org/1999/xlink"><defs /><svg height="152.0" width="160.0" x="53.25" y="0"><defs /><svg baseProfile="full" height="152px" preserveAspectRatio="xMidYMid meet" style="font-family: times, serif; font-weight: normal; font-style: normal; font-size: 16px" version="1.1" viewBox="0,0,160.0,152.0" width="160px" xmlns="http://www.w3.org/2000/svg" xmlns:ev="http://www.w3.org/2001/xml-events" xmlns:xlink="http://www.w3.org/1999/xlink"><defs /><svg width="100%" x="0" y="0px"><defs /><text text-anchor="middle" x="50%" y="16px">X</text></svg><svg width="55%" x="0%" y="48px"><defs /><svg width="100%" x="0" y="0px"><defs /><text text-anchor="middle" x="50%" y="16px">multiline</text><text text-anchor="middle" x="50%" y="32px">label</text></svg><svg width="100%" x="0%" y="64px"><defs /><svg width="100%" x="0" y="0px"><defs /><text text-anchor="middle" x="50%" y="16px">Y</text></svg></svg><line stroke="black" x1="50%" x2="50%" y1="36px" y2="64px" /></svg><line stroke="black" x1="50%" x2="27.5%" y1="20px" y2="48px" /><svg width="15%" x="55%" y="48px"><defs /><svg width="100%" x="0" y="0px"><defs /></svg><svg width="100%" x="0%" y="64px"><defs /><svg width="100%" x="0" y="0px"><defs /><text text-anchor="middle" x="50%" y="16px">Z</text><text text-anchor="middle" x="50%" y="32px">A</text></svg></svg><line stroke="black" x1="50%" x2="50%" y1="36px" y2="64px" /></svg><line stroke="black" x1="50%" x2="62.5%" y1="20px" y2="48px" /><svg width="15%" x="70%" y="48px"><defs /><svg width="100%" x="0" y="0px"><defs /><text text-anchor="middle" x="50%" y="16px">A</text></svg><svg width="100%" x="0%" y="64px"><defs /><svg width="100%" x="0" y="0px"><defs /><text text-anchor="middle" x="50%" y="16px">B</text></svg></svg><line stroke="black" x1="50%" x2="50%" y1="36px" y2="64px" /></svg><line stroke="black" x1="50%" x2="77.5%" y1="20px" y2="48px" /><svg width="15%" x="85%" y="48px"><defs /><svg width="100%" x="0" y="0px"><defs /><text text-anchor="middle" x="50%" y="16px">C</text></svg></svg><line stroke="black" x1="50%" x2="92.5%" y1="20px" y2="48px" /></svg></svg><svg height="100%" width="100%" x="0" y="158.5"><defs /><text style="font-family: times, serif; font-weight:normal; font-style: italic; font-size: 13px;" text-anchor="middle" x="50%" y="1em">Example t4 with vert_align=VertAlign.FULL</text></svg></svg></svg></svg>