<svg baseProfile="full" height="793.5px" preserveAspectRatio="xMidYMid meet" version="1.1" viewBox="0,0,726.0,793.5" width="726px" xmlns="http://www.w3.org/2000/svg" xmlns:ev="http://www.w3.org/2001/xml-events" xmlns:xlink="http://www.w3.org/1999/xlink"><defs /><svg height="761.0" width="726.0" x="0" y="0"><defs /><svg baseProfile="full" height="761px" preserveAspectRatio="xMidYMid meet" version="1.1" viewBox="0,0,726.0,761.0" width="726px" xmlns="http://www.w3.org/2000/svg" xmlns:ev="http://www.w3.org/2001/xml-events" xmlns:xlink="http://www.w3.org/1999/xlink"><defs /><svg height="296.5" width="726.0" x="0" y="16"><defs /><svg baseProfile="full" height="296.5px" preserveAspectRatio="xMidYMid meet" version="1.1" viewBox="0,0,726.0,296.5" width="726px" xmlns="http://www.w3.org/2000/svg" xmlns:ev="http://www.w3.org/2001/xml-events" xmlns:xlink="http://www.w3.org/1999/xlink"><defs /><svg height="296.5" width="306.0" x="16" y="0"><defs /><svg baseProfile="full" height="296.5px" preserveAspectRatio="xMidYMid meet" version="1.1" viewBox="0,0,240.0,296.5" width="240px" xmlns="http://www.w3.org/2000/svg" xmlns:ev="http://www.w3.org/2001/xml-events" xmlns:xlink="http://www.w3.org/1999/xlink"><defs /><svg height="264.0" width="240.0" x="0" y="0"><defs /><svg baseProfile="full" height="264px" preserveAspectRatio="xMidYMid meet" style="font-family: times, serif; font-weight: normal; font-style: normal; font-size: 16px" version="1.1" viewBox="0,0,240.0,264.0" width="240px" xmlns="http://www.w3.org/2000/svg" xmlns:ev="http://www.w3.org/2001/xml-events" xmlns:xlink="http://www.w3.org/1999/xlink"><defs /><svg width="100%" x="0" y="0px"><defs /><text text-anchor="middle" x="50%" y="16px">TP</text></svg><svg width="40%" x="0%" y="48px"><defs /><svg width="100%" x="0" y="0px"><defs /><text text-anchor="middle" x="50%" y="16px">DP</text></svg><svg width="58.3333%" x="0%" y="48px"><defs /><svg width="100%" x="0" y="0px"><defs /><text text-anchor="middle" x="50%" y="16px">D</text></svg><svg width="100%" x="0%" y="48px"><defs /><svg width="100%" x="0" y="0px"><defs /><text text-anchor="middle" x="50%" y="16px">every</text></svg></svg><line stroke="black" x1="50%" x2="50%" y1="20px" y2="48px" /></svg><line stroke="black" x1="50%" x2="29.1667%" y1="20px" y2="48px" /><svg width="41.6667%" x="58.3333%" y="48px"><defs /><svg width="100%" x="0" y="0px"><defs /><text text-anchor="middle" x="50%" y="16px">NP</text></svg><svg width="100%" x="0%" y="48px"><defs /><svg width="100%" x="0" y="0px"><defs /><text text-anchor="middle" x="50%" y="16px">N</text></svg><svg width="100%" x="0%" y="48px"><defs /><svg width="100%" x="0" y="0px"><defs /><text text-anchor="middle" x="50%" y="16px">cat</text></svg></svg><line stroke="black" x1="50%" x2="50%" y1="20px" y2="48px" /></svg><line stroke="black" x1="50%" x2="50%" y1="20px" y2="48px" /></svg><line stroke="black" x1="50%" x2="79.1667%" y1="20px" y2="48px" /></svg><line stroke="black" x1="50%" x2="20%" y1="20px" y2="48px" /><svg width="60%" x="40%" y="48px"><defs /><svg width="100%" x="0" y="0px"><defs /><text text-anchor="middle" x="50%" y="16px">VP</text></svg><svg width="38.8889%" x="0%" y="48px"><defs /><svg width="100%" x="0" y="0px"><defs /><text text-anchor="middle" x="50%" y="16px">V</text></svg><svg width="100%" x="0%" y="48px"><defs /><svg width="100%" x="0" y="0px"><defs /><text text-anchor="middle" x="50%" y="16px">likes</text></svg></svg><line stroke="black" x1="50%" x2="50%" y1="20px" y2="48px" /></svg><line stroke="black" x1="50%" x2="19.4444%" y1="20px" y2="48px" /><svg width="61.1111%" x="38.8889%" y="48px"><defs /><svg width="100%" x="0" y="0px"><defs /><text text-anchor="middle" x="50%" y="16px">DP</text></svg><svg width="54.5455%" x="0%" y="48px"><defs /><svg width="100%" x="0" y="0px"><defs /><text text-anchor="middle" x="50%" y="16px">D</text></svg><svg width="100%" x="0%" y="48px"><defs /><svg width="100%" x="0" y="0px"><defs /><text text-anchor="middle" x="50%" y="16px">some</text></svg></svg><line stroke="black" x1="50%" x2="50%" y1="20px" y2="48px" /></svg><line stroke="black" x1="50%" x2="27.2727%" y1="20px" y2="48px" /><svg width="45.4545%" x="54.5455%" y="48px"><defs /><svg width="100%" x="0" y="0px"><defs /><text text-anchor="middle" x="50%" y="16px">NP</text></svg><svg width="100%" x="0%" y="48px"><defs /><svg width="100%" x="0" y="0px"><defs /><text text-anchor="middle" x="50%" y="16px">N</text></svg><svg width="100%" x="0%" y="48px"><defs /><svg width="100%" x="0" y="0px"><defs /><text text-anchor="middle" x="50%" y="16px">dog</text></svg></svg><line stroke="black" x1="50%" x2="50%" y1="20px" y2="48px" /></svg><line stroke="black" x1="50%" x2="50%" y1="20px" y2="48px" /></svg><line stroke="black" x1="50%" x2="77.2727%" y1="20px" y2="48px" /></svg><line stroke="black" x1="50%" x2="69.4444%" y1="20px" y2="48px" /></svg><line stroke="black" x1="50%" x2="70%" y1="20px" y2="48px" /></svg></svg><svg height="100%" width="100%" x="0" y="270.5"><defs /><text style="font-family: times, serif; font-weight:normal; font-style: italic; font-size: 13px;" text-anchor="middle" x="50%" y="1em">LF input (= Surface Structure)</text></svg></svg></svg><svg height="296.5" width="372.0" x="338.0" y="0"><defs /><svg baseProfile="full" height="296.5px" preserveAspectRatio="xMidYMid meet" version="1.1" viewBox="0,0,260.0,296.5" width="260px" xmlns="http://www.w3.org/2000/svg" xmlns:ev="http://www.w3.org/2001/xml-events" xmlns:xlink="http://www.w3.org/1999/xlink"><defs /><svg height="264.0" width="240.0" x="10.0" y="0"><defs /><svg baseProfile="full" height="264px" preserveAspectRatio="xMidYMid meet" style="font-family: times, serif; font-weight: normal; font-style: normal; font-size: 16px" version="1.1" viewBox="0,0,240.0,264.0" width="240px" xmlns="http://www.w3.org/2000/svg" xmlns:ev="http://www.w3.org/2001/xml-events" xmlns:xlink="http://www.w3.org/1999/xlink"><defs /><svg width="100%" x="0" y="0px"><defs /><text text-anchor="middle" x="50%" y="16px">TP</text></svg><svg width="40%" x="0%" y="48px"><defs /><svg width="100%" x="0" y="0px"><defs /><text text-anchor="middle" x="50%" y="16px"><tspan>DP</tspan><tspan dy="4px" style="font-size: 12px">1</tspan></text></svg><svg width="58.3333%" x="0%" y="48px"><defs /><svg width="100%" x="0" y="0px"><defs /><text text-anchor="middle" x="50%" y="16px">D</text></svg><svg width="100%" x="0%" y="48px"><defs /><svg width="100%" x="0" y="0px"><defs /><text text-anchor="middle" x="50%" y="16px">every</text></svg></svg><line stroke="black" x1="50%" x2="50%" y1="20px" y2="48px" /></svg><line stroke="black" x1="50%" x2="29.1667%" y1="20px" y2="48px" /><svg width="41.6667%" x="58.3333%" y="48px"><defs /><svg width="100%" x="0" y="0px"><defs /><text text-anchor="middle" x="50%" y="16px">NP</text></svg><svg width="100%" x="0%" y="48px"><defs /><svg width="100%" x="0" y="0px"><defs /><text text-anchor="middle" x="50%" y="16px">N</text></svg><svg width="100%" x="0%" y="48px"><defs /><svg width="100%" x="0" y="0px"><defs /><text text-anchor="middle" x="50%" y="16px">cat</text></svg></svg><line stroke="black" x1="50%" x2="50%" y1="20px" y2="48px" /></svg><line stroke="black" x1="50%" x2="50%" y1="20px" y2="48px" /></svg><line stroke="black" x1="50%" x2="79.1667%" y1="20px" y2="48px" /></svg><line stroke="black" x1="50%" x2="20%" y1="20px" y2="48px" /><svg width="60%" x="40%" y="48px"><defs /><svg width="100%" x="0" y="0px"><defs /><text text-anchor="middle" x="50%" y="16px">VP</text></svg><svg width="38.8889%" x="0%" y="48px"><defs /><svg width="100%" x="0" y="0px"><defs /><text text-anchor="middle" x="50%" y="16px">V</text></svg><svg width="100%" x="0%" y="48px"><defs /><svg width="100%" x="0" y="0px"><defs /><text text-anchor="middle" x="50%" y="16px">likes</text></svg></svg><line stroke="black" x1="50%" x2="50%" y1="20px" y2="48px" /></svg><line stroke="black" x1="50%" x2="19.4444%" y1="20px" y2="48px" /><svg width="61.1111%" x="38.8889%" y="48px"><defs /><svg width="100%" x="0" y="0px"><defs /><text text-anchor="middle" x="50%" y="16px"><tspan>DP</tspan><tspan dy="4px" style="font-size: 12px">3</tspan></text></svg><svg width="54.5455%" x="0%" y="48px"><defs /><svg width="100%" x="0" y="0px"><defs /><text text-anchor="middle" x="50%" y="16px">D</text></svg><svg width="100%" x="0%" y="48px"><defs /><svg width="100%" x="0" y="0px"><defs /><text text-anchor="middle" x="50%" y="16px">some</text></svg></svg><line stroke="black" x1="50%" x2="50%" y1="20px" y2="48px" /></svg><line stroke="black" x1="50%" x2="27.2727%" y1="20px" y2="48px" /><svg width="45.4545%" x="54.5455%" y="48px"><defs /><svg width="100%" x="0" y="0px"><defs /><text text-anchor="middle" x="50%" y="16px">NP</text></svg><svg width="100%" x="0%" y="48px"><defs /><svg width="100%" x="0" y="0px"><defs /><text text-anchor="middle" x="50%" y="16px">N</text></svg><svg width="100%" x="0%" y="48px"><defs /><svg width="100%" x="0" y="0px"><defs /><text text-anchor="middle" x="50%" y="16px">dog</text></svg></svg><line stroke="black" x1="50%" x2="50%" y1="20px" y2="48px" /></svg><line stroke="black" x1="50%" x2="50%" y1="20px" y2="48px" /></svg><line stroke="black" x1="50%" x2="77.2727%" y1="20px" y2="48px" /></svg><line stroke="black" x1="50%" x2="69.4444%" y1="20px" y2="48px" /></svg><line stroke="black" x1="50%" x2="70%" y1="20px" y2="48px" /><rect fill="gray" fill-opacity="0.15" height="168px" rx="8" ry="8" stroke="none" stroke-width="1" width="40%" x="0%" y="48px" /><rect fill="gray" fill-opacity="0.15" height="168px" rx="8" ry="8" stroke="none" stroke-width="1" width="36.6667%" x="63.3333%" y="96px" /><rect fill="gray" fill-opacity="0.15" height="168px" rx="8" ry="8" stroke="none" stroke-width="1" width="40%" x="0%" y="48px" /><rect fill="gray" fill-opacity="0.15" height="168px" rx="8" ry="8" stroke="none" stroke-width="1" width="36.6667%" x="63.3333%" y="96px" /></svg></svg><svg height="100%" width="100%" x="0" y="270.5"><defs /><text style="font-family: times, serif; font-weight:normal; font-style: italic; font-size: 13px;" text-anchor="middle" x="50%" y="1em">Step 1: free indexing (1 of 2 indexings)</text></svg></svg></svg></svg></svg><svg height="416.5" width="726.0" x="0" y="328.5"><defs /><svg baseProfile="full" height="416.5px" preserveAspectRatio="xMidYMid meet" version="1.1" viewBox="0,0,726.0,416.5" width="726px" xmlns="http://www.w3.org/2000/svg" xmlns:ev="http://www.w3.org/2001/xml-events" xmlns:xlink="http://www.w3.org/1999/xlink"><defs /><svg height="368.5" width="306.0" x="16" y="0"><defs /><svg baseProfile="full" height="368.5px" preserveAspectRatio="xMidYMid meet" version="1.1" viewBox="0,0,306.0,368.5" width="306px" xmlns="http://www.w3.org/2000/svg" xmlns:ev="http://www.w3.org/2001/xml-events" xmlns:xlink="http://www.w3.org/1999/xlink"><defs /><svg height="336.0" width="306.0" x="0" y="0"><defs /><svg baseProfile="full" height="336px" preserveAspectRatio="xMidYMid meet" style="font-family: times, serif; font-weight: normal; font-style: normal; font-size: 16px" version="1.1" viewBox="0,0,306.0,336.0" width="306px" xmlns="http://www.w3.org/2000/svg" xmlns:ev="http://www.w3.org/2001/xml-events" xmlns:xlink="http://www.w3.org/1999/xlink"><defs /><svg width="100%" x="0" y="0px"><defs /><text text-anchor="middle" x="50%" y="16px">TP</text></svg><svg width="28.7582%" x="0%" y="48px"><defs /><svg width="100%" x="0" y="0px"><defs /><text text-anchor="middle" x="50%" y="16px">DP</text></svg><svg width="54.5455%" x="0%" y="48px"><defs /><svg width="100%" x="0" y="0px"><defs /><text text-anchor="middle" x="50%" y="16px">D</text></svg><svg width="100%" x="0%" y="48px"><defs /><svg width="100%" x="0" y="0px"><defs /><text text-anchor="middle" x="50%" y="16px">some</text></svg></svg><line stroke="black" x1="50%" x2="50%" y1="20px" y2="48px" /></svg><line stroke="black" x1="50%" x2="27.2727%" y1="20px" y2="48px" /><svg width="45.4545%" x="54.5455%" y="48px"><defs /><svg width="100%" x="0" y="0px"><defs /><text text-anchor="middle" x="50%" y="16px">NP</text></svg><svg width="100%" x="0%" y="48px"><defs /><svg width="100%" x="0" y="0px"><defs /><text text-anchor="middle" x="50%" y="16px">N</text></svg><svg width="100%" x="0%" y="48px"><defs /><svg width="100%" x="0" y="0px"><defs /><text text-anchor="middle" x="50%" y="16px">dog</text></svg></svg><line stroke="black" x1="50%" x2="50%" y1="20px" y2="48px" /></svg><line stroke="black" x1="50%" x2="50%" y1="20px" y2="48px" /></svg><line stroke="black" x1="50%" x2="77.2727%" y1="20px" y2="48px" /></svg><line stroke="black" x1="50%" x2="14.3791%" y1="20px" y2="48px" /><svg width="71.2418%" x="28.7582%" y="48px"><defs /><svg width="100%" x="0" y="0px"><defs /><text text-anchor="middle" x="50%" y="16px">TP</text></svg><svg width="11.0092%" x="0%" y="48px"><defs /><svg width="100%" x="0" y="0px"><defs /><text text-anchor="middle" x="50%" y="16px">3</text></svg></svg><line stroke="black" x1="50%" x2="5.50459%" y1="20px" y2="48px" /><svg width="88.9908%" x="11.0092%" y="48px"><defs /><svg width="100%" x="0" y="0px"><defs /><text text-anchor="middle" x="50%" y="16px">TP</text></svg><svg width="49.4845%" x="0%" y="48px"><defs /><svg width="100%" x="0" y="0px"><defs /><text text-anchor="middle" x="50%" y="16px"><tspan>DP</tspan><tspan dy="4px" style="font-size: 12px">1</tspan></text></svg><svg width="58.3333%" x="0%" y="48px"><defs /><svg width="100%" x="0" y="0px"><defs /><text text-anchor="middle" x="50%" y="16px">D</text></svg><svg width="100%" x="0%" y="48px"><defs /><svg width="100%" x="0" y="0px"><defs /><text text-anchor="middle" x="50%" y="16px">every</text></svg></svg><line stroke="black" x1="50%" x2="50%" y1="20px" y2="48px" /></svg><line stroke="black" x1="50%" x2="29.1667%" y1="20px" y2="48px" /><svg width="41.6667%" x="58.3333%" y="48px"><defs /><svg width="100%" x="0" y="0px"><defs /><text text-anchor="middle" x="50%" y="16px">NP</text></svg><svg width="100%" x="0%" y="48px"><defs /><svg width="100%" x="0" y="0px"><defs /><text text-anchor="middle" x="50%" y="16px">N</text></svg><svg width="100%" x="0%" y="48px"><defs /><svg width="100%" x="0" y="0px"><defs /><text text-anchor="middle" x="50%" y="16px">cat</text></svg></svg><line stroke="black" x1="50%" x2="50%" y1="20px" y2="48px" /></svg><line stroke="black" x1="50%" x2="50%" y1="20px" y2="48px" /></svg><line stroke="black" x1="50%" x2="79.1667%" y1="20px" y2="48px" /></svg><line stroke="black" x1="50%" x2="24.7423%" y1="20px" y2="48px" /><svg width="50.5155%" x="49.4845%" y="48px"><defs /><svg width="100%" x="0" y="0px"><defs /><text text-anchor="middle" x="50%" y="16px">VP</text></svg><svg width="57.1429%" x="0%" y="48px"><defs /><svg width="100%" x="0" y="0px"><defs /><text text-anchor="middle" x="50%" y="16px">V</text></svg><svg width="100%" x="0%" y="48px"><defs /><svg width="100%" x="0" y="0px"><defs /><text text-anchor="middle" x="50%" y="16px">likes</text></svg></svg><line stroke="black" x1="50%" x2="50%" y1="20px" y2="48px" /></svg><line stroke="black" x1="50%" x2="28.5714%" y1="20px" y2="48px" /><svg width="42.8571%" x="57.1429%" y="48px"><defs /><svg width="100%" x="0" y="0px"><defs /><text text-anchor="middle" x="50%" y="16px">DP</text></svg><svg width="100%" x="0%" y="48px"><defs /><svg width="100%" x="0" y="0px"><defs /><text text-anchor="middle" x="50%" y="16px"><tspan>t</tspan><tspan dy="4px" style="font-size: 12px">3</tspan></text></svg></svg><line stroke="black" x1="50%" x2="50%" y1="20px" y2="48px" /></svg><line stroke="black" x1="50%" x2="78.5714%" y1="20px" y2="48px" /></svg><line stroke="black" x1="50%" x2="74.7423%" y1="20px" y2="48px" /></svg><line stroke="black" x1="50%" x2="55.5046%" y1="20px" y2="48px" /></svg><line stroke="black" x1="50%" x2="64.3791%" y1="20px" y2="48px" /><polyline fill="none" points="285.00000000000006,264.0 285.00000000000006,328.0 44.0,328.0 44.0,223.2" shape-rendering="crispEdges" stroke="black" stroke-width="1" /><polyline fill="black" points="47.0,223.2 44.0,216.0 41.0,223.2" stroke="none" /><rect fill="gray" fill-opacity="0.15" height="168px" rx="8" ry="8" stroke="none" stroke-width="1" width="28.7582%" x="0%" y="48px" /><rect fill="gray" fill-opacity="0.15" height="168px" rx="8" ry="8" stroke="none" stroke-width="1" width="31.3725%" x="36.6013%" y="144px" /><polyline fill="none" points="285.00000000000006,264.0 285.00000000000006,328.0 44.0,328.0 44.0,223.2" shape-rendering="crispEdges" stroke="black" stroke-width="1" /><polyline fill="black" points="47.0,223.2 44.0,216.0 41.0,223.2" stroke="none" /><rect fill="gray" fill-opacity="0.15" height="168px" rx="8" ry="8" stroke="none" stroke-width="1" width="28.7582%" x="0%" y="48px" /><rect fill="gray" fill-opacity="0.15" height="168px" rx="8" ry="8" stroke="none" stroke-width="1" width="31.3725%" x="36.6013%" y="144px" /></svg></svg><svg height="100%" width="100%" x="0" y="342.5"><defs /><text style="font-family: times, serif; font-weight:normal; font-style: italic; font-size: 13px;" text-anchor="middle" x="50%" y="1em">Step 2: QR an indexed DP (choosing the object)</text></svg></svg></svg><svg height="416.5" width="372.0" x="338.0" y="0"><defs /><svg baseProfile="full" height="416.5px" preserveAspectRatio="xMidYMid meet" version="1.1" viewBox="0,0,372.0,416.5" width="372px" xmlns="http://www.w3.org/2000/svg" xmlns:ev="http://www.w3.org/2001/xml-events" xmlns:xlink="http://www.w3.org/1999/xlink"><defs /><svg height="384.0" width="372.0" x="0" y="0"><defs /><svg baseProfile="full" height="384px" preserveAspectRatio="xMidYMid meet" style="font-family: times, serif; font-weight: normal; font-style: normal; font-size: 16px" version="1.1" viewBox="0,0,372.0,384.0" width="372px" xmlns="http://www.w3.org/2000/svg" xmlns:ev="http://www.w3.org/2001/xml-events" xmlns:xlink="http://www.w3.org/1999/xlink"><defs /><svg width="100%" x="0" y="0px"><defs /><text text-anchor="middle" x="50%" y="16px">TP</text></svg><svg width="25.8065%" x="0%" y="48px"><defs /><svg width="100%" x="0" y="0px"><defs /><text text-anchor="middle" x="50%" y="16px">DP</text></svg><svg width="58.3333%" x="0%" y="48px"><defs /><svg width="100%" x="0" y="0px"><defs /><text text-anchor="middle" x="50%" y="16px">D</text></svg><svg width="100%" x="0%" y="48px"><defs /><svg width="100%" x="0" y="0px"><defs /><text text-anchor="middle" x="50%" y="16px">every</text></svg></svg><line stroke="black" x1="50%" x2="50%" y1="20px" y2="48px" /></svg><line stroke="black" x1="50%" x2="29.1667%" y1="20px" y2="48px" /><svg width="41.6667%" x="58.3333%" y="48px"><defs /><svg width="100%" x="0" y="0px"><defs /><text text-anchor="middle" x="50%" y="16px">NP</text></svg><svg width="100%" x="0%" y="48px"><defs /><svg width="100%" x="0" y="0px"><defs /><text text-anchor="middle" x="50%" y="16px">N</text></svg><svg width="100%" x="0%" y="48px"><defs /><svg width="100%" x="0" y="0px"><defs /><text text-anchor="middle" x="50%" y="16px">cat</text></svg></svg><line stroke="black" x1="50%" x2="50%" y1="20px" y2="48px" /></svg><line stroke="black" x1="50%" x2="50%" y1="20px" y2="48px" /></svg><line stroke="black" x1="50%" x2="79.1667%" y1="20px" y2="48px" /></svg><line stroke="black" x1="50%" x2="12.9032%" y1="20px" y2="48px" /><svg width="74.1935%" x="25.8065%" y="48px"><defs /><svg width="100%" x="0" y="0px"><defs /><text text-anchor="middle" x="50%" y="16px">TP</text></svg><svg width="8.69565%" x="0%" y="48px"><defs /><svg width="100%" x="0" y="0px"><defs /><text text-anchor="middle" x="50%" y="16px">1</text></svg></svg><line stroke="black" x1="50%" x2="4.34783%" y1="20px" y2="48px" /><svg width="91.3043%" x="8.69565%" y="48px"><defs /><svg width="100%" x="0" y="0px"><defs /><text text-anchor="middle" x="50%" y="16px">TP</text></svg><svg width="34.9206%" x="0%" y="48px"><defs /><svg width="100%" x="0" y="0px"><defs /><text text-anchor="middle" x="50%" y="16px">DP</text></svg><svg width="54.5455%" x="0%" y="48px"><defs /><svg width="100%" x="0" y="0px"><defs /><text text-anchor="middle" x="50%" y="16px">D</text></svg><svg width="100%" x="0%" y="48px"><defs /><svg width="100%" x="0" y="0px"><defs /><text text-anchor="middle" x="50%" y="16px">some</text></svg></svg><line stroke="black" x1="50%" x2="50%" y1="20px" y2="48px" /></svg><line stroke="black" x1="50%" x2="27.2727%" y1="20px" y2="48px" /><svg width="45.4545%" x="54.5455%" y="48px"><defs /><svg width="100%" x="0" y="0px"><defs /><text text-anchor="middle" x="50%" y="16px">NP</text></svg><svg width="100%" x="0%" y="48px"><defs /><svg width="100%" x="0" y="0px"><defs /><text text-anchor="middle" x="50%" y="16px">N</text></svg><svg width="100%" x="0%" y="48px"><defs /><svg width="100%" x="0" y="0px"><defs /><text text-anchor="middle" x="50%" y="16px">dog</text></svg></svg><line stroke="black" x1="50%" x2="50%" y1="20px" y2="48px" /></svg><line stroke="black" x1="50%" x2="50%" y1="20px" y2="48px" /></svg><line stroke="black" x1="50%" x2="77.2727%" y1="20px" y2="48px" /></svg><line stroke="black" x1="50%" x2="17.4603%" y1="20px" y2="48px" /><svg width="65.0794%" x="34.9206%" y="48px"><defs /><svg width="100%" x="0" y="0px"><defs /><text text-anchor="middle" x="50%" y="16px">TP</text></svg><svg width="14.6341%" x="0%" y="48px"><defs /><svg width="100%" x="0" y="0px"><defs /><text text-anchor="middle" x="50%" y="16px">3</text></svg></svg><line stroke="black" x1="50%" x2="7.31707%" y1="20px" y2="48px" /><svg width="85.3659%" x="14.6341%" y="48px"><defs /><svg width="100%" x="0" y="0px"><defs /><text text-anchor="middle" x="50%" y="16px">TP</text></svg><svg width="30%" x="0%" y="48px"><defs /><svg width="100%" x="0" y="0px"><defs /><text text-anchor="middle" x="50%" y="16px">DP</text></svg><svg width="100%" x="0%" y="48px"><defs /><svg width="100%" x="0" y="0px"><defs /><text text-anchor="middle" x="50%" y="16px"><tspan>t</tspan><tspan dy="4px" style="font-size: 12px">1</tspan></text></svg></svg><line stroke="black" x1="50%" x2="50%" y1="20px" y2="48px" /></svg><line stroke="black" x1="50%" x2="15%" y1="20px" y2="48px" /><svg width="70%" x="30%" y="48px"><defs /><svg width="100%" x="0" y="0px"><defs /><text text-anchor="middle" x="50%" y="16px">VP</text></svg><svg width="57.1429%" x="0%" y="48px"><defs /><svg width="100%" x="0" y="0px"><defs /><text text-anchor="middle" x="50%" y="16px">V</text></svg><svg width="100%" x="0%" y="48px"><defs /><svg width="100%" x="0" y="0px"><defs /><text text-anchor="middle" x="50%" y="16px">likes</text></svg></svg><line stroke="black" x1="50%" x2="50%" y1="20px" y2="48px" /></svg><line stroke="black" x1="50%" x2="28.5714%" y1="20px" y2="48px" /><svg width="42.8571%" x="57.1429%" y="48px"><defs /><svg width="100%" x="0" y="0px"><defs /><text text-anchor="middle" x="50%" y="16px">DP</text></svg><svg width="100%" x="0%" y="48px"><defs /><svg width="100%" x="0" y="0px"><defs /><text text-anchor="middle" x="50%" y="16px"><tspan>t</tspan><tspan dy="4px" style="font-size: 12px">3</tspan></text></svg></svg><line stroke="black" x1="50%" x2="50%" y1="20px" y2="48px" /></svg><line stroke="black" x1="50%" x2="78.5714%" y1="20px" y2="48px" /></svg><line stroke="black" x1="50%" x2="65%" y1="20px" y2="48px" /></svg><line stroke="black" x1="50%" x2="57.3171%" y1="20px" y2="48px" /></svg><line stroke="black" x1="50%" x2="67.4603%" y1="20px" y2="48px" /></svg><line stroke="black" x1="50%" x2="54.3478%" y1="20px" y2="48px" /></svg><line stroke="black" x1="50%" x2="62.9032%" y1="20px" y2="48px" /><polyline fill="none" points="252.99999999999994,312.0 252.99999999999994,328.0 48.0,328.0 48.0,223.2" shape-rendering="crispEdges" stroke="black" stroke-width="1" /><polyline fill="black" points="51.0,223.2 48.0,216.0 45.0,223.2" stroke="none" /><rect fill="gray" fill-opacity="0.15" height="168px" rx="8" ry="8" stroke="none" stroke-width="1" width="25.8065%" x="0%" y="48px" /><polyline fill="none" points="350.99999999999994,360.0 350.99999999999994,376.0 164.0,376.0 164.0,319.2" shape-rendering="crispEdges" stroke="black" stroke-width="1" /><polyline fill="black" points="167.0,319.2 164.0,312.0 161.0,319.2" stroke="none" /><rect fill="gray" fill-opacity="0.15" height="168px" rx="8" ry="8" stroke="none" stroke-width="1" width="23.6559%" x="32.2581%" y="144px" /><polyline fill="none" points="252.99999999999994,312.0 252.99999999999994,328.0 48.0,328.0 48.0,223.2" shape-rendering="crispEdges" stroke="black" stroke-width="1" /><polyline fill="black" points="51.0,223.2 48.0,216.0 45.0,223.2" stroke="none" /><rect fill="gray" fill-opacity="0.15" height="168px" rx="8" ry="8" stroke="none" stroke-width="1" width="25.8065%" x="0%" y="48px" /><polyline fill="none" points="350.99999999999994,360.0 350.99999999999994,376.0 164.0,376.0 164.0,319.2" shape-rendering="crispEdges" stroke="black" stroke-width="1" /><polyline fill="black" points="167.0,319.2 164.0,312.0 161.0,319.2" stroke="none" /><rect fill="gray" fill-opacity="0.15" height="168px" rx="8" ry="8" stroke="none" stroke-width="1" width="23.6559%" x="32.2581%" y="144px" /></svg></svg><svg height="100%" width="100%" x="0" y="390.5"><defs /><text style="font-family: times, serif; font-weight:normal; font-style: italic; font-size: 13px;" text-anchor="middle" x="50%" y="1em">Step 3: QR an indexed DP (choosing the subject).</text></svg></svg></svg></svg></svg></svg></svg><svg height="100%" width="100%" x="0" y="767.5"><defs /><text style="font-family: times, serif; font-weight:normal; font-style: italic; font-size: 13px;" text-anchor="middle" x="50%" y="1em">Trees illustrating a QR (Quantifier Raising) derivation in the Heim &amp; Kratzer 1998 style</text></svg></svg>