<svg baseProfile="full" height="382.4px" preserveAspectRatio="xMidYMid meet" style="font-family: times, serif; font-weight: normal; font-style: normal; font-size: 16px" version="1.1" viewBox="0,0,597.1999999999999,382.40000000000003" width="597.2px" xmlns="http://www.w3.org/2000/svg" xmlns:ev="http://www.w3.org/2001/xml-events" xmlns:xlink="http://www.w3.org/1999/xlink"><defs /><svg width="100%" x="0" y="0px"><defs /><text text-anchor="middle" x="50%" y="16px"><tspan>S0</tspan><tspan dy="4px" style="font-size: 13px">p=0.00069696</tspan></text></svg><svg width="95.9812%" x="0%" y="51.2px"><defs /><svg width="100%" x="0" y="0px"><defs /><text text-anchor="middle" x="50%" y="16px"><tspan>S</tspan><tspan dy="4px" style="font-size: 13px">p=0.00069696</tspan></text></svg><svg width="84.7174%" x="0%" y="51.2px"><defs /><svg width="100%" x="0" y="0px"><defs /><text text-anchor="middle" x="50%" y="16px"><tspan>NP</tspan><tspan dy="4px" style="font-size: 13px">p=0.017424000000000002</tspan></text></svg><svg width="32.7842%" x="0%" y="51.2px"><defs /><svg width="100%" x="0" y="0px"><defs /><text text-anchor="middle" x="50%" y="16px"><tspan>NP</tspan><tspan dy="4px" style="font-size: 13px">p=0.44</tspan></text></svg><svg width="50%" x="0%" y="51.2px"><defs /><svg width="100%" x="0" y="0px"><defs /><text text-anchor="middle" x="50%" y="16px"><tspan>DT</tspan><tspan dy="4px" style="font-size: 13px">p=1.0</tspan></text></svg><svg width="100%" x="0%" y="51.2px"><defs /><svg width="100%" x="0" y="1.6px"><defs /><text text-anchor="middle" x="50%" y="16px">the</text></svg></svg><line stroke="black" x1="50%" x2="50%" y1="23.2px" y2="52.8px" /></svg><line stroke="black" x1="50%" x2="25%" y1="23.2px" y2="51.2px" /><svg width="50%" x="50%" y="51.2px"><defs /><svg width="100%" x="0" y="0px"><defs /><text text-anchor="middle" x="50%" y="16px"><tspan>NN</tspan><tspan dy="4px" style="font-size: 13px">p=0.5</tspan></text></svg><svg width="100%" x="0%" y="51.2px"><defs /><svg width="100%" x="0" y="1.6px"><defs /><text text-anchor="middle" x="50%" y="16px">horse</text></svg></svg><line stroke="black" x1="50%" x2="50%" y1="23.2px" y2="52.8px" /></svg><line stroke="black" x1="50%" x2="75%" y1="23.2px" y2="51.2px" /></svg><line stroke="black" x1="50%" x2="16.3921%" y1="23.2px" y2="51.2px" /><svg width="67.2158%" x="32.7842%" y="51.2px"><defs /><svg width="100%" x="0" y="0px"><defs /><text text-anchor="middle" x="50%" y="16px"><tspan>VP</tspan><tspan dy="4px" style="font-size: 13px">p=0.33</tspan></text></svg><svg width="26.8382%" x="0%" y="51.2px"><defs /><svg width="100%" x="0" y="0px"><defs /><text text-anchor="middle" x="50%" y="16px"><tspan>VBN</tspan><tspan dy="4px" style="font-size: 13px">p=1.0</tspan></text></svg><svg width="100%" x="0%" y="51.2px"><defs /><svg width="100%" x="0" y="1.6px"><defs /><text text-anchor="middle" x="50%" y="16px">raced</text></svg></svg><line stroke="black" x1="50%" x2="50%" y1="23.2px" y2="52.8px" /></svg><line stroke="black" x1="50%" x2="13.4191%" y1="23.2px" y2="51.2px" /><svg width="73.1618%" x="26.8382%" y="51.2px"><defs /><svg width="100%" x="0" y="0px"><defs /><text text-anchor="middle" x="50%" y="16px"><tspan>PP</tspan><tspan dy="4px" style="font-size: 13px">p=0.44</tspan></text></svg><svg width="33.3333%" x="0%" y="51.2px"><defs /><svg width="100%" x="0" y="0px"><defs /><text text-anchor="middle" x="50%" y="16px"><tspan>IN</tspan><tspan dy="4px" style="font-size: 13px">p=1.0</tspan></text></svg><svg width="100%" x="0%" y="51.2px"><defs /><svg width="100%" x="0" y="1.6px"><defs /><text text-anchor="middle" x="50%" y="16px">past</text></svg></svg><line stroke="black" x1="50%" x2="50%" y1="23.2px" y2="52.8px" /></svg><line stroke="black" x1="50%" x2="16.6667%" y1="23.2px" y2="51.2px" /><svg width="66.6667%" x="33.3333%" y="51.2px"><defs /><svg width="100%" x="0" y="0px"><defs /><text text-anchor="middle" x="50%" y="16px"><tspan>NP</tspan><tspan dy="4px" style="font-size: 13px">p=0.44</tspan></text></svg><svg width="50%" x="0%" y="51.2px"><defs /><svg width="100%" x="0" y="0px"><defs /><text text-anchor="middle" x="50%" y="16px"><tspan>DT</tspan><tspan dy="4px" style="font-size: 13px">p=1.0</tspan></text></svg><svg width="100%" x="0%" y="51.2px"><defs /><svg width="100%" x="0" y="0px"><defs /><text text-anchor="middle" x="50%" y="16px">the</text></svg></svg><line stroke="black" x1="50%" x2="50%" y1="23.2px" y2="51.2px" /></svg><line stroke="black" x1="50%" x2="25%" y1="23.2px" y2="51.2px" /><svg width="50%" x="50%" y="51.2px"><defs /><svg width="100%" x="0" y="0px"><defs /><text text-anchor="middle" x="50%" y="16px"><tspan>NN</tspan><tspan dy="4px" style="font-size: 13px">p=0.5</tspan></text></svg><svg width="100%" x="0%" y="51.2px"><defs /><svg width="100%" x="0" y="0px"><defs /><text text-anchor="middle" x="50%" y="16px">barn</text></svg></svg><line stroke="black" x1="50%" x2="50%" y1="23.2px" y2="51.2px" /></svg><line stroke="black" x1="50%" x2="75%" y1="23.2px" y2="51.2px" /></svg><line stroke="black" x1="50%" x2="66.6667%" y1="23.2px" y2="51.2px" /></svg><line stroke="black" x1="50%" x2="63.4191%" y1="23.2px" y2="51.2px" /></svg><line stroke="black" x1="50%" x2="66.3921%" y1="23.2px" y2="51.2px" /></svg><line stroke="black" x1="50%" x2="42.3587%" y1="23.2px" y2="51.2px" /><svg width="15.2826%" x="84.7174%" y="51.2px"><defs /><svg width="100%" x="0" y="0px"><defs /><text text-anchor="middle" x="50%" y="16px"><tspan>VP</tspan><tspan dy="4px" style="font-size: 13px">p=0.04</tspan></text></svg><svg width="100%" x="0%" y="51.2px"><defs /><svg width="100%" x="0" y="0px"><defs /><text text-anchor="middle" x="50%" y="16px"><tspan>VBD</tspan><tspan dy="4px" style="font-size: 13px">p=0.5</tspan></text></svg><svg width="100%" x="0%" y="51.2px"><defs /><svg width="100%" x="0" y="1.6px"><defs /><text text-anchor="middle" x="50%" y="16px">fell</text></svg></svg><line stroke="black" x1="50%" x2="50%" y1="23.2px" y2="52.8px" /></svg><line stroke="black" x1="50%" x2="50%" y1="23.2px" y2="51.2px" /></svg><line stroke="black" x1="50%" x2="92.3587%" y1="23.2px" y2="51.2px" /></svg><line stroke="black" x1="50%" x2="47.9906%" y1="23.2px" y2="51.2px" /><svg width="4.01875%" x="95.9812%" y="51.2px"><defs /><svg width="100%" x="0" y="1.6px"><defs /><text text-anchor="middle" x="50%" y="16px">.</text></svg></svg><line stroke="black" x1="50%" x2="97.9906%" y1="23.2px" y2="52.8px" /></svg>