<svg baseProfile="full" height="472.5px" preserveAspectRatio="xMidYMid meet" version="1.1" viewBox="0,0,448.0,472.5" width="448px" xmlns="http://www.w3.org/2000/svg" xmlns:ev="http://www.w3.org/2001/xml-events" xmlns:xlink="http://www.w3.org/1999/xlink"><defs /><svg height="440.0" width="448.0" x="0" y="0"><defs /><svg baseProfile="full" height="440px" preserveAspectRatio="xMidYMid meet" style="font-family: times, serif; font-weight: normal; font-style: normal; font-size: 16px;" version="1.1" viewBox="0,0,448.0,440.0" width="448px" xmlns="http://www.w3.org/2000/svg" xmlns:ev="http://www.w3.org/2001/xml-events" xmlns:xlink="http://www.w3.org/1999/xlink"><defs /><svg width="100%" x="0" y="0px"><defs /><text text-anchor="middle" x="50%" y="16px">FP</text></svg><svg width="8.92857%" x="0%" y="48px"><defs /><svg width="100%" x="0" y="0px"><defs /><text text-anchor="middle" x="50%" y="16px">F</text></svg><svg width="100%" x="0%" y="48px"><defs /><svg width="100%" x="0" y="0px"><defs /><text text-anchor="middle" x="50%" y="16px">V</text></svg><svg width="100%" x="0%" y="48px"><defs /><svg width="100%" x="0" y="0px"><defs /><text text-anchor="middle" x="50%" y="16px">put</text></svg></svg><line stroke="black" x1="50%" x2="50%" y1="19.2px" y2="48px" /></svg><line stroke="black" x1="50%" x2="50%" y1="19.2px" y2="48px" /></svg><line stroke="black" x1="50%" x2="4.46429%" y1="19.2px" y2="48px" /><svg width="91.0714%" x="8.92857%" y="48px"><defs /><svg width="100%" x="0" y="0px"><defs /><text text-anchor="middle" x="50%" y="16px">AgrOP</text></svg><svg width="17.6471%" x="0%" y="48px"><defs /><svg width="100%" x="0" y="0px"><defs /><text text-anchor="middle" x="50%" y="16px">DP(Obj)</text></svg><svg width="100%" x="0%" y="48px"><defs /><svg width="100%" x="0" y="0px"><defs /><text text-anchor="middle" x="50%" y="16px">milk</text></svg></svg><line stroke="black" x1="50%" x2="23.3333%" y1="19.2px" y2="48px" /><line stroke="black" x1="50%" x2="76.6667%" y1="19.2px" y2="48px" /><line stroke="black" x1="23.3333%" x2="76.6667%" y1="48px" y2="48px" /></svg><line stroke="black" x1="50%" x2="8.82353%" y1="19.2px" y2="48px" /><svg width="82.3529%" x="17.6471%" y="48px"><defs /><svg width="100%" x="0" y="8px"><defs /></svg><svg width="14.2857%" x="0%" y="48px"><defs /><svg width="100%" x="0" y="0px"><defs /><text text-anchor="middle" x="50%" y="16px">AgrO</text></svg><svg width="100%" x="0%" y="48px"><defs /><svg width="100%" x="0" y="0px"><defs /><text text-anchor="middle" x="50%" y="16px">t(V)</text></svg></svg><line stroke="black" x1="50%" x2="50%" y1="19.2px" y2="48px" /></svg><line stroke="black" x1="50%" x2="7.14286%" y1="8px" y2="48px" /><svg width="85.7143%" x="14.2857%" y="48px"><defs /><svg width="100%" x="0" y="0px"><defs /><text text-anchor="middle" x="50%" y="16px">VP</text></svg><svg width="25%" x="0%" y="48px"><defs /><svg width="100%" x="0" y="0px"><defs /><text text-anchor="middle" x="50%" y="16px">t(Subj)</text></svg></svg><line stroke="black" x1="50%" x2="12.5%" y1="19.2px" y2="48px" /><svg width="75%" x="25%" y="48px"><defs /><svg width="100%" x="0" y="8px"><defs /></svg><svg width="22.2222%" x="0%" y="48px"><defs /><svg width="100%" x="0" y="0px"><defs /><text text-anchor="middle" x="50%" y="16px">t(V)</text></svg></svg><line stroke="black" x1="50%" x2="11.1111%" y1="8px" y2="48px" /><svg width="77.7778%" x="22.2222%" y="48px"><defs /><svg width="100%" x="0" y="0px"><defs /><text text-anchor="middle" x="50%" y="16px">VP</text></svg><svg width="33.3333%" x="0%" y="48px"><defs /><svg width="100%" x="0" y="0px"><defs /><text text-anchor="middle" x="50%" y="16px">PP</text></svg><svg width="100%" x="0%" y="48px"><defs /><svg width="100%" x="0" y="0px"><defs /><text text-anchor="middle" x="50%" y="16px">in it</text></svg></svg><line stroke="black" x1="50%" x2="10%" y1="19.2px" y2="48px" /><line stroke="black" x1="50%" x2="90%" y1="19.2px" y2="48px" /><line stroke="black" x1="10%" x2="90%" y1="48px" y2="48px" /></svg><line stroke="black" x1="50%" x2="16.6667%" y1="19.2px" y2="48px" /><svg width="66.6667%" x="33.3333%" y="48px"><defs /><svg width="100%" x="0" y="8px"><defs /></svg><svg width="42.8571%" x="0%" y="48px"><defs /><svg width="100%" x="0" y="0px"><defs /><text text-anchor="middle" x="50%" y="16px">V</text></svg><svg width="100%" x="0%" y="48px"><defs /><svg width="100%" x="0" y="0px"><defs /><text text-anchor="middle" x="50%" y="16px">t(V)</text></svg></svg><line stroke="black" x1="50%" x2="50%" y1="19.2px" y2="48px" /></svg><line stroke="black" x1="50%" x2="21.4286%" y1="8px" y2="48px" /><svg width="57.1429%" x="42.8571%" y="48px"><defs /><svg width="100%" x="0" y="0px"><defs /><text text-anchor="middle" x="50%" y="16px">t(Obj)</text></svg></svg><line stroke="black" x1="50%" x2="71.4286%" y1="8px" y2="48px" /></svg><line stroke="black" x1="50%" x2="66.6667%" y1="19.2px" y2="56px" /></svg><line stroke="black" x1="50%" x2="61.1111%" y1="8px" y2="48px" /></svg><line stroke="black" x1="50%" x2="62.5%" y1="19.2px" y2="56px" /></svg><line stroke="black" x1="50%" x2="57.1429%" y1="8px" y2="48px" /></svg><line stroke="black" x1="50%" x2="58.8235%" y1="19.2px" y2="56px" /></svg><line stroke="black" x1="50%" x2="54.4643%" y1="19.2px" y2="48px" /><polyline fill="none" points="360.0,408.0 360.0,424.0 136.0,424.0 136.0,223.2" shape-rendering="crispEdges" stroke="black" stroke-width="1" /><polyline fill="black" points="139.0,223.2 136.0,216.0 133.0,223.2" stroke="none" /><polyline fill="none" points="136.0,216.0 136.0,232.0 20.0,232.0 20.0,175.2" shape-rendering="crispEdges" stroke="black" stroke-width="1" /><polyline fill="black" points="23.0,175.2 20.0,168.0 17.0,175.2" stroke="none" /><polyline fill="none" points="416.0,360.0 416.0,432.0 76.0,432.0 76.0,175.2" shape-rendering="crispEdges" stroke="black" stroke-width="1" /><polyline fill="black" points="79.0,175.2 76.0,168.0 73.0,175.2" stroke="none" /><polyline fill="none" points="360.0,408.0 360.0,424.0 136.0,424.0 136.0,223.2" shape-rendering="crispEdges" stroke="black" stroke-width="1" /><polyline fill="black" points="139.0,223.2 136.0,216.0 133.0,223.2" stroke="none" /><polyline fill="none" points="136.0,216.0 136.0,232.0 20.0,232.0 20.0,175.2" shape-rendering="crispEdges" stroke="black" stroke-width="1" /><polyline fill="black" points="23.0,175.2 20.0,168.0 17.0,175.2" stroke="none" /><polyline fill="none" points="416.0,360.0 416.0,432.0 76.0,432.0 76.0,175.2" shape-rendering="crispEdges" stroke="black" stroke-width="1" /><polyline fill="black" points="79.0,175.2 76.0,168.0 73.0,175.2" stroke="none" /></svg></svg><svg height="100%" width="100%" x="0" y="446.5"><defs /><text style="font-family: times, serif; font-weight:normal; font-style: italic; font-size: 13px;" text-anchor="middle" x="50%" y="1em">Tree after ex. 58 of McCloskey (2000)</text></svg></svg>