<svg baseProfile="full" height="472.5px" preserveAspectRatio="xMidYMid meet" version="1.1" viewBox="0,0,404.0,472.5" width="404px" xmlns="http://www.w3.org/2000/svg" xmlns:ev="http://www.w3.org/2001/xml-events" xmlns:xlink="http://www.w3.org/1999/xlink"><defs /><svg height="440.0" width="404.0" x="0" y="0"><defs /><svg baseProfile="full" height="440px" preserveAspectRatio="xMidYMid meet" style="font-family: times, serif; font-weight: normal; font-style: normal; font-size: 16px" version="1.1" viewBox="0,0,404.0,440.0" width="404px" xmlns="http://www.w3.org/2000/svg" xmlns:ev="http://www.w3.org/2001/xml-events" xmlns:xlink="http://www.w3.org/1999/xlink"><defs /><svg width="100%" x="0" y="0px"><defs /><text text-anchor="middle" x="50%" y="16px">FP</text></svg><svg width="9.90099%" x="0%" y="48px"><defs /><svg width="100%" x="0" y="0px"><defs /><text text-anchor="middle" x="50%" y="16px">F</text></svg><svg width="100%" x="0%" y="48px"><defs /><svg width="100%" x="0" y="0px"><defs /><text text-anchor="middle" x="50%" y="16px">V</text></svg><svg width="100%" x="0%" y="48px"><defs /><svg width="100%" x="0" y="0px"><defs /><text text-anchor="middle" x="50%" y="16px">put</text></svg></svg><line stroke="black" x1="50%" x2="50%" y1="20px" y2="48px" /></svg><line stroke="black" x1="50%" x2="50%" y1="20px" y2="48px" /></svg><line stroke="black" x1="50%" x2="4.9505%" y1="20px" y2="48px" /><svg width="90.099%" x="9.90099%" y="48px"><defs /><svg width="100%" x="0" y="0px"><defs /><text text-anchor="middle" x="50%" y="16px">AgrOP</text></svg><svg width="17.033%" x="0%" y="48px"><defs /><svg width="100%" x="0" y="0px"><defs /><text text-anchor="middle" x="50%" y="16px"><tspan>DP</tspan><tspan dy="4px" style="font-size: 12px">Obj</tspan></text></svg><svg width="100%" x="0%" y="48px"><defs /><svg width="100%" x="0" y="0px"><defs /><text text-anchor="middle" x="50%" y="16px">milk</text></svg></svg><line stroke="black" x1="50%" x2="19.0323%" y1="20px" y2="48px" /><line stroke="black" x1="50%" x2="80.9677%" y1="20px" y2="48px" /><line stroke="black" x1="19.0323%" x2="80.9677%" y1="48px" y2="48px" /></svg><line stroke="black" x1="50%" x2="8.51648%" y1="20px" y2="48px" /><svg width="82.967%" x="17.033%" y="48px"><defs /><svg width="100%" x="0" y="8px"><defs /></svg><svg width="15.894%" x="0%" y="48px"><defs /><svg width="100%" x="0" y="0px"><defs /><text text-anchor="middle" x="50%" y="16px">AgrO</text></svg><svg width="100%" x="0%" y="48px"><defs /><svg width="100%" x="0" y="0px"><defs /><text text-anchor="middle" x="50%" y="16px"><tspan>t</tspan><tspan dy="4px" style="font-size: 12px">V</tspan></text></svg></svg><line stroke="black" x1="50%" x2="50%" y1="20px" y2="48px" /></svg><line stroke="black" x1="50%" x2="7.94702%" y1="8px" y2="48px" /><svg width="84.106%" x="15.894%" y="48px"><defs /><svg width="100%" x="0" y="0px"><defs /><text text-anchor="middle" x="50%" y="16px">VP</text></svg><svg width="23.622%" x="0%" y="48px"><defs /><svg width="100%" x="0" y="0px"><defs /><text text-anchor="middle" x="50%" y="16px"><tspan>t</tspan><tspan dy="4px" style="font-size: 12px">Subj</tspan></text></svg></svg><line stroke="black" x1="50%" x2="11.811%" y1="20px" y2="48px" /><svg width="76.378%" x="23.622%" y="48px"><defs /><svg width="100%" x="0" y="8px"><defs /></svg><svg width="21.6495%" x="0%" y="48px"><defs /><svg width="100%" x="0" y="0px"><defs /><text text-anchor="middle" x="50%" y="16px"><tspan>t</tspan><tspan dy="4px" style="font-size: 12px">V</tspan></text></svg></svg><line stroke="black" x1="50%" x2="10.8247%" y1="8px" y2="48px" /><svg width="78.3505%" x="21.6495%" y="48px"><defs /><svg width="100%" x="0" y="0px"><defs /><text text-anchor="middle" x="50%" y="16px">VP</text></svg><svg width="36.8421%" x="0%" y="48px"><defs /><svg width="100%" x="0" y="0px"><defs /><text text-anchor="middle" x="50%" y="16px">PP</text></svg><svg width="100%" x="0%" y="48px"><defs /><svg width="100%" x="0" y="0px"><defs /><text text-anchor="middle" x="50%" y="16px">in it</text></svg></svg><line stroke="black" x1="50%" x2="10%" y1="20px" y2="48px" /><line stroke="black" x1="50%" x2="90%" y1="20px" y2="48px" /><line stroke="black" x1="10%" x2="90%" y1="48px" y2="48px" /></svg><line stroke="black" x1="50%" x2="18.4211%" y1="20px" y2="48px" /><svg width="63.1579%" x="36.8421%" y="48px"><defs /><svg width="100%" x="0" y="8px"><defs /></svg><svg width="43.75%" x="0%" y="48px"><defs /><svg width="100%" x="0" y="0px"><defs /><text text-anchor="middle" x="50%" y="16px">V</text></svg><svg width="100%" x="0%" y="48px"><defs /><svg width="100%" x="0" y="0px"><defs /><text text-anchor="middle" x="50%" y="16px"><tspan>t</tspan><tspan dy="4px" style="font-size: 12px">V</tspan></text></svg></svg><line stroke="black" x1="50%" x2="50%" y1="20px" y2="48px" /></svg><line stroke="black" x1="50%" x2="21.875%" y1="8px" y2="48px" /><svg width="56.25%" x="43.75%" y="48px"><defs /><svg width="100%" x="0" y="0px"><defs /><text text-anchor="middle" x="50%" y="16px"><tspan>t</tspan><tspan dy="4px" style="font-size: 12px">Obj</tspan></text></svg></svg><line stroke="black" x1="50%" x2="71.875%" y1="8px" y2="48px" /></svg><line stroke="black" x1="50%" x2="68.4211%" y1="20px" y2="56px" /></svg><line stroke="black" x1="50%" x2="60.8247%" y1="8px" y2="48px" /></svg><line stroke="black" x1="50%" x2="61.811%" y1="20px" y2="56px" /></svg><line stroke="black" x1="50%" x2="57.947%" y1="8px" y2="48px" /></svg><line stroke="black" x1="50%" x2="58.5165%" y1="20px" y2="56px" /></svg><line stroke="black" x1="50%" x2="54.9505%" y1="20px" y2="48px" /><polyline fill="none" points="328.99999999999994,408.0 328.99999999999994,424.0 126.0,424.0 126.0,223.2" shape-rendering="crispEdges" stroke="black" stroke-width="1" /><polyline fill="black" points="129.0,223.2 126.0,216.0 123.0,223.2" stroke="none" /><polyline fill="none" points="126.0,216.0 126.0,232.0 20.0,232.0 20.0,175.2" shape-rendering="crispEdges" stroke="black" stroke-width="1" /><polyline fill="black" points="23.0,175.2 20.0,168.0 17.0,175.2" stroke="none" /><polyline fill="none" points="377.0,360.0 377.0,432.0 71.0,432.0 71.0,175.2" shape-rendering="crispEdges" stroke="black" stroke-width="1" /><polyline fill="black" points="74.0,175.2 71.0,168.0 68.0,175.2" stroke="none" /><polyline fill="none" points="328.99999999999994,408.0 328.99999999999994,424.0 126.0,424.0 126.0,223.2" shape-rendering="crispEdges" stroke="black" stroke-width="1" /><polyline fill="black" points="129.0,223.2 126.0,216.0 123.0,223.2" stroke="none" /><polyline fill="none" points="126.0,216.0 126.0,232.0 20.0,232.0 20.0,175.2" shape-rendering="crispEdges" stroke="black" stroke-width="1" /><polyline fill="black" points="23.0,175.2 20.0,168.0 17.0,175.2" stroke="none" /><polyline fill="none" points="377.0,360.0 377.0,432.0 71.0,432.0 71.0,175.2" shape-rendering="crispEdges" stroke="black" stroke-width="1" /><polyline fill="black" points="74.0,175.2 71.0,168.0 68.0,175.2" stroke="none" /></svg></svg><svg height="100%" width="100%" x="0" y="446.5"><defs /><text style="font-family: times, serif; font-weight:normal; font-style: italic; font-size: 13px;" text-anchor="middle" x="50%" y="1em">Tree after ex. 58 of McCloskey (2000)</text></svg></svg>