<svg baseProfile="full" height="264.5px" preserveAspectRatio="xMidYMid meet" version="1.1" viewBox="0,0,368.0,264.5" width="368px" xmlns="http://www.w3.org/2000/svg" xmlns:ev="http://www.w3.org/2001/xml-events" xmlns:xlink="http://www.w3.org/1999/xlink"><defs /><svg height="232.0" width="368.0" x="0" y="0"><defs /><svg baseProfile="full" height="232px" preserveAspectRatio="xMidYMid meet" style="font-family: times, serif; font-weight: normal; font-style: normal; font-size: 16px;" version="1.1" viewBox="0,0,368.0,232.0" width="368px" xmlns="http://www.w3.org/2000/svg" xmlns:ev="http://www.w3.org/2001/xml-events" xmlns:xlink="http://www.w3.org/1999/xlink"><defs /><svg width="100%" x="0" y="0px"><defs /><text text-anchor="middle" x="50%" y="16px">TP</text></svg><svg width="50%" x="0%" y="48px"><defs /><svg width="100%" x="0" y="0px"><defs /><text text-anchor="middle" x="50%" y="16px">NP</text></svg><svg width="21.7391%" x="0%" y="144px"><defs /><svg width="100%" x="0" y="0px"><defs /><text text-anchor="middle" x="50%" y="16px">D</text><text text-anchor="middle" x="50%" y="32px">The</text></svg></svg><line stroke="black" x1="50%" x2="10.8696%" y1="19.2px" y2="144px" /><svg width="56.5217%" x="21.7391%" y="48px"><defs /><svg width="100%" x="0" y="0px"><defs /><text text-anchor="middle" x="50%" y="16px">AdjP</text></svg><svg width="46.1538%" x="0%" y="48px"><defs /><svg width="100%" x="0" y="0px"><defs /><text text-anchor="middle" x="50%" y="16px">AdvP</text></svg><svg width="100%" x="0%" y="48px"><defs /><svg width="100%" x="0" y="0px"><defs /><text text-anchor="middle" x="50%" y="16px">Adv</text><text text-anchor="middle" x="50%" y="32px">very</text></svg></svg><line stroke="black" x1="50%" x2="50%" y1="19.2px" y2="48px" /></svg><line stroke="black" x1="50%" x2="23.0769%" y1="19.2px" y2="48px" /><svg width="53.8462%" x="46.1538%" y="96px"><defs /><svg width="100%" x="0" y="0px"><defs /><text text-anchor="middle" x="50%" y="16px">Adj</text><text text-anchor="middle" x="50%" y="32px">small</text></svg></svg><line stroke="black" x1="50%" x2="73.0769%" y1="19.2px" y2="96px" /></svg><line stroke="black" x1="50%" x2="50%" y1="19.2px" y2="48px" /><svg width="21.7391%" x="78.2609%" y="144px"><defs /><svg width="100%" x="0" y="0px"><defs /><text text-anchor="middle" x="50%" y="16px">N</text><text text-anchor="middle" x="50%" y="32px">boy</text></svg></svg><line stroke="black" x1="50%" x2="89.1304%" y1="19.2px" y2="144px" /></svg><line stroke="black" x1="50%" x2="25%" y1="19.2px" y2="48px" /><svg width="50%" x="50%" y="48px"><defs /><svg width="100%" x="0" y="0px"><defs /><text text-anchor="middle" x="50%" y="16px">VP</text></svg><svg width="34.7826%" x="0%" y="144px"><defs /><svg width="100%" x="0" y="0px"><defs /><text text-anchor="middle" x="50%" y="16px">V</text><text text-anchor="middle" x="50%" y="32px">kissed</text></svg></svg><line stroke="black" x1="50%" x2="17.3913%" y1="19.2px" y2="144px" /><svg width="65.2174%" x="34.7826%" y="48px"><defs /><svg width="100%" x="0" y="0px"><defs /><text text-anchor="middle" x="50%" y="16px">NP</text></svg><svg width="33.3333%" x="0%" y="96px"><defs /><svg width="100%" x="0" y="0px"><defs /><text text-anchor="middle" x="50%" y="16px">D</text><text text-anchor="middle" x="50%" y="32px">the</text></svg></svg><line stroke="black" x1="50%" x2="16.6667%" y1="19.2px" y2="96px" /><svg width="66.6667%" x="33.3333%" y="96px"><defs /><svg width="100%" x="0" y="0px"><defs /><text text-anchor="middle" x="50%" y="16px">N</text><text text-anchor="middle" x="50%" y="32px">platypus</text></svg></svg><line stroke="black" x1="50%" x2="66.6667%" y1="19.2px" y2="96px" /></svg><line stroke="black" x1="50%" x2="67.3913%" y1="19.2px" y2="48px" /></svg><line stroke="black" x1="50%" x2="75%" y1="19.2px" y2="48px" /></svg></svg><svg height="100%" width="100%" x="0" y="238.5"><defs /><text style="font-family: times, serif; font-weight:normal; font-style: italic; font-size: 13px;" text-anchor="middle" x="50%" y="1em">Tree from Carnie 2012, p. 93</text></svg></svg>