<svg baseProfile="full" height="384px" preserveAspectRatio="xMidYMid meet" style="font-family: times, serif; font-weight: normal; font-style: normal; font-size: 16px" version="1.1" viewBox="0,0,456.0,384.0" width="456px" xmlns="http://www.w3.org/2000/svg" xmlns:ev="http://www.w3.org/2001/xml-events" xmlns:xlink="http://www.w3.org/1999/xlink"><defs /><svg width="100%" x="0" y="0px"><defs /><text text-anchor="middle" x="50%" y="16px">TP</text></svg><svg width="24.5614%" x="0%" y="48px"><defs /><svg width="100%" x="0" y="0px"><defs /><text text-anchor="middle" x="50%" y="16px">DP</text></svg><svg width="57.1429%" x="0%" y="48px"><defs /><svg width="100%" x="0" y="0px"><defs /><text text-anchor="middle" x="50%" y="16px">D</text></svg><svg style="font-family: verdana, arial, sans-serif; font-weight: normal; font-style: oblique; font-size: 16px" width="100%" x="0%" y="48px"><defs /><svg width="100%" x="0" y="0px"><defs /><text text-anchor="middle" x="50%" y="16px">every</text></svg></svg><line stroke="black" x1="50%" x2="50%" y1="20px" y2="48px" /></svg><line stroke="black" x1="50%" x2="28.5714%" y1="20px" y2="48px" /><svg width="42.8571%" x="57.1429%" y="48px"><defs /><svg width="100%" x="0" y="0px"><defs /><text text-anchor="middle" x="50%" y="16px">NP</text></svg><svg width="100%" x="0%" y="48px"><defs /><svg width="100%" x="0" y="0px"><defs /><text text-anchor="middle" x="50%" y="16px">N</text></svg><svg style="font-family: verdana, arial, sans-serif; font-weight: normal; font-style: oblique; font-size: 16px" width="100%" x="0%" y="48px"><defs /><svg width="100%" x="0" y="0px"><defs /><text text-anchor="middle" x="50%" y="16px">cat</text></svg></svg><line stroke="black" x1="50%" x2="50%" y1="20px" y2="48px" /></svg><line stroke="black" x1="50%" x2="50%" y1="20px" y2="48px" /></svg><line stroke="black" x1="50%" x2="78.5714%" y1="20px" y2="48px" /></svg><line stroke="black" x1="50%" x2="12.2807%" y1="20px" y2="48px" /><svg width="75.4386%" x="24.5614%" y="48px"><defs /><svg width="100%" x="0" y="0px"><defs /><text text-anchor="middle" x="50%" y="16px">TP</text></svg><svg style="font-family: verdana, arial, sans-serif; font-weight: normal; font-style: oblique; font-size: 16px" width="9.30233%" x="0%" y="48px"><defs /><svg width="100%" x="0" y="0px"><defs /><text fill="red" text-anchor="middle" x="50%" y="16px">1</text></svg></svg><line stroke="black" x1="50%" x2="4.65116%" y1="20px" y2="48px" /><svg width="90.6977%" x="9.30233%" y="48px"><defs /><svg width="100%" x="0" y="0px"><defs /><text text-anchor="middle" x="50%" y="16px">TP</text></svg><svg width="33.3333%" x="0%" y="48px"><defs /><svg width="100%" x="0" y="0px"><defs /><text text-anchor="middle" x="50%" y="16px">DP</text></svg><svg width="53.8462%" x="0%" y="48px"><defs /><svg width="100%" x="0" y="0px"><defs /><text text-anchor="middle" x="50%" y="16px">D</text></svg><svg style="font-family: verdana, arial, sans-serif; font-weight: normal; font-style: oblique; font-size: 16px" width="100%" x="0%" y="48px"><defs /><svg width="100%" x="0" y="0px"><defs /><text text-anchor="middle" x="50%" y="16px">some</text></svg></svg><line stroke="black" x1="50%" x2="50%" y1="20px" y2="48px" /></svg><line stroke="black" x1="50%" x2="26.9231%" y1="20px" y2="48px" /><svg width="46.1538%" x="53.8462%" y="48px"><defs /><svg width="100%" x="0" y="0px"><defs /><text text-anchor="middle" x="50%" y="16px">NP</text></svg><svg width="100%" x="0%" y="48px"><defs /><svg width="100%" x="0" y="0px"><defs /><text text-anchor="middle" x="50%" y="16px">N</text></svg><svg style="font-family: verdana, arial, sans-serif; font-weight: normal; font-style: oblique; font-size: 16px" width="100%" x="0%" y="48px"><defs /><svg width="100%" x="0" y="0px"><defs /><text text-anchor="middle" x="50%" y="16px">dog</text></svg></svg><line stroke="black" x1="50%" x2="50%" y1="20px" y2="48px" /></svg><line stroke="black" x1="50%" x2="50%" y1="20px" y2="48px" /></svg><line stroke="black" x1="50%" x2="76.9231%" y1="20px" y2="48px" /></svg><line stroke="black" x1="50%" x2="16.6667%" y1="20px" y2="48px" /><svg width="66.6667%" x="33.3333%" y="48px"><defs /><svg width="100%" x="0" y="0px"><defs /><text text-anchor="middle" x="50%" y="16px">TP</text></svg><svg style="font-family: verdana, arial, sans-serif; font-weight: normal; font-style: oblique; font-size: 16px" width="15.3846%" x="0%" y="48px"><defs /><svg width="100%" x="0" y="0px"><defs /><text fill="red" text-anchor="middle" x="50%" y="16px">3</text></svg></svg><line stroke="black" x1="50%" x2="7.69231%" y1="20px" y2="48px" /><svg width="84.6154%" x="15.3846%" y="48px"><defs /><svg width="100%" x="0" y="0px"><defs /><text text-anchor="middle" x="50%" y="16px">TP</text></svg><svg width="31.8182%" x="0%" y="48px"><defs /><svg width="100%" x="0" y="0px"><defs /><text text-anchor="middle" x="50%" y="16px">DP</text></svg><svg style="font-family: verdana, arial, sans-serif; font-weight: normal; font-style: oblique; font-size: 16px" width="100%" x="0%" y="48px"><defs /><svg width="100%" x="0" y="0px"><defs /><text fill="red" text-anchor="middle" x="50%" y="16px"><tspan>t</tspan><tspan dy="4px" style="font-size: 12px">1</tspan></text></svg></svg><line stroke="black" x1="50%" x2="50%" y1="20px" y2="48px" /></svg><line stroke="black" x1="50%" x2="15.9091%" y1="20px" y2="48px" /><svg width="68.1818%" x="31.8182%" y="48px"><defs /><svg width="100%" x="0" y="0px"><defs /><text text-anchor="middle" x="50%" y="16px">VP</text></svg><svg width="53.3333%" x="0%" y="48px"><defs /><svg width="100%" x="0" y="0px"><defs /><text text-anchor="middle" x="50%" y="16px">V</text></svg><svg style="font-family: verdana, arial, sans-serif; font-weight: normal; font-style: oblique; font-size: 16px" width="100%" x="0%" y="48px"><defs /><svg width="100%" x="0" y="0px"><defs /><text text-anchor="middle" x="50%" y="16px">likes</text></svg></svg><line stroke="black" x1="50%" x2="50%" y1="20px" y2="48px" /></svg><line stroke="black" x1="50%" x2="26.6667%" y1="20px" y2="48px" /><svg width="46.6667%" x="53.3333%" y="48px"><defs /><svg width="100%" x="0" y="0px"><defs /><text text-anchor="middle" x="50%" y="16px">DP</text></svg><svg style="font-family: verdana, arial, sans-serif; font-weight: normal; font-style: oblique; font-size: 16px" width="100%" x="0%" y="48px"><defs /><svg width="100%" x="0" y="0px"><defs /><text fill="red" text-anchor="middle" x="50%" y="16px"><tspan>t</tspan><tspan dy="4px" style="font-size: 12px">3</tspan></text></svg></svg><line stroke="black" x1="50%" x2="50%" y1="20px" y2="48px" /></svg><line stroke="black" x1="50%" x2="76.6667%" y1="20px" y2="48px" /></svg><line stroke="black" x1="50%" x2="65.9091%" y1="20px" y2="48px" /></svg><line stroke="black" x1="50%" x2="57.6923%" y1="20px" y2="48px" /></svg><line stroke="black" x1="50%" x2="66.6667%" y1="20px" y2="48px" /></svg><line stroke="black" x1="50%" x2="54.6512%" y1="20px" y2="48px" /></svg><line stroke="black" x1="50%" x2="62.2807%" y1="20px" y2="48px" /><polyline fill="none" points="308.00000000000006,312.0 308.00000000000006,328.0 56.0,328.0 56.0,223.2" shape-rendering="crispEdges" stroke="black" stroke-width="1" /><polyline fill="black" points="59.0,223.2 56.0,216.0 53.0,223.2" stroke="none" /><line shape-rendering="crispEdges" stroke="black" stroke-opacity="1.0" stroke-width="1" x1="0%" x2="24.5614%" y1="216px" y2="216px" /><polyline fill="none" points="428.0,360.0 428.0,376.0 196.00000000000003,376.0 196.00000000000003,319.2" shape-rendering="crispEdges" stroke="black" stroke-width="1" /><polyline fill="black" points="199.00000000000003,319.2 196.00000000000003,312.0 193.00000000000003,319.2" stroke="none" /><line shape-rendering="crispEdges" stroke="black" stroke-opacity="1.0" stroke-width="1" x1="31.5789%" x2="54.386%" y1="312px" y2="312px" /><polyline fill="none" points="308.00000000000006,312.0 308.00000000000006,328.0 56.0,328.0 56.0,223.2" shape-rendering="crispEdges" stroke="black" stroke-width="1" /><polyline fill="black" points="59.0,223.2 56.0,216.0 53.0,223.2" stroke="none" /><line shape-rendering="crispEdges" stroke="black" stroke-opacity="1.0" stroke-width="1" x1="0%" x2="24.5614%" y1="216px" y2="216px" /><polyline fill="none" points="428.0,360.0 428.0,376.0 196.00000000000003,376.0 196.00000000000003,319.2" shape-rendering="crispEdges" stroke="black" stroke-width="1" /><polyline fill="black" points="199.00000000000003,319.2 196.00000000000003,312.0 193.00000000000003,319.2" stroke="none" /><line shape-rendering="crispEdges" stroke="black" stroke-opacity="1.0" stroke-width="1" x1="31.5789%" x2="54.386%" y1="312px" y2="312px" /></svg>