<svg baseProfile="full" height="384px" preserveAspectRatio="xMidYMid meet" style="font-family: times, serif; font-weight: normal; font-style: normal; font-size: 16px;" version="1.1" viewBox="0,0,424.0,384.0" width="424px" xmlns="http://www.w3.org/2000/svg" xmlns:ev="http://www.w3.org/2001/xml-events" xmlns:xlink="http://www.w3.org/1999/xlink"><defs /><svg width="100%" x="0" y="0px"><defs /><text text-anchor="middle" x="50%" y="16px">TP</text></svg><svg width="26.4151%" x="0%" y="48px"><defs /><svg width="100%" x="0" y="0px"><defs /><text text-anchor="middle" x="50%" y="16px">DP</text></svg><svg width="57.1429%" x="0%" y="48px"><defs /><svg width="100%" x="0" y="0px"><defs /><text text-anchor="middle" x="50%" y="16px">D</text></svg><svg style="font-family: verdana, arial, sans-serif; font-weight: normal; font-style: oblique; font-size: 16px;" width="100%" x="0%" y="48px"><defs /><svg width="100%" x="0" y="0px"><defs /><text text-anchor="middle" x="50%" y="16px">every</text></svg></svg><line stroke="black" x1="50%" x2="50%" y1="19.2px" y2="48px" /></svg><line stroke="black" x1="50%" x2="28.5714%" y1="19.2px" y2="48px" /><svg width="42.8571%" x="57.1429%" y="48px"><defs /><svg width="100%" x="0" y="0px"><defs /><text text-anchor="middle" x="50%" y="16px">NP</text></svg><svg width="100%" x="0%" y="48px"><defs /><svg width="100%" x="0" y="0px"><defs /><text text-anchor="middle" x="50%" y="16px">N</text></svg><svg style="font-family: verdana, arial, sans-serif; font-weight: normal; font-style: oblique; font-size: 16px;" width="100%" x="0%" y="48px"><defs /><svg width="100%" x="0" y="0px"><defs /><text text-anchor="middle" x="50%" y="16px">cat</text></svg></svg><line stroke="black" x1="50%" x2="50%" y1="19.2px" y2="48px" /></svg><line stroke="black" x1="50%" x2="50%" y1="19.2px" y2="48px" /></svg><line stroke="black" x1="50%" x2="78.5714%" y1="19.2px" y2="48px" /></svg><line stroke="black" x1="50%" x2="13.2075%" y1="19.2px" y2="48px" /><svg width="73.5849%" x="26.4151%" y="48px"><defs /><svg width="100%" x="0" y="0px"><defs /><text text-anchor="middle" x="50%" y="16px">TP</text></svg><svg style="font-family: verdana, arial, sans-serif; font-weight: normal; font-style: oblique; font-size: 16px;" width="10.2564%" x="0%" y="48px"><defs /><svg width="100%" x="0" y="0px"><defs /><text fill="red" text-anchor="middle" x="50%" y="16px">1</text></svg></svg><line stroke="black" x1="50%" x2="5.12821%" y1="19.2px" y2="48px" /><svg width="89.7436%" x="10.2564%" y="48px"><defs /><svg width="100%" x="0" y="0px"><defs /><text text-anchor="middle" x="50%" y="16px">TP</text></svg><svg width="37.1429%" x="0%" y="48px"><defs /><svg width="100%" x="0" y="0px"><defs /><text text-anchor="middle" x="50%" y="16px">DP</text></svg><svg width="53.8462%" x="0%" y="48px"><defs /><svg width="100%" x="0" y="0px"><defs /><text text-anchor="middle" x="50%" y="16px">D</text></svg><svg style="font-family: verdana, arial, sans-serif; font-weight: normal; font-style: oblique; font-size: 16px;" width="100%" x="0%" y="48px"><defs /><svg width="100%" x="0" y="0px"><defs /><text text-anchor="middle" x="50%" y="16px">some</text></svg></svg><line stroke="black" x1="50%" x2="50%" y1="19.2px" y2="48px" /></svg><line stroke="black" x1="50%" x2="26.9231%" y1="19.2px" y2="48px" /><svg width="46.1538%" x="53.8462%" y="48px"><defs /><svg width="100%" x="0" y="0px"><defs /><text text-anchor="middle" x="50%" y="16px">NP</text></svg><svg width="100%" x="0%" y="48px"><defs /><svg width="100%" x="0" y="0px"><defs /><text text-anchor="middle" x="50%" y="16px">N</text></svg><svg style="font-family: verdana, arial, sans-serif; font-weight: normal; font-style: oblique; font-size: 16px;" width="100%" x="0%" y="48px"><defs /><svg width="100%" x="0" y="0px"><defs /><text text-anchor="middle" x="50%" y="16px">dog</text></svg></svg><line stroke="black" x1="50%" x2="50%" y1="19.2px" y2="48px" /></svg><line stroke="black" x1="50%" x2="50%" y1="19.2px" y2="48px" /></svg><line stroke="black" x1="50%" x2="76.9231%" y1="19.2px" y2="48px" /></svg><line stroke="black" x1="50%" x2="18.5714%" y1="19.2px" y2="48px" /><svg width="62.8571%" x="37.1429%" y="48px"><defs /><svg width="100%" x="0" y="0px"><defs /><text text-anchor="middle" x="50%" y="16px">TP</text></svg><svg style="font-family: verdana, arial, sans-serif; font-weight: normal; font-style: oblique; font-size: 16px;" width="18.1818%" x="0%" y="48px"><defs /><svg width="100%" x="0" y="0px"><defs /><text fill="red" text-anchor="middle" x="50%" y="16px">3</text></svg></svg><line stroke="black" x1="50%" x2="9.09091%" y1="19.2px" y2="48px" /><svg width="81.8182%" x="18.1818%" y="48px"><defs /><svg width="100%" x="0" y="0px"><defs /><text text-anchor="middle" x="50%" y="16px">TP</text></svg><svg width="27.7778%" x="0%" y="48px"><defs /><svg width="100%" x="0" y="0px"><defs /><text text-anchor="middle" x="50%" y="16px">DP</text></svg><svg style="font-family: verdana, arial, sans-serif; font-weight: normal; font-style: oblique; font-size: 16px;" width="100%" x="0%" y="48px"><defs /><svg width="100%" x="0" y="0px"><defs /><text fill="red" text-anchor="middle" x="50%" y="16px">t1</text></svg></svg><line stroke="black" x1="50%" x2="50%" y1="19.2px" y2="48px" /></svg><line stroke="black" x1="50%" x2="13.8889%" y1="19.2px" y2="48px" /><svg width="72.2222%" x="27.7778%" y="48px"><defs /><svg width="100%" x="0" y="0px"><defs /><text text-anchor="middle" x="50%" y="16px">VP</text></svg><svg width="61.5385%" x="0%" y="48px"><defs /><svg width="100%" x="0" y="0px"><defs /><text text-anchor="middle" x="50%" y="16px">V</text></svg><svg style="font-family: verdana, arial, sans-serif; font-weight: normal; font-style: oblique; font-size: 16px;" width="100%" x="0%" y="48px"><defs /><svg width="100%" x="0" y="0px"><defs /><text text-anchor="middle" x="50%" y="16px">likes</text></svg></svg><line stroke="black" x1="50%" x2="50%" y1="19.2px" y2="48px" /></svg><line stroke="black" x1="50%" x2="30.7692%" y1="19.2px" y2="48px" /><svg width="38.4615%" x="61.5385%" y="48px"><defs /><svg width="100%" x="0" y="0px"><defs /><text text-anchor="middle" x="50%" y="16px">DP</text></svg><svg style="font-family: verdana, arial, sans-serif; font-weight: normal; font-style: oblique; font-size: 16px;" width="100%" x="0%" y="48px"><defs /><svg width="100%" x="0" y="0px"><defs /><text fill="red" text-anchor="middle" x="50%" y="16px">t3</text></svg></svg><line stroke="black" x1="50%" x2="50%" y1="19.2px" y2="48px" /></svg><line stroke="black" x1="50%" x2="80.7692%" y1="19.2px" y2="48px" /></svg><line stroke="black" x1="50%" x2="63.8889%" y1="19.2px" y2="48px" /></svg><line stroke="black" x1="50%" x2="59.0909%" y1="19.2px" y2="48px" /></svg><line stroke="black" x1="50%" x2="68.5714%" y1="19.2px" y2="48px" /></svg><line stroke="black" x1="50%" x2="55.1282%" y1="19.2px" y2="48px" /></svg><line stroke="black" x1="50%" x2="63.2075%" y1="19.2px" y2="48px" /><polyline fill="none" points="300.0,312.0 300.0,328.0 56.0,328.0 56.0,223.2" shape-rendering="crispEdges" stroke="black" stroke-width="1" /><polyline fill="black" points="59.0,223.2 56.0,216.0 53.0,223.2" stroke="none" /><line shape-rendering="crispEdges" stroke="black" stroke-opacity="1.0" stroke-width="1" x1="0%" x2="26.4151%" y1="216px" y2="216px" /><polyline fill="none" points="404.0,360.0 404.0,376.0 196.0,376.0 196.0,319.2" shape-rendering="crispEdges" stroke="black" stroke-width="1" /><polyline fill="black" points="199.0,319.2 196.0,312.0 193.0,319.2" stroke="none" /><line shape-rendering="crispEdges" stroke="black" stroke-opacity="1.0" stroke-width="1" x1="33.9623%" x2="58.4906%" y1="312px" y2="312px" /><polyline fill="none" points="300.0,312.0 300.0,328.0 56.0,328.0 56.0,223.2" shape-rendering="crispEdges" stroke="black" stroke-width="1" /><polyline fill="black" points="59.0,223.2 56.0,216.0 53.0,223.2" stroke="none" /><line shape-rendering="crispEdges" stroke="black" stroke-opacity="1.0" stroke-width="1" x1="0%" x2="26.4151%" y1="216px" y2="216px" /><polyline fill="none" points="404.0,360.0 404.0,376.0 196.0,376.0 196.0,319.2" shape-rendering="crispEdges" stroke="black" stroke-width="1" /><polyline fill="black" points="199.0,319.2 196.0,312.0 193.0,319.2" stroke="none" /><line shape-rendering="crispEdges" stroke="black" stroke-opacity="1.0" stroke-width="1" x1="33.9623%" x2="58.4906%" y1="312px" y2="312px" /></svg>